<svg width="100" height="100" fill="none" xmlns="http://www.w3.org/2000/svg">
    <g clip-path="url(#a)">
        <path d="M5.078 5.078h89.844v89.844H5.078V5.078Z" fill="#1F0740" style="fill:color(display-p3 .1216 .0275 .251);fill-opacity:1"/>
        <path d="M0 0v100h100V0H0Zm94.922 94.922H5.078V5.078h89.844v89.844Z" fill="#D490C5" style="fill:color(display-p3 .8314 .5647 .7725);fill-opacity:1"/>
        <path d="M80.86 46.25s-.47-11.406-12.891-11.406c-12.5 0-13.516 17.187-13.516 17.187v3.672S56.641 70 67.187 70c10.547 0 11.563-2.031 11.563-2.031V61.64s-15.078 7.187-16.563-7.813h18.75V46.25h-.078Zm-7.032 1.875H62.11s0-6.484 5.86-7.188c6.406 0 5.86 7.188 5.86 7.188ZM39.453 23.359H30v2.97l-12.5 42.89h7.344L28.28 56.64h13.125l3.516 12.578h8.047l-13.516-45.86Zm-9.61 25.938 5-19.14 5 19.14h-10Z" fill="#D490C5" style="fill:color(display-p3 .8314 .5647 .7725);fill-opacity:1"/>
    </g>
    <defs>
        <clipPath id="a">
            <path fill="#fff" style="fill:#fff;fill-opacity:1" d="M0 0h100v100H0z"/>
        </clipPath>
    </defs>
</svg>
