<svg width="100" height="100" fill="none" xmlns="http://www.w3.org/2000/svg">
    <g clip-path="url(#a)">
        <path fill-rule="evenodd" clip-rule="evenodd" d="M37.465 53.906h12.008c-2.067-7.031-4.103-13.531-6.106-20.137-1.944 6.63-3.915 13.106-5.902 20.137ZM96.963.781H2.245C.537.781.78 1.153.78 2.801V97.64c0 1.646-.244 1.579 1.343 1.579h94.959c1.587 0 2.136.067 2.136-1.58V2.921c0-1.768-.549-2.14-2.256-2.14ZM60.389 75c-1.279 0-2.562-.104-3.835-.013-.918.07-1.225-.317-1.47-1.114-1.182-3.852-2.44-7.703-3.623-11.554-.238-.775-.579-1.058-1.419-1.048-4.315.05-8.632.045-12.948-.005-.908-.011-1.326.23-1.585 1.132-1.099 3.832-2.3 7.632-3.41 11.459-.241.83-.607 1.12-1.488 1.097-2.592-.065-5.188-.025-8.027-.025.75-2.379 1.43-4.579 2.132-6.77 4.308-13.437 8.63-26.875 12.907-40.32.299-.937.714-1.225 1.675-1.204 3.036.067 6.074.017 9.111 0 .568-.004.956.03 1.164.675 5.082 15.716 10.182 31.528 15.277 47.242.022.071.008.448.02.448h-4.48Zm16.173 0h-9.374V39.844h9.374V75Zm-4.96-39.9c-2.864-.003-4.914-1.974-4.933-4.741-.019-2.76 2.115-4.812 5.005-4.815 2.912-.003 4.964 1.982 4.987 4.82.02 2.77-2.084 4.741-5.06 4.737Z" fill="#FAA625" style="fill:color(display-p3 .9804 .651 .1451);fill-opacity:1"/>
    </g>
    <defs>
        <clipPath id="a">
            <path fill="#fff" style="fill:#fff;fill-opacity:1" d="M0 0h100v100H0z"/>
        </clipPath>
    </defs>
</svg>
