<svg width="100" height="105" viewBox="0 0 100 105" fill="none" xmlns="http://www.w3.org/2000/svg">
<path d="M43.8146 23.2904C43.7167 23.1258 43.5804 22.9871 43.4177 22.8862C43.2548 22.7856 43.0702 22.7254 42.8792 22.7112C42.6204 22.7235 42.3708 22.8104 42.1604 22.9612C39.5146 25.1217 35.8917 34.2883 32.9229 46.3654L35.55 46.3987C40.7417 46.4571 46.1 46.5217 51.4 46.6071C50 41.0737 48.6917 36.3321 47.4708 32.5071C46.5994 29.3081 45.3729 26.2167 43.8146 23.2904Z" fill="#1C56EE" style="fill:#1C56EE;fill:color(display-p3 0.1098 0.3373 0.9333);fill-opacity:1;"/>
<path d="M49.7104 0C22.2563 0 0 23.1583 0 51.725C0 80.2917 22.2563 103.446 49.7104 103.446C77.1646 103.446 99.4208 80.2896 99.4208 51.725C99.4208 23.1604 77.1625 0 49.7104 0ZM85.4458 52.6604L85.4333 52.6729C85.3813 52.7146 85.3271 52.7604 85.2688 52.8L85.2146 52.8417L85.0979 52.9125C85.0623 52.9358 85.0254 52.9575 84.9875 52.9771C84.6135 53.1833 84.1935 53.2915 83.7667 53.2917H60.2083C60.4 54.1021 60.6063 55.025 60.8333 56.0292C62.1229 61.8312 65.55 77.2437 69.1917 77.2437H69.3792C72.2271 77.2437 73.6771 72.9646 76.8583 63.5896L76.8979 63.4729C77.4104 61.9667 77.9854 60.2687 78.6125 58.4729L78.7708 58.0125C78.8608 57.7637 79.0352 57.5546 79.2638 57.4215C79.4921 57.2881 79.76 57.2392 80.0208 57.2833C80.2846 57.3379 80.5217 57.4815 80.6919 57.6902C80.8623 57.899 80.9556 58.1598 80.9563 58.4292C80.9565 58.544 80.9402 58.6583 80.9083 58.7687L80.775 59.2292C80.4438 60.3458 80.0917 61.8667 79.6833 63.625C77.7875 71.8042 74.9208 84.1583 67.5708 84.1583H67.5167C62.7688 84.1187 59.9333 76.2187 58.7125 72.8437C56.4417 66.5375 54.7188 59.8125 53.0688 53.3042H31.4021L26.9021 68.2792L26.8333 68.225C26.579 68.654 26.1892 68.9862 25.7252 69.1692C25.2613 69.3521 24.7496 69.3754 24.2708 69.2354C23.7881 69.0819 23.3673 68.7781 23.0694 68.3685C22.7713 67.959 22.6121 67.4648 22.6146 66.9583V66.8771L22.8875 65.1833C23.5125 61.3354 24.2521 57.3354 25.1042 53.2958H15.9688L15.9354 53.2604C15.1192 53.1037 14.3818 52.6708 13.8471 52.0346C13.3124 51.3981 13.013 50.5971 12.9994 49.7662C12.9857 48.9352 13.2585 48.1248 13.7719 47.471C14.2853 46.8175 15.0081 46.3606 15.8188 46.1771C16.1735 46.1375 16.5306 46.1223 16.8875 46.1312H17.3333C20.2354 46.1833 23.3229 46.2292 26.6875 46.2729C31.4583 26.0771 37 15.8125 43.1417 15.7917C49.7271 15.7917 54.6125 31.3979 58.5208 46.6625L58.5375 46.725C66.575 46.8937 75.1396 47.1417 83.4646 47.7667L83.8146 47.8C83.9479 47.8035 84.0806 47.8154 84.2125 47.8354H84.325C84.825 47.946 85.2829 48.1971 85.645 48.5592C86.0071 48.9212 86.2581 49.3792 86.3688 49.8792C86.4863 50.3827 86.4623 50.9092 86.2996 51.4C86.1367 51.8908 85.8413 52.3271 85.4458 52.6604Z" fill="#1C56EE" style="fill:#1C56EE;fill:color(display-p3 0.1098 0.3373 0.9333);fill-opacity:1;"/>
</svg>
