<svg width="108" height="92" viewBox="0 0 108 92" fill="none" xmlns="http://www.w3.org/2000/svg">
<path fill-rule="evenodd" clip-rule="evenodd" d="M51.6598 4.00001C55.8308 4.00001 59.6307 6.40462 61.4267 10.1748L75.7356 40.277C75.7356 40.277 75.7356 40.2918 75.7208 40.2918C75.7208 40.2918 75.7208 40.277 75.7356 40.277C79.0902 36.1654 81.5245 31.3265 82.5635 26.1313C83.7361 20.2682 89.436 16.4832 95.2991 17.641C96.6929 17.9194 98.0182 18.4698 99.1994 19.2606C100.38 20.0514 101.394 21.0671 102.183 22.2498C102.971 23.4325 103.519 24.7589 103.795 26.1533C104.07 27.5477 104.068 28.9828 103.789 30.3765C101.385 42.3847 94.6756 53.1164 85.5916 60.9982L90.7867 71.9228C93.6663 77.9789 90.6531 85.3857 84.2705 87.2856L84.0775 87.345C83.1276 87.6122 82.1479 87.7458 81.1979 87.7458C77.1457 87.7458 73.2716 85.4599 71.4162 81.571L66.8 71.8635L57.4042 52.0922L52.7879 42.3847C52.6876 42.1745 52.5298 41.9969 52.3328 41.8727C52.1358 41.7484 51.9076 41.6824 51.6747 41.6824C51.4417 41.6824 51.2136 41.7484 51.0165 41.8727C50.8195 41.9969 50.6617 42.1745 50.5614 42.3847L45.8413 52.3C38.6423 50.7712 31.3988 46.3182 27.302 40.9004L41.893 10.2045C42.7615 8.34795 44.142 6.77787 45.8721 5.6788C47.6022 4.57973 49.6101 3.99732 51.6598 4.00001ZM10.7666 30.6882C16.3032 28.4469 22.6115 31.1187 24.8529 36.6701C25.4318 38.1099 26.263 39.52 27.2872 40.8707L27.302 40.8855L27.7918 41.509C27.8364 41.5683 27.8809 41.6129 27.9254 41.6722L28.059 41.8355C28.1332 41.9097 28.1926 41.9988 28.2668 42.073C28.2817 42.0878 28.2965 42.1027 28.2965 42.1175L28.2668 42.073C28.5489 42.4144 28.8606 42.741 29.1723 43.0675C29.1871 43.0824 29.1871 43.0972 29.202 43.0972C30.2261 44.1659 31.3691 45.1752 32.6011 46.1104C33.18 46.5557 33.7737 46.9713 34.3823 47.3869C34.4416 47.4166 34.4862 47.4611 34.5455 47.4908C37.9743 49.747 41.9078 51.4391 45.8264 52.2703C47.4889 52.6266 49.1513 52.8195 50.7692 52.8344H50.977C53.1293 52.8344 55.2816 52.5672 57.3893 52.0625L66.7851 71.8338C61.7087 73.5407 56.38 74.4759 50.977 74.4759C46.1084 74.4759 41.1805 73.6298 36.4009 72.101L31.9034 81.5561C31.2754 82.8767 30.3861 84.0563 29.2892 85.0234C28.1924 85.9906 26.9109 86.7253 25.522 87.1832C24.1332 87.641 22.666 87.8125 21.209 87.6872C19.752 87.562 18.3356 87.1426 17.0453 86.4544C11.8799 83.7084 9.99476 77.2367 12.5033 71.9525L17.4312 61.5919C11.865 56.8866 7.42688 51.1719 4.85899 44.9674L4.78477 44.7745C2.55828 39.2379 5.23007 32.9296 10.7666 30.6882Z" fill="black" style="fill:black;fill-opacity:1;"/>
<path fill-rule="evenodd" clip-rule="evenodd" d="M51.6598 4.00001C55.8308 4.00001 59.6307 6.40462 61.4267 10.1748L75.7356 40.277C75.7356 40.277 75.7356 40.2918 75.7208 40.2918C75.7208 40.2918 75.7208 40.277 75.7356 40.277C79.0902 36.1654 81.5245 31.3265 82.5635 26.1313C83.7361 20.2682 89.436 16.4832 95.2991 17.641C96.6929 17.9194 98.0182 18.4698 99.1994 19.2606C100.38 20.0514 101.394 21.0671 102.183 22.2498C102.971 23.4325 103.519 24.7589 103.795 26.1533C104.07 27.5477 104.068 28.9828 103.789 30.3765C101.385 42.3847 94.6756 53.1164 85.5916 60.9982L90.7867 71.9228C93.6663 77.9789 90.6531 85.3857 84.2705 87.2856L84.0775 87.345C83.1276 87.6122 82.1479 87.7458 81.1979 87.7458C77.1457 87.7458 73.2716 85.4599 71.4162 81.571L66.8 71.8635L57.4042 52.0922L52.7879 42.3847C52.6876 42.1745 52.5298 41.9969 52.3328 41.8727C52.1358 41.7484 51.9076 41.6824 51.6747 41.6824C51.4417 41.6824 51.2136 41.7484 51.0165 41.8727C50.8195 41.9969 50.6617 42.1745 50.5614 42.3847L45.8413 52.3C38.6423 50.7712 31.3988 46.3182 27.302 40.9004L41.893 10.2045C42.7615 8.34795 44.142 6.77787 45.8721 5.6788C47.6022 4.57973 49.6101 3.99732 51.6598 4.00001ZM10.7666 30.6882C16.3032 28.4469 22.6115 31.1187 24.8529 36.6701C25.4318 38.1099 26.263 39.52 27.2872 40.8707L27.302 40.8855L27.7918 41.509C27.8364 41.5683 27.8809 41.6129 27.9254 41.6722L28.059 41.8355C28.1332 41.9097 28.1926 41.9988 28.2668 42.073C28.2817 42.0878 28.2965 42.1027 28.2965 42.1175L28.2668 42.073C28.5489 42.4144 28.8606 42.741 29.1723 43.0675C29.1871 43.0824 29.1871 43.0972 29.202 43.0972C30.2261 44.1659 31.3691 45.1752 32.6011 46.1104C33.18 46.5557 33.7737 46.9713 34.3823 47.3869C34.4416 47.4166 34.4862 47.4611 34.5455 47.4908C37.9743 49.747 41.9078 51.4391 45.8264 52.2703C47.4889 52.6266 49.1513 52.8195 50.7692 52.8344H50.977C53.1293 52.8344 55.2816 52.5672 57.3893 52.0625L66.7851 71.8338C61.7087 73.5407 56.38 74.4759 50.977 74.4759C46.1084 74.4759 41.1805 73.6298 36.4009 72.101L31.9034 81.5561C31.2754 82.8767 30.3861 84.0563 29.2892 85.0234C28.1924 85.9906 26.9109 86.7253 25.522 87.1832C24.1332 87.641 22.666 87.8125 21.209 87.6872C19.752 87.562 18.3356 87.1426 17.0453 86.4544C11.8799 83.7084 9.99476 77.2367 12.5033 71.9525L17.4312 61.5919C11.865 56.8866 7.42688 51.1719 4.85899 44.9674L4.78477 44.7745C2.55828 39.2379 5.23007 32.9296 10.7666 30.6882Z" fill="white" style="fill:white;fill-opacity:1;"/>
<path d="M75.7356 40.277L61.4267 10.1748C59.6307 6.40462 55.8308 4.00001 51.6598 4.00001C49.6101 3.99732 47.6022 4.57973 45.8721 5.6788C44.142 6.77787 42.7615 8.34795 41.893 10.2045L27.302 40.9004C31.3988 46.3182 38.6423 50.7712 45.8413 52.3L50.5614 42.3847C50.6617 42.1745 50.8195 41.9969 51.0165 41.8727C51.2136 41.7484 51.4417 41.6824 51.6747 41.6824C51.9076 41.6824 52.1358 41.7484 52.3328 41.8727C52.5298 41.9969 52.6876 42.1745 52.7879 42.3847L57.4042 52.0922M75.7356 40.277C75.7356 40.277 75.7356 40.2918 75.7208 40.2918C75.7208 40.2918 75.7208 40.277 75.7356 40.277ZM75.7356 40.277C79.0902 36.1654 81.5245 31.3265 82.5635 26.1313C83.7361 20.2682 89.436 16.4832 95.2991 17.641C96.6929 17.9194 98.0182 18.4698 99.1994 19.2606C100.38 20.0514 101.394 21.0671 102.183 22.2498C102.971 23.4325 103.519 24.7589 103.795 26.1533C104.07 27.5477 104.068 28.9828 103.789 30.3765C101.385 42.3847 94.6756 53.1164 85.5916 60.9982L90.7867 71.9228C93.6663 77.9789 90.6531 85.3857 84.2705 87.2856L84.0775 87.345C83.1276 87.6122 82.1479 87.7458 81.1979 87.7458C77.1457 87.7458 73.2716 85.4599 71.4162 81.571L66.8 71.8635L57.4042 52.0922M57.4042 52.0922H57.4339M28.2668 42.073C28.1926 41.9988 28.1332 41.9097 28.059 41.8355L27.9254 41.6722C27.8809 41.6129 27.8364 41.5683 27.7918 41.509L27.302 40.8855L27.2872 40.8707C26.263 39.52 25.4318 38.1099 24.8529 36.6701C22.6115 31.1187 16.3032 28.4469 10.7666 30.6882C5.23007 32.9296 2.55828 39.2379 4.78477 44.7745L4.85899 44.9674C7.42688 51.1719 11.865 56.8866 17.4312 61.5919L12.5033 71.9525C9.99476 77.2367 11.8799 83.7084 17.0453 86.4544C18.3356 87.1426 19.752 87.562 21.209 87.6872C22.666 87.8125 24.1332 87.641 25.522 87.1832C26.9109 86.7253 28.1924 85.9906 29.2892 85.0234C30.3861 84.0563 31.2754 82.8767 31.9034 81.5561L36.4009 72.101C41.1805 73.6298 46.1084 74.4759 50.977 74.4759C56.38 74.4759 61.7087 73.5407 66.7851 71.8338L57.3893 52.0625C55.2816 52.5672 53.1293 52.8344 50.977 52.8344H50.7692C49.1513 52.8195 47.4889 52.6266 45.8264 52.2703C41.9078 51.4391 37.9743 49.747 34.5455 47.4908C34.4862 47.4611 34.4416 47.4166 34.3823 47.3869C33.7737 46.9713 33.18 46.5557 32.6011 46.1104C31.3691 45.1752 30.2261 44.1659 29.202 43.0972C29.1871 43.0972 29.1871 43.0824 29.1723 43.0675C28.8606 42.741 28.5489 42.4144 28.2668 42.073ZM28.2668 42.073C28.2817 42.0878 28.2965 42.1027 28.2965 42.1175L28.2668 42.073Z" stroke="white" style="stroke:white;stroke-opacity:1;" stroke-width="6.87" stroke-linejoin="round"/>
<path fill-rule="evenodd" clip-rule="evenodd" d="M36.4009 72.1009L45.8264 52.2702C38.6274 50.7414 31.3839 46.2884 27.2872 40.8706L17.4312 61.5918C22.9084 66.2378 29.484 69.8892 36.4009 72.1009Z" fill="#1A007F" style="fill:#1A007F;fill:color(display-p3 0.1020 0.0000 0.4980);fill-opacity:1;"/>
<path fill-rule="evenodd" clip-rule="evenodd" d="M75.7356 40.2769C71.0006 46.0806 64.425 50.3851 57.3893 52.0624L66.7851 71.8337C73.6427 69.5181 80.055 65.7776 85.5915 60.9832L75.7356 40.2769Z" fill="#4E000A" style="fill:#4E000A;fill:color(display-p3 0.3059 0.0000 0.0392);fill-opacity:1;"/>
<path fill-rule="evenodd" clip-rule="evenodd" d="M17.4313 61.592L12.5033 71.9526C9.9948 77.222 11.8799 83.7085 17.0454 86.4545C22.5225 89.3637 29.2614 87.0927 31.9035 81.5562L36.401 72.101C29.4558 69.862 23.0128 66.2926 17.4313 61.592Z" fill="#1A007F" style="fill:#1A007F;fill:color(display-p3 0.1020 0.0000 0.4980);fill-opacity:1;"/>
<path fill-rule="evenodd" clip-rule="evenodd" d="M95.299 17.6558C93.9053 17.3767 92.4702 17.375 91.0758 17.6507C89.6814 17.9264 88.355 18.4741 87.1723 19.2625C85.9896 20.051 84.9739 21.0647 84.1831 22.2458C83.3923 23.4269 82.842 24.7523 82.5635 26.1461C81.5245 31.3413 79.0902 36.1802 75.7356 40.2918L85.5767 61.013C94.6608 53.1312 101.37 42.3995 103.775 30.3913C104.947 24.5134 101.147 18.8136 95.299 17.6558Z" fill="#FF9396" style="fill:#FF9396;fill:color(display-p3 1.0000 0.5765 0.5882);fill-opacity:1;"/>
<path fill-rule="evenodd" clip-rule="evenodd" d="M57.3893 52.0625C55.2816 52.5672 53.1293 52.8344 50.977 52.8344C49.2997 52.8344 47.5631 52.6414 45.8264 52.2703C38.6274 50.7415 31.3839 46.2885 27.2872 40.8707C26.263 39.52 25.4318 38.1098 24.8529 36.6701C22.6115 31.1335 16.3031 28.4617 10.7666 30.6882C5.23007 32.9295 2.55828 39.2379 4.78477 44.7745C7.32297 51.068 11.8056 56.8421 17.4312 61.5919C23.0073 66.2923 29.4455 69.8617 36.3861 72.1009C41.1508 73.6298 46.0936 74.4759 50.9622 74.4759C56.3651 74.4759 61.6939 73.5407 66.7703 71.8338L57.3893 52.0625Z" fill="#002DC8" style="fill:#002DC8;fill:color(display-p3 0.0000 0.1765 0.7843);fill-opacity:1;"/>
<path fill-rule="evenodd" clip-rule="evenodd" d="M90.7719 71.908L85.5767 60.9833L75.7357 40.277L75.7208 40.2918C75.7208 40.2918 75.7208 40.277 75.7357 40.277L61.4268 10.1748C60.5484 8.32802 59.1648 6.76786 57.4362 5.67503C55.7077 4.58221 53.7049 4.00144 51.6599 4C47.4889 4 43.689 6.40462 41.893 10.1748L27.3021 40.8707C31.3988 46.2885 38.6423 50.7415 45.8413 52.2703L50.5615 42.355C51.0068 41.4199 52.3427 41.4199 52.788 42.355L57.4042 52.0625L66.8 71.8338L71.4163 81.5413C72.294 83.3917 73.6795 84.9545 75.4113 86.0478C77.1431 87.141 79.15 87.7196 81.198 87.7161C82.1628 87.7161 83.1276 87.5825 84.0776 87.3153C90.5938 85.5193 93.6812 78.0234 90.7719 71.908Z" fill="#FF536A" style="fill:#FF536A;fill:color(display-p3 1.0000 0.3255 0.4157);fill-opacity:1;"/>
<path fill-rule="evenodd" clip-rule="evenodd" d="M36.4009 72.1009L45.8264 52.2702C38.6274 50.7414 31.3839 46.2884 27.2871 40.8706L17.4312 61.5918C22.9084 66.2378 29.4839 69.8892 36.4009 72.1009Z" fill="#1A007F" style="fill:#1A007F;fill:color(display-p3 0.1020 0.0000 0.4980);fill-opacity:1;"/>
<path fill-rule="evenodd" clip-rule="evenodd" d="M75.7356 40.277C71.0006 46.0808 64.425 50.3853 57.3893 52.0626L66.7851 71.8338C73.6427 69.5183 80.055 65.7778 85.5915 60.9834L75.7356 40.277Z" fill="#4E000A" style="fill:#4E000A;fill:color(display-p3 0.3059 0.0000 0.0392);fill-opacity:1;"/>
<path fill-rule="evenodd" clip-rule="evenodd" d="M17.4313 61.592L12.5033 71.9526C9.9948 77.2219 11.8799 83.7085 17.0454 86.4545C22.5225 89.3637 29.2614 87.0927 31.9035 81.5562L36.401 72.101C29.4558 69.862 23.0128 66.2926 17.4313 61.592Z" fill="#1A007F" style="fill:#1A007F;fill:color(display-p3 0.1020 0.0000 0.4980);fill-opacity:1;"/>
<path fill-rule="evenodd" clip-rule="evenodd" d="M95.299 17.6558C93.9053 17.3767 92.4702 17.375 91.0758 17.6507C89.6814 17.9264 88.355 18.4741 87.1723 19.2625C85.9896 20.051 84.9739 21.0647 84.1831 22.2458C83.3923 23.4269 82.842 24.7523 82.5635 26.1461C81.5245 31.3413 79.0902 36.1802 75.7356 40.2918L85.5767 61.013C94.6608 53.1312 101.37 42.3995 103.775 30.3913C104.947 24.5134 101.147 18.8136 95.299 17.6558Z" fill="#FF9396" style="fill:#FF9396;fill:color(display-p3 1.0000 0.5765 0.5882);fill-opacity:1;"/>
<path fill-rule="evenodd" clip-rule="evenodd" d="M57.3893 52.0625C55.2816 52.5672 53.1293 52.8344 50.977 52.8344C49.2997 52.8344 47.5631 52.6414 45.8264 52.2703C38.6274 50.7415 31.3839 46.2885 27.2872 40.8707C26.263 39.52 25.4318 38.1099 24.8529 36.6701C22.6115 31.1335 16.3032 28.4617 10.7666 30.6882C5.23007 32.9295 2.55828 39.2379 4.78477 44.7745C7.32297 51.068 11.8056 56.8421 17.4312 61.5919C23.0073 66.2923 29.4455 69.8617 36.3861 72.1009C41.1508 73.6298 46.0936 74.4759 50.9622 74.4759C56.3651 74.4759 61.6939 73.5407 66.7703 71.8338L57.3893 52.0625Z" fill="#002DC8" style="fill:#002DC8;fill:color(display-p3 0.0000 0.1765 0.7843);fill-opacity:1;"/>
<path fill-rule="evenodd" clip-rule="evenodd" d="M90.7719 71.908L85.5768 60.9833L75.7357 40.277L75.7208 40.2918C75.7208 40.2918 75.7208 40.277 75.7357 40.277L61.4267 10.1748C60.5484 8.32801 59.1648 6.76785 57.4362 5.67502C55.7077 4.5822 53.7049 4.00144 51.6599 4C47.4889 4 43.689 6.40461 41.893 10.1748L27.3021 40.8707C31.3988 46.2885 38.6423 50.7415 45.8413 52.2703L50.5615 42.355C51.0068 41.4199 52.3427 41.4199 52.788 42.355L57.4042 52.0625L66.8 71.8338L71.4163 81.5413C72.294 83.3917 73.6795 84.9545 75.4113 86.0478C77.1431 87.141 79.15 87.7196 81.198 87.7161C82.1628 87.7161 83.1276 87.5825 84.0776 87.3153C90.5938 85.5193 93.6812 78.0234 90.7719 71.908Z" fill="#FF536A" style="fill:#FF536A;fill:color(display-p3 1.0000 0.3255 0.4157);fill-opacity:1;"/>
</svg>
