<svg width="99" height="60" viewBox="0 0 99 60" fill="none" xmlns="http://www.w3.org/2000/svg">
<path d="M27.8724 21.4803C27.8724 22.6974 28.004 23.6842 28.2342 24.4079C28.4974 25.1316 28.8263 25.9211 29.2868 26.7763C29.4513 27.0395 29.5171 27.3026 29.5171 27.5329C29.5171 27.8618 29.3197 28.1908 28.8921 28.5197L26.8197 29.9013C26.5237 30.0987 26.2276 30.1974 25.9645 30.1974C25.6355 30.1974 25.3066 30.0329 24.9776 29.7368C24.5171 29.2434 24.1224 28.7171 23.7934 28.1908C23.4645 27.6316 23.1355 27.0066 22.7737 26.25C20.2079 29.2763 16.9842 30.7895 13.1026 30.7895C10.3395 30.7895 8.13553 30 6.52369 28.4211C4.91185 26.8421 4.08948 24.7368 4.08948 22.1053C4.08948 19.3092 5.07632 17.0395 7.0829 15.3289C9.08948 13.6184 11.754 12.7632 15.1421 12.7632C16.2605 12.7632 17.4118 12.8618 18.629 13.0263C19.8461 13.1908 21.0961 13.4539 22.4118 13.75V11.3487C22.4118 8.84868 21.8855 7.10526 20.8658 6.08553C19.8132 5.06579 18.0368 4.57237 15.504 4.57237C14.3526 4.57237 13.1684 4.70395 11.9513 5C10.7342 5.29605 9.55 5.65789 8.39869 6.11842C7.87237 6.34868 7.47764 6.48026 7.24737 6.54605C7.01711 6.61184 6.85264 6.64474 6.72106 6.64474C6.26053 6.64474 6.03027 6.31579 6.03027 5.625V4.01316C6.03027 3.48684 6.09606 3.09211 6.26053 2.86184C6.425 2.63158 6.72106 2.40132 7.18158 2.17105C8.3329 1.57895 9.71448 1.08553 11.3263 0.690789C12.9382 0.263158 14.6487 0.0657894 16.4579 0.0657894C20.3724 0.0657894 23.2342 0.953947 25.0763 2.73026C26.8855 4.50658 27.8066 7.20395 27.8066 10.8224V21.4803H27.8724ZM14.5171 26.4803C15.6026 26.4803 16.7211 26.2829 17.9053 25.8882C19.0895 25.4934 20.1421 24.7697 21.0303 23.7829C21.5566 23.1579 21.9513 22.4671 22.1487 21.6776C22.3461 20.8882 22.4776 19.9342 22.4776 18.8158V17.4342C21.5237 17.2039 20.504 17.0066 19.4513 16.875C18.3987 16.7434 17.379 16.6776 16.3592 16.6776C14.1553 16.6776 12.5434 17.1053 11.4579 17.9934C10.3724 18.8816 9.84606 20.1316 9.84606 21.7763C9.84606 23.3224 10.2408 24.4737 11.0632 25.2632C11.8526 26.0855 13.004 26.4803 14.5171 26.4803ZM40.9316 30.0329C40.3395 30.0329 39.9447 29.9342 39.6816 29.7039C39.4184 29.5066 39.1882 29.0461 38.9908 28.4211L31.2605 2.99342C31.0632 2.33553 30.9645 1.90789 30.9645 1.67763C30.9645 1.15132 31.2276 0.855263 31.754 0.855263H34.9776C35.6026 0.855263 36.0303 0.953947 36.2605 1.18421C36.5237 1.38158 36.7211 1.84211 36.9184 2.46711L42.4447 24.2434L47.5763 2.46711C47.7408 1.80921 47.9382 1.38158 48.2013 1.18421C48.4645 0.986842 48.925 0.855263 49.5171 0.855263H52.1487C52.7737 0.855263 53.2013 0.953947 53.4645 1.18421C53.7276 1.38158 53.9579 1.84211 54.0895 2.46711L59.2868 24.5066L64.9776 2.46711C65.175 1.80921 65.4053 1.38158 65.6355 1.18421C65.8987 0.986842 66.3263 0.855263 66.9184 0.855263H69.9776C70.5039 0.855263 70.8 1.11842 70.8 1.67763C70.8 1.84211 70.7671 2.00658 70.7342 2.20395C70.7013 2.40132 70.6355 2.66447 70.5039 3.02632L62.5763 28.4539C62.3789 29.1118 62.1487 29.5395 61.8855 29.7368C61.6224 29.9342 61.1947 30.0658 60.6355 30.0658H57.8066C57.1816 30.0658 56.7539 29.9671 56.4908 29.7368C56.2276 29.5066 55.9974 29.0789 55.8658 28.4211L50.7671 7.20395L45.7013 28.3882C45.5368 29.0461 45.3395 29.4737 45.0763 29.7039C44.8132 29.9342 44.3526 30.0329 43.7605 30.0329H40.9316ZM83.2013 30.9211C81.4908 30.9211 79.7803 30.7237 78.1355 30.3289C76.4908 29.9342 75.2079 29.5066 74.3526 29.0132C73.8263 28.7171 73.4645 28.3882 73.3329 28.0921C73.2013 27.7961 73.1355 27.4671 73.1355 27.1711V25.4934C73.1355 24.8026 73.3987 24.4737 73.8921 24.4737C74.0895 24.4737 74.2868 24.5066 74.4842 24.5724C74.6816 24.6382 74.9776 24.7697 75.3066 24.9013C76.425 25.3947 77.6421 25.7895 78.925 26.0526C80.2408 26.3158 81.5237 26.4474 82.8395 26.4474C84.9118 26.4474 86.5237 26.0855 87.6421 25.3618C88.7605 24.6382 89.3526 23.5855 89.3526 22.2368C89.3526 21.3158 89.0566 20.5592 88.4645 19.9342C87.8724 19.3092 86.7539 18.75 85.1421 18.2237L80.3724 16.7434C77.9711 15.9868 76.1947 14.8684 75.1092 13.3882C74.0237 11.9408 73.4645 10.3289 73.4645 8.61842C73.4645 7.23684 73.7605 6.01974 74.3526 4.96711C74.9447 3.91447 75.7342 2.99342 76.7211 2.26974C77.7079 1.51316 78.8263 0.953947 80.1421 0.55921C81.4579 0.164474 82.8395 0 84.2868 0C85.0105 0 85.7671 0.0328947 86.4908 0.131579C87.2474 0.230263 87.9382 0.361842 88.629 0.493421C89.2868 0.657895 89.9118 0.822368 90.5039 1.01974C91.096 1.21711 91.5566 1.41447 91.8855 1.61184C92.3461 1.875 92.675 2.13816 92.8724 2.43421C93.0697 2.69737 93.1684 3.05921 93.1684 3.51974V5.06579C93.1684 5.75658 92.9053 6.11842 92.4118 6.11842C92.1487 6.11842 91.721 5.98684 91.1618 5.72368C89.2868 4.86842 87.1816 4.44079 84.8461 4.44079C82.9711 4.44079 81.4908 4.73684 80.4711 5.36184C79.4513 5.98684 78.925 6.94079 78.925 8.28947C78.925 9.21053 79.254 10 79.9118 10.625C80.5697 11.25 81.7868 11.875 83.5303 12.4342L88.2013 13.9145C90.5697 14.6711 92.2803 15.7237 93.3 17.0724C94.3197 18.4211 94.8132 19.9671 94.8132 21.6776C94.8132 23.0921 94.5171 24.375 93.9579 25.4934C93.3658 26.6118 92.5763 27.5987 91.5566 28.3882C90.5368 29.2105 89.3197 29.8026 87.9053 30.2303C86.425 30.6908 84.879 30.9211 83.2013 30.9211Z" fill="#252F3E" style="fill:#252F3E;fill:color(display-p3 0.1451 0.1843 0.2431);fill-opacity:1;"/>
<path fill-rule="evenodd" clip-rule="evenodd" d="M89.4184 46.9079C78.5961 54.9014 62.8724 59.1448 49.3526 59.1448C30.4053 59.1448 13.3329 52.1382 0.438163 40.4935C-0.581573 39.5724 0.339479 38.3224 1.55658 39.0461C15.504 47.1382 32.7079 52.0395 50.504 52.0395C62.5105 52.0395 75.7013 49.5395 87.8395 44.4079C89.6487 43.5856 91.1947 45.5921 89.4184 46.9079Z" fill="#FF9900" style="fill:#FF9900;fill:color(display-p3 1.0000 0.6000 0.0000);fill-opacity:1;"/>
<path fill-rule="evenodd" clip-rule="evenodd" d="M93.925 41.7763C92.5434 40 84.7802 40.921 81.2605 41.3487C80.2078 41.4803 80.0434 40.5592 80.9973 39.8684C87.1815 35.5263 97.346 36.7763 98.5302 38.2237C99.7144 39.7039 98.2013 49.8684 92.4118 54.7368C91.5236 55.4934 90.6684 55.0987 91.0631 54.1118C92.3789 50.8553 95.3065 43.5197 93.925 41.7763Z" fill="#FF9900" style="fill:#FF9900;fill:color(display-p3 1.0000 0.6000 0.0000);fill-opacity:1;"/>
</svg>
