<svg width="200" height="200" viewBox="0 0 200 200" fill="none" xmlns="http://www.w3.org/2000/svg">
<rect width="200" height="200" fill="white" style="fill:white;fill-opacity:1;"/>
<path d="M84.5 94.2C87.4 94.2 89.1 95.9 89.1 98.1C89.1 99.6 88.1 100.9 86.9 101.3C88.2 101.6 89.5 102.8 89.5 104.7C89.5 107.1 87.7 108.9 84.9 108.9H79V94.2H84.5ZM83.9 100.1C85 100.1 85.8 99.5 85.8 98.5C85.8 97.5 85.2 96.9 83.9 96.9H82.1V100.1H83.9ZM84.2 106.2C85.5 106.2 86.2 105.5 86.2 104.5C86.2 103.5 85.5 102.8 84.2 102.8H82.1V106.3L84.2 106.2Z" fill="#424242" style="fill:#424242;fill:color(display-p3 0.2588 0.2588 0.2588);fill-opacity:1;"/>
<path d="M98.1 101.7C97.7 101.6 97.4 101.6 97.1 101.6C95.8 101.6 94.7 102.3 94.7 104.4V108.9H91.5V98.6H94.6V100C95.1 98.8 96.4 98.5 97.3 98.5C97.6 98.5 97.9 98.5 98.1 98.6V101.7Z" fill="#424242" style="fill:#424242;fill:color(display-p3 0.2588 0.2588 0.2588);fill-opacity:1;"/>
<path d="M102.5 102.9L104.9 102.5C105.5 102.4 105.6 102.1 105.6 101.8C105.6 101.2 105.1 100.7 104.1 100.7C103 100.7 102.4 101.4 102.3 102.2L99.6 101.6C99.7 100.1 101.1 98.2 104.1 98.2C107.4 98.2 108.7 100.1 108.7 102.2V107.2C108.7 108 108.8 108.7 108.8 108.8H106.1C106.1 108.7 106 108.3 106 107.6C105.5 108.5 104.5 109.1 103.1 109.1C100.8 109.1 99.5 107.6 99.5 106C99.5 104.2 100.8 103.2 102.5 102.9ZM105.7 104.8V104.3L103.7 104.6C103 104.7 102.5 105 102.5 105.7C102.5 106.2 102.9 106.8 103.7 106.8C104.8 106.9 105.7 106.4 105.7 104.8Z" fill="#424242" style="fill:#424242;fill:color(display-p3 0.2588 0.2588 0.2588);fill-opacity:1;"/>
<path d="M114.6 108.9H111.4V98.6H114.5V99.8C115.1 98.8 116.3 98.3 117.4 98.3C120 98.3 121.2 100.1 121.2 102.4V108.9H118V103C118 102 117.5 101.2 116.3 101.2C115.3 101.2 114.6 102 114.6 103V108.9Z" fill="#424242" style="fill:#424242;fill:color(display-p3 0.2588 0.2588 0.2588);fill-opacity:1;"/>
<path d="M134 107C134 107.9 134.1 108.6 134.1 108.8H131.1C131.1 108.7 131 108.2 131 107.8C130.5 108.5 129.5 109 128.2 109C125.3 109 123.1 106.8 123.1 103.6C123.1 100.5 125.2 98.2 128.1 98.2C129.9 98.2 130.6 98.9 130.9 99.3V93.8H134V107ZM128.6 106.3C129.8 106.3 130.9 105.4 130.9 103.7C130.9 102 129.8 101.1 128.6 101.1C127.4 101.1 126.3 101.9 126.3 103.7C126.3 105.4 127.4 106.3 128.6 106.3Z" fill="#424242" style="fill:#424242;fill:color(display-p3 0.2588 0.2588 0.2588);fill-opacity:1;"/>
<path d="M137.1 108.9V94.2H140.4V105.8H146.8V108.9H137.1Z" fill="#424242" style="fill:#424242;fill:color(display-p3 0.2588 0.2588 0.2588);fill-opacity:1;"/>
<path d="M158.9 103.7C158.9 106.9 156.5 109.2 153.4 109.2C150.3 109.2 147.9 106.9 147.9 103.7C147.9 100.5 150.3 98.2 153.4 98.2C156.5 98.3 158.9 100.5 158.9 103.7ZM155.8 103.7C155.8 102 154.7 101.1 153.5 101.1C152.3 101.1 151.2 101.9 151.2 103.7C151.2 105.4 152.3 106.3 153.5 106.3C154.6 106.3 155.8 105.5 155.8 103.7Z" fill="#424242" style="fill:#424242;fill:color(display-p3 0.2588 0.2588 0.2588);fill-opacity:1;"/>
<path d="M161.2 112.9L163.5 107.5L159.2 98.6H162.7L165.2 104.1L167.5 98.6H170.8L164.4 112.9H161.2Z" fill="#424242" style="fill:#424242;fill:color(display-p3 0.2588 0.2588 0.2588);fill-opacity:1;"/>
<path d="M174.6 102.9L177 102.5C177.6 102.4 177.7 102.1 177.7 101.8C177.7 101.2 177.2 100.7 176.2 100.7C175.1 100.7 174.5 101.4 174.4 102.2L171.7 101.6C171.8 100.1 173.2 98.2 176.2 98.2C179.5 98.2 180.8 100.1 180.8 102.2V107.2C180.8 108 180.9 108.7 180.9 108.8H178.1C178.1 108.7 178 108.3 178 107.6C177.5 108.5 176.5 109.1 175.1 109.1C172.8 109.1 171.5 107.6 171.5 106C171.5 104.2 172.9 103.2 174.6 102.9ZM177.8 104.8V104.3L175.8 104.6C175.1 104.7 174.6 105 174.6 105.7C174.6 106.2 175 106.8 175.8 106.8C176.8 106.9 177.8 106.4 177.8 104.8Z" fill="#424242" style="fill:#424242;fill:color(display-p3 0.2588 0.2588 0.2588);fill-opacity:1;"/>
<path d="M183.5 108.9V93.9H186.7V108.9H183.5Z" fill="#424242" style="fill:#424242;fill:color(display-p3 0.2588 0.2588 0.2588);fill-opacity:1;"/>
<path d="M59.2 95.3C58.7 89 53.4 84 46.9 84C41.9 84 37.7 86.9 35.7 91.2C34.6 90.8 33.4 90.6 32.2 90.6C26.8 90.6 22.5 94.8 22.2 100.2C22.1 100.2 22 100.2 21.9 100.2C17.6 100.2 14 103.7 14 108.1C14 112.4 17.5 116 21.9 116H59.1C64.8 116 69.4 111.4 69.4 105.7C69.3 99.9 64.8 95.4 59.2 95.3ZM53 96.3L40.4 108.9L39.4 109.9C39.2 110.1 38.8 110.1 38.6 109.9L37.6 108.9L31.6 103C31.4 102.8 31.4 102.4 31.6 102.2L32.6 101.2C32.8 101 33.2 101 33.4 101.2L38.4 106.2C38.6 106.4 39 106.4 39.2 106.2L51.1 94.5C51.3 94.3 51.7 94.3 51.9 94.5L52.9 95.5C53.2 95.7 53.2 96.1 53 96.3Z" fill="url(#paint0_linear_272_42)" style=""/>
<defs>
<linearGradient id="paint0_linear_272_42" x1="70.9734" y1="134.897" x2="8.3068" y2="73.5641" gradientUnits="userSpaceOnUse">
<stop stop-color="#E95E26" style="stop-color:#E95E26;stop-color:color(display-p3 0.9137 0.3686 0.1490);stop-opacity:1;"/>
<stop offset="0.0363256" stop-color="#EA6626" style="stop-color:#EA6626;stop-color:color(display-p3 0.9176 0.4000 0.1490);stop-opacity:1;"/>
<stop offset="0.1923" stop-color="#EC8327" style="stop-color:#EC8327;stop-color:color(display-p3 0.9255 0.5137 0.1529);stop-opacity:1;"/>
<stop offset="0.3582" stop-color="#ED9A27" style="stop-color:#ED9A27;stop-color:color(display-p3 0.9294 0.6039 0.1529);stop-opacity:1;"/>
<stop offset="0.5365" stop-color="#EEAA28" style="stop-color:#EEAA28;stop-color:color(display-p3 0.9333 0.6667 0.1569);stop-opacity:1;"/>
<stop offset="0.736" stop-color="#EFB428" style="stop-color:#EFB428;stop-color:color(display-p3 0.9373 0.7059 0.1569);stop-opacity:1;"/>
<stop offset="1" stop-color="#EFB728" style="stop-color:#EFB728;stop-color:color(display-p3 0.9373 0.7176 0.1569);stop-opacity:1;"/>
</linearGradient>
</defs>
</svg>
