<svg width="100" height="23" fill="none" xmlns="http://www.w3.org/2000/svg">
    <g clip-path="url(#a)">
        <path fill-rule="evenodd" clip-rule="evenodd" d="M10.722 5.97h5.882l-.911 3.603c-.14.502-.4.905-.78 1.21a2.065 2.065 0 0 1-1.328.457h-2.733c-.624 0-1.175.188-1.652.565-.477.377-.812.887-1.002 1.533a2.95 2.95 0 0 0 .468 2.514c.243.331.555.596.937.794.382.197.798.295 1.25.295h1.665c.312 0 .568.13.768.39.2.26.255.551.169.874l-1.041 3.98h-1.822c-1.25 0-2.399-.282-3.449-.847a7.85 7.85 0 0 1-2.615-2.246 8.047 8.047 0 0 1-1.418-3.186c-.251-1.192-.221-2.416.09-3.67l.105-.404a7.975 7.975 0 0 1 1.054-2.38A7.745 7.745 0 0 1 6.05 7.597c.651-.511 1.375-.91 2.173-1.197a7.33 7.33 0 0 1 2.5-.43Zm2.967 16.215 5.127-19.846c.138-.501.399-.905.78-1.21a2.064 2.064 0 0 1 1.328-.457h5.439c1.249 0 2.398.283 3.448.847a7.855 7.855 0 0 1 2.615 2.246 8.191 8.191 0 0 1 1.432 3.186c.26 1.192.225 2.416-.104 3.67l-.104.404a8.19 8.19 0 0 1-1.041 2.38 7.752 7.752 0 0 1-1.679 1.869 7.54 7.54 0 0 1-2.173 1.21c-.798.287-1.63.43-2.498.43h-4.71l.936-3.63c.139-.484.399-.878.78-1.183a2.064 2.064 0 0 1 1.328-.457h1.51a2.62 2.62 0 0 0 1.678-.592c.495-.394.82-.905.976-1.533.121-.448.134-.887.04-1.317a3.009 3.009 0 0 0-.508-1.143 2.78 2.78 0 0 0-.937-.807 2.585 2.585 0 0 0-1.25-.31h-2.914l-3.8 14.602c-.139.485-.4.879-.78 1.184-.367.3-.828.461-1.302.457H13.69ZM46.142 11.59l.077-.296c.035-.143.014-.264-.065-.363a.392.392 0 0 0-.325-.148h-8.458c-.364 0-.694-.08-.99-.242a2.191 2.191 0 0 1-1.118-1.533 2.39 2.39 0 0 1 .026-1.048l.52-2.044h11.45a4 4 0 0 1 1.953.484c.59.323 1.08.744 1.47 1.264.39.52.66 1.116.807 1.788a4.59 4.59 0 0 1-.04 2.084l-2.055 7.906a3.573 3.573 0 0 1-1.262 1.963 3.403 3.403 0 0 1-2.174.753L37.5 22.13a4.312 4.312 0 0 1-2.056-.497 4.46 4.46 0 0 1-1.535-1.318 4.964 4.964 0 0 1-.833-1.882 4.58 4.58 0 0 1 .052-2.165l.104-.403c.12-.499.327-.972.612-1.399.286-.43.62-.797 1.002-1.102a4.488 4.488 0 0 1 1.275-.713c.468-.17.963-.255 1.483-.255h7.105l-.52 2.016a2.28 2.28 0 0 1-.78 1.184c-.368.3-.828.461-1.302.457h-3.175c-.295 0-.486.152-.573.457a.565.565 0 0 0 .104.524.573.573 0 0 0 .469.229h5.127c.19 0 .355-.054.494-.162a.692.692 0 0 0 .26-.43l.053-.215 1.275-4.867Zm15.146-5.62c1.266 0 2.425.282 3.474.847a7.861 7.861 0 0 1 2.616 2.245c.694.932 1.167 2 1.418 3.2.252 1.2.213 2.43-.117 3.684l-1.301 5.056a1.48 1.48 0 0 1-.56.86 1.545 1.545 0 0 1-.95.323h-2.81c-.33 0-.59-.13-.78-.39a.977.977 0 0 1-.157-.874l1.561-6.104c.122-.448.135-.888.04-1.318a3.013 3.013 0 0 0-.508-1.143 2.78 2.78 0 0 0-.937-.806 2.587 2.587 0 0 0-1.249-.31h-2.915l-2.524 9.762a1.476 1.476 0 0 1-.56.86 1.582 1.582 0 0 1-.976.323h-2.785a.926.926 0 0 1-.767-.39.958.958 0 0 1-.17-.874L54.183 5.97h7.105Zm15.329 5.122c-.209.17-.357.39-.443.66l-1.171 4.57a.782.782 0 0 0 .13.7.735.735 0 0 0 .625.323h10.774l-.832 3.2c-.14.483-.4.878-.781 1.183a2.03 2.03 0 0 1-1.301.457h-9.812a4.087 4.087 0 0 1-1.951-.47 4.332 4.332 0 0 1-1.471-1.265c-.39-.529-.66-1.13-.807-1.801a4.253 4.253 0 0 1 .065-2.058l1.588-6.104a6.145 6.145 0 0 1 .806-1.828 6.055 6.055 0 0 1 1.289-1.425 5.871 5.871 0 0 1 1.665-.928 5.543 5.543 0 0 1 1.913-.336h6.95c.71 0 1.361.161 1.951.484.59.322 1.08.744 1.47 1.264.391.52.655 1.12.794 1.801a4.642 4.642 0 0 1-.052 2.07l-.468 1.83c-.209.806-.63 1.456-1.262 1.949-.633.493-1.35.74-2.148.74H76.28l.52-1.99c.122-.484.373-.879.755-1.184a2.064 2.064 0 0 1 1.328-.457h3.175c.294 0 .485-.152.572-.457l.104-.403a.598.598 0 0 0-.104-.538.562.562 0 0 0-.468-.242h-4.84c-.261 0-.495.085-.704.255Zm9.889 11.093 5.23-20.303c.087-.358.274-.65.56-.874.277-.22.622-.34.976-.336h2.785a.952.952 0 0 1 .793.39c.2.26.256.551.17.874l-3.904 14.978a6.778 6.778 0 0 1-.924 2.151 6.944 6.944 0 0 1-1.51 1.654 6.993 6.993 0 0 1-1.939 1.076c-.71.26-1.457.39-2.238.39Z" fill="#FF6C2C" style="fill:color(display-p3 1 .4235 .1725);fill-opacity:1"/>
    </g>
    <defs>
        <clipPath id="a">
            <path fill="#fff" style="fill:#fff;fill-opacity:1" d="M0 0h100v22.857H0z"/>
        </clipPath>
    </defs>
</svg>
