<svg width="100" height="100" fill="none" xmlns="http://www.w3.org/2000/svg">
    <path d="M14.698 89.159 6.844 1.056h86.312l-7.862 88.09-35.346 9.799-35.25-9.786Z" fill="#1572B6" style="fill:color(display-p3 .0824 .4471 .7137);fill-opacity:1"/>
    <path d="m50 91.455 28.563-7.919 6.719-75.277H50.001v83.196Z" fill="#33A9DC" style="fill:color(display-p3 .2 .6627 .8627);fill-opacity:1"/>
    <path d="M50 40.179h14.3l.987-11.065H50V18.31h27.095l-.26 2.899-2.656 29.776H50V40.18Z" fill="#fff" style="fill:#fff;fill-opacity:1"/>
    <path d="m50.065 68.241-.048.014-12.033-3.249-.77-8.618H26.37l1.513 16.967 22.134 6.143.049-.014V68.24Z" fill="#EBEBEB" style="fill:color(display-p3 .9216 .9216 .9216);fill-opacity:1"/>
    <path d="m63.38 50.527-1.301 14.47-12.052 3.254v11.242l22.152-6.14.162-1.825 1.88-21h-10.84Z" fill="#fff" style="fill:#fff;fill-opacity:1"/>
    <path d="M50.038 18.309v10.805h-26.1l-.217-2.428-.492-5.478-.259-2.9h27.068ZM50 40.18v10.805H38.119l-.217-2.428-.493-5.478-.257-2.9H50Z" fill="#EBEBEB" style="fill:color(display-p3 .9216 .9216 .9216);fill-opacity:1"/>
</svg>
