<svg width="102" height="108" viewBox="0 0 102 108" fill="none" xmlns="http://www.w3.org/2000/svg">
<mask id="mask0_61_220" style="mask-type:luminance" maskUnits="userSpaceOnUse" x="0" y="0" width="102" height="108">
<path d="M101.094 0H0V107.812H101.094V0Z" fill="white" style="fill:white;fill-opacity:1;"/>
</mask>
<g mask="url(#mask0_61_220)">
<path d="M90.0079 52.6828L92.4688 84.0891L48.9063 91.9062L45.1563 60.5L51.3797 59.6313C52.3922 60.0656 53.1172 60.2094 54.275 60.5C56.1563 60.9344 58.3282 61.5125 61.5094 59.7766C62.2329 59.3422 63.825 58.0391 64.4047 57.1719L90.0079 52.6828ZM22.7063 90.0266C21.9829 88.8703 20.6797 87.5656 18.6532 85.9734C15.7579 83.6578 16.7719 79.6047 18.5079 77.1453C20.6954 72.9484 32.1125 67.4484 31.5344 60.6453C31.2454 58.1844 30.9563 55 28.6391 52.6844C28.4938 53.5531 28.6391 54.4219 28.6391 54.4219C28.6391 54.4219 27.6266 53.2656 27.1922 51.5266C26.7579 50.9484 26.3235 50.6578 25.8891 49.7891C25.6 50.8016 25.6 51.8156 25.6 51.8156C25.6 51.8156 24.8766 49.9344 24.7313 48.4875C24.2969 49.2109 24.1532 50.5141 24.1532 50.5141C24.1532 50.5141 23.1407 47.6187 23.4297 46.0297C22.9954 44.7266 21.5485 41.9766 21.9829 35.8984C24.4438 37.6359 29.9438 37.2016 32.1141 34.0172C32.8375 33.0047 33.2704 30.1109 31.8251 24.4641C30.8126 20.8453 28.3516 15.4906 27.3407 13.4641L27.1954 13.6094C27.7735 15.2031 28.7891 18.675 29.2219 20.4125C30.3782 25.4781 30.8157 27.2156 30.2344 29.5312C29.8001 31.5578 28.6407 32.8594 25.6032 34.3078C22.7079 35.7547 18.6563 32.1203 18.5094 31.9922C15.6141 29.6766 13.4438 25.8984 13.1547 24.1766C12.8657 22.15 14.311 20.9922 15.036 19.4C14.0235 19.6891 12.8485 20.2688 12.8485 20.2688C12.8485 20.2688 14.1516 18.8219 15.8875 17.6641C16.5475 17.2791 17.1764 16.8434 17.7688 16.3609H15.9063C15.9063 16.3609 17.6438 15.3484 19.525 14.7672H16.9219L23.8688 11.7281C26.0563 10.8594 28.0657 11.15 29.2235 12.7406C30.8172 14.9281 32.4079 16.0688 35.736 16.9375C37.7626 16.0688 38.486 15.4906 41.0907 14.75C43.4063 12.1453 45.2875 11.8547 45.2875 11.8547C45.2875 11.8547 43.9844 13.0109 43.8407 14.3156C45.1438 13.3031 46.5907 12.4344 46.5907 12.4344C46.5907 12.4344 46.0126 13.1578 45.5782 14.1719L45.7235 14.3172C47.3172 13.4484 49.0516 12.7234 49.0516 12.7234C49.0516 12.7234 48.4735 13.3016 47.8954 14.1703C49.0516 14.1703 51.3688 14.1703 52.2391 14.3156C57.5938 14.4609 58.7516 8.67031 60.7782 7.80312C63.3829 6.93437 64.5407 6.35625 68.8829 10.6984C72.6454 14.4609 75.5391 20.975 74.0938 22.4219C72.9375 23.5781 70.475 21.9875 67.725 18.6594C66.2782 16.9219 65.2641 14.7531 64.686 12.1469C64.3969 9.95938 62.8047 8.67344 62.8047 8.67344C62.8047 8.67344 63.8172 10.8609 63.8172 12.7266C63.8172 13.7391 63.9625 17.5031 65.5547 19.6734C65.4094 19.9625 65.2657 21.2672 65.1204 21.4109C63.2391 19.0953 59.0266 17.5047 58.4641 16.9266C60.7797 18.8078 65.9907 23.0203 68.0172 27.0578C69.8985 30.9641 68.7407 34.4391 69.7547 35.3078C70.0438 35.5969 73.8079 40.2297 74.5313 42.6891C75.8344 46.8859 74.6766 51.2281 72.9375 53.8328L68.3063 54.5563C67.7014 54.4512 67.1156 54.2558 66.5688 53.9766C66.8579 53.3984 67.5813 51.95 67.5813 51.6609L67.2922 51.2266C65.8454 53.2531 63.386 55.2797 61.3579 56.4375C58.7532 57.8844 55.7125 57.7406 53.7016 57.0156C48.0563 55.2781 42.7016 51.5156 41.5454 50.5031C41.5454 50.5031 41.5454 51.2266 41.6907 51.5156C44.0344 53.9823 46.6573 56.1678 49.5063 58.0281L42.85 58.7516L46.0344 83.3562C44.5876 83.5016 44.4407 83.6453 42.85 83.9344C41.5469 79.1578 38.9438 76.1188 36.0469 74.2375C33.586 72.6438 30.1125 72.2109 26.7844 72.9344L26.6391 73.2234C28.9547 72.9344 31.7047 73.3688 34.4547 75.1047C37.2047 76.8406 39.3766 81.3281 40.2438 83.9328C41.2563 87.4062 41.9813 91.0266 39.2313 94.9328C37.2047 97.6828 31.4157 99.2766 26.7844 95.9453C28.0875 97.9719 29.6797 99.5641 31.9954 99.8516C35.3235 100.286 38.5079 99.7063 40.8235 97.5359C42.7047 95.6547 43.7188 91.6016 43.4282 87.2594L46.4672 86.825L47.4797 94.4812L96.8125 88.5938L92.4688 49.2266L90.0079 49.6609L85.0875 0L2.87817 9.55312L13.0094 91.4719L22.7063 90.0266Z" fill="#5C2D90" style="fill:#5C2D90;fill:color(display-p3 0.3608 0.1765 0.5647);fill-opacity:1;"/>
</g>
<path d="M61.8203 46.9688C64.0078 48.5625 65.8734 49.5735 67.7546 49.4297C68.9109 49.2844 70.0703 47.4031 70.7937 45.6672C71.3718 44.511 71.3718 43.2063 70.5046 42.7719C70.0703 42.6266 68.3171 42.6266 67.0312 42.7719C64.5703 43.061 62.1093 43.9281 61.5312 44.3656C60.6625 44.9438 61.0968 46.3922 61.8203 46.9703M62.3984 30.0328V30.1781L62.5437 30.4672C63.1218 31.6235 63.7 32.7828 64.8593 33.3625C65.1484 33.3625 65.4375 33.2172 65.7281 33.2172C66.7406 33.2172 67.3218 33.3625 67.7546 33.5063V32.6375C67.6093 31.1906 68.0437 28.5844 65.15 27.1375C63.9937 26.5594 62.5453 26.8485 61.9656 27.4266H62.2546C62.9781 27.7156 62.5437 28.0047 62.4 28.2953C62.2546 28.8735 62.1093 29.0188 62.3984 30.0328Z" fill="#5C2D90" style="fill:#5C2D90;fill:color(display-p3 0.3608 0.1765 0.5647);fill-opacity:1;"/>
<path d="M49.3718 30.3234C50.0953 29.7453 46.0437 28.8766 42.8593 30.9016C40.5437 32.4953 40.5437 35.8234 42.714 37.7047C42.9317 37.8129 43.1277 37.9601 43.2921 38.1391C43.8703 37.85 44.739 37.5609 45.4796 37.2703C46.9265 36.8359 48.0843 36.5469 49.0984 36.4016C49.5328 35.8234 50.1109 34.9547 49.9671 33.3625C49.8218 31.175 48.0859 31.625 49.389 30.3234M72.9796 65.4797L66.0328 77.0422L57.9281 74.5813L50.8343 85.4359L51.1234 88.9094L89.9125 81.8156L87.5968 57.6438L81.2281 70.9594L72.9796 65.4797Z" fill="#5C2D90" style="fill:#5C2D90;fill:color(display-p3 0.3608 0.1765 0.5647);fill-opacity:1;"/>
</svg>
