<svg width="100" height="100" fill="none" xmlns="http://www.w3.org/2000/svg">
    <path fill-rule="evenodd" clip-rule="evenodd" d="M57.656 39.688h8.828v8.984h4.454c2.03 0 4.14-.39 6.093-1.016A16.51 16.51 0 0 0 80 46.328c-1.25-1.64-1.875-3.672-2.031-5.703-.235-2.734.312-6.328 2.187-8.438l.938-1.093 1.094.86c2.812 2.265 5.078 5.312 5.546 8.905 3.36-1.015 7.266-.78 10.235.938l1.172.703-.625 1.25c-2.5 4.844-7.735 6.406-12.813 6.094-7.656 18.984-24.219 27.968-44.375 27.968-10.39 0-19.922-3.906-25.39-13.124l-.079-.157-.78-1.64c-1.876-4.063-2.423-8.516-2.032-12.97l.156-1.327h7.5v-8.907h8.828v-8.75H47.11V22.11h10.547v17.578Z" fill="#3A4D54" style="fill:color(display-p3 .2275 .302 .3294);fill-opacity:1"/>
    <path d="M86.25 43.047c.625-4.61-2.813-8.203-5-9.922-2.422 2.813-2.813 10.313 1.016 13.438-2.188 1.874-6.641 3.671-11.329 3.671H14.532c-.469 4.844.39 9.297 2.344 13.125l.625 1.172c.39.703.86 1.328 1.328 2.031 2.344.157 4.453.235 6.406.157 3.828-.078 6.953-.547 9.375-1.328.391-.157.703.078.86.39.156.39-.078.703-.39.86-.313.078-.626.234-1.017.312-1.874.547-3.906.86-6.484 1.016h-.469c-1.015.078-2.109.078-3.28.078-1.25 0-2.423 0-3.829-.078 4.688 5.312 12.031 8.437 21.25 8.437 19.531 0 36.094-8.672 43.36-28.047 5.234.547 10.234-.78 12.5-5.234-3.516-2.11-8.204-1.406-10.86-.078Z" fill="#00AADA" style="fill:color(display-p3 0 .6667 .8549);fill-opacity:1"/>
    <path d="M86.25 43.047c.625-4.61-2.813-8.203-5-9.922-2.422 2.813-2.813 10.313 1.016 13.438-2.188 1.874-6.641 3.671-11.329 3.671H17.813c-.235 7.422 2.5 13.047 7.421 16.407 3.828-.079 6.953-.547 9.375-1.329.391-.156.703.079.86.391.156.39-.078.703-.39.86-.313.078-.626.234-1.017.312-1.874.547-4.062.938-6.64 1.094l-.078-.078c6.64 3.437 16.25 3.359 27.343-.86 12.344-4.765 23.907-13.828 31.954-24.14-.157.078-.313.078-.391.156Z" fill="#28B8EB" style="fill:color(display-p3 .1569 .7216 .9216);fill-opacity:1"/>
    <path d="M14.61 56.094c.312 2.578 1.093 5 2.265 7.265l.625 1.172c.39.703.86 1.328 1.328 2.031 2.344.157 4.453.235 6.406.157 3.828-.078 6.953-.547 9.375-1.328.391-.157.703.078.86.39.156.39-.078.703-.39.86-.313.078-.626.234-1.017.312-1.874.547-4.062.938-6.64 1.094h-.313c-1.015.078-2.109.078-3.203.078-1.25 0-2.5 0-3.828-.078 4.688 5.312 12.11 8.437 21.328 8.437 16.719 0 31.25-6.328 39.688-20.312H14.609v-.078Z" fill="#028BB8" style="fill:color(display-p3 .0078 .5451 .7216);fill-opacity:1"/>
    <path d="M18.36 56.094c1.015 4.531 3.359 8.125 6.874 10.547 3.828-.079 6.953-.547 9.375-1.329.391-.156.703.079.86.391.156.39-.078.703-.39.86-.313.078-.626.234-1.017.312-1.874.547-4.062.938-6.718 1.094 6.64 3.437 16.25 3.36 27.265-.86 6.641-2.578 13.125-6.406 18.907-11.015H18.359Z" fill="#019BC6" style="fill:color(display-p3 .0039 .6078 .7765);fill-opacity:1"/>
    <path fill-rule="evenodd" clip-rule="evenodd" d="M22.188 41.172h7.656v7.656h-7.657v-7.656Zm.625.625h.625v6.328h-.625v-6.328Zm1.093 0h.625v6.328h-.625v-6.328Zm1.172 0h.625v6.328h-.625v-6.328Zm1.172 0h.625v6.328h-.625v-6.328Zm1.172 0h.625v6.328h-.625v-6.328Zm1.172 0h.625v6.328h-.625v-6.328Zm2.343-9.375h7.657v7.656h-7.657v-7.656Zm.704.625h.625v6.328h-.625v-6.328Zm1.093 0h.625v6.328h-.625v-6.328Zm1.172 0h.625v6.328h-.625v-6.328Zm1.172 0h.625v6.328h-.625v-6.328Zm1.094 0h.625v6.328h-.625v-6.328Zm1.172 0h.625v6.328h-.625v-6.328Z" fill="#00ACD3" style="fill:color(display-p3 0 .6745 .8275);fill-opacity:1"/>
    <path fill-rule="evenodd" clip-rule="evenodd" d="M30.938 41.172h7.656v7.656h-7.657v-7.656Zm.703.625h.625v6.328h-.625v-6.328Zm1.093 0h.625v6.328h-.625v-6.328Zm1.172 0h.625v6.328h-.625v-6.328Zm1.172 0h.625v6.328h-.625v-6.328Zm1.094 0h.625v6.328h-.625v-6.328Zm1.172 0h.625v6.328h-.625v-6.328Z" fill="#23C2EE" style="fill:color(display-p3 .1373 .7608 .9333);fill-opacity:1"/>
    <path fill-rule="evenodd" clip-rule="evenodd" d="M39.766 41.172h7.656v7.656h-7.656v-7.656Zm.625.625h.625v6.328h-.625v-6.328Zm1.172 0h.624v6.328h-.624v-6.328Zm1.171 0h.625v6.328h-.625v-6.328Zm1.094 0h.625v6.328h-.625v-6.328Zm1.172 0h.625v6.328H45v-6.328Zm1.172 0h.625v6.328h-.625v-6.328Z" fill="#00ACD3" style="fill:color(display-p3 0 .6745 .8275);fill-opacity:1"/>
    <path fill-rule="evenodd" clip-rule="evenodd" d="M39.766 32.422h7.656v7.656h-7.656v-7.656Zm.625.625h.625v6.328h-.625v-6.328Zm1.172 0h.624v6.328h-.624v-6.328Zm1.171 0h.625v6.328h-.625v-6.328Zm1.094 0h.625v6.328h-.625v-6.328Zm1.172 0h.625v6.328H45v-6.328Zm1.172 0h.625v6.328h-.625v-6.328Zm2.422 8.125h7.656v7.656h-7.656v-7.656Zm.625.625h.625v6.328h-.625v-6.328Zm1.172 0h.625v6.328h-.625v-6.328Zm1.093 0h.625v6.328h-.625v-6.328Zm1.172 0h.625v6.328h-.625v-6.328Zm1.172 0h.625v6.328h-.625v-6.328Zm1.172 0h.625v6.328H55v-6.328Z" fill="#23C2EE" style="fill:color(display-p3 .1373 .7608 .9333);fill-opacity:1"/>
    <path fill-rule="evenodd" clip-rule="evenodd" d="M48.594 32.422h7.656v7.656h-7.656v-7.656Zm.625.625h.625v6.328h-.625v-6.328Zm1.172 0h.625v6.328h-.625v-6.328Zm1.093 0h.625v6.328h-.625v-6.328Zm1.172 0h.625v6.328h-.625v-6.328Zm1.172 0h.625v6.328h-.625v-6.328Zm1.172 0h.625v6.328H55v-6.328Z" fill="#00ACD3" style="fill:color(display-p3 0 .6745 .8275);fill-opacity:1"/>
    <path fill-rule="evenodd" clip-rule="evenodd" d="M48.594 23.594h7.656v7.656h-7.656v-7.656Zm.625.625h.625v6.328h-.625v-6.328Zm1.172 0h.625v6.328h-.625v-6.328Zm1.093 0h.625v6.328h-.625v-6.328Zm1.172 0h.625v6.328h-.625v-6.328Zm1.172 0h.625v6.328h-.625v-6.328Zm1.172 0h.625v6.328H55v-6.328Z" fill="#23C2EE" style="fill:color(display-p3 .1373 .7608 .9333);fill-opacity:1"/>
    <path fill-rule="evenodd" clip-rule="evenodd" d="M57.422 41.172h7.656v7.656h-7.656v-7.656Zm.625.625h.625v6.328h-.625v-6.328Zm1.094 0h.625v6.328h-.625v-6.328Zm1.172 0h.624v6.328h-.624v-6.328Zm1.171 0h.625v6.328h-.625v-6.328Zm1.172 0h.625v6.328h-.625v-6.328Zm1.172 0h.625v6.328h-.625v-6.328Z" fill="#00ACD3" style="fill:color(display-p3 0 .6745 .8275);fill-opacity:1"/>
    <path fill-rule="evenodd" clip-rule="evenodd" d="M38.125 61.172a2.1 2.1 0 0 1 2.11 2.11 2.1 2.1 0 0 1-2.11 2.109 2.1 2.1 0 0 1-2.11-2.11 2.1 2.1 0 0 1 2.11-2.11Z" fill="#D4EEF1" style="fill:color(display-p3 .8314 .9333 .9451);fill-opacity:1"/>
    <path fill-rule="evenodd" clip-rule="evenodd" d="M38.125 61.797c.156 0 .39 0 .547.078-.156.078-.313.313-.313.547 0 .312.313.625.625.625.235 0 .47-.156.547-.313.078.157.078.391.078.547 0 .86-.703 1.485-1.484 1.485-.86 0-1.484-.704-1.484-1.485 0-.781.625-1.484 1.484-1.484ZM.859 56.875h97.97c-2.11-.547-6.72-1.25-6.016-4.063-3.907 4.454-13.204 3.126-15.626.938-2.656 3.828-17.968 2.344-18.984-.625-3.281 3.906-13.516 3.906-16.797 0-1.093 2.969-16.406 4.453-18.984.625-2.344 2.188-11.719 3.516-15.625-.938.86 2.735-3.828 3.516-5.938 4.063Z" fill="#3A4D54" style="fill:color(display-p3 .2275 .302 .3294);fill-opacity:1"/>
    <path d="M43.75 76.406c-5.234-2.5-8.047-5.86-9.688-9.531-1.953.547-4.296.938-6.953 1.094-1.015.078-2.109.078-3.203.078-1.328 0-2.656 0-4.062-.078 4.687 4.687 10.625 8.36 21.484 8.437h2.422Z" fill="#BFDBE0" style="fill:color(display-p3 .749 .8588 .8784);fill-opacity:1"/>
    <path d="M36.016 70.234a23.602 23.602 0 0 1-1.953-3.359c-1.954.547-4.297.938-6.954 1.094 1.797.937 4.453 1.875 8.907 2.265Z" fill="#D4EEF1" style="fill:color(display-p3 .8314 .9333 .9451);fill-opacity:1"/>
</svg>
