<svg width="100" height="72" viewBox="0 0 100 72" fill="none" xmlns="http://www.w3.org/2000/svg">
<g clip-path="url(#clip0_56_156)">
<path d="M99.0139 27.1412C98.7427 26.9254 96.2106 25.0099 90.8712 25.0099C89.4613 25.0161 88.0547 25.1372 86.6642 25.3722C85.631 18.2753 79.7748 14.8152 79.5124 14.6599L78.0785 13.8315L77.1354 15.1949C75.9547 17.0263 75.0927 19.0452 74.5865 21.1659C73.6307 25.217 74.2117 29.0221 76.2657 32.2751C73.7854 33.66 69.8069 34.0009 69.0018 34.031H3.13026C1.40972 34.0334 0.0135775 35.4265 0.00420085 37.1504C-0.0726317 42.9321 0.905059 48.6796 2.88913 54.1095C5.15828 60.0719 8.53416 64.4639 12.9262 67.1519C17.8478 70.1719 25.8439 71.8975 34.9077 71.8975C39.0026 71.9102 43.0894 71.5391 47.115 70.7887C52.7109 69.7592 58.096 67.7997 63.0467 64.9902C67.1263 62.6234 70.7974 59.6121 73.9193 56.0727C79.138 50.1533 82.2471 43.561 84.5591 37.7026H85.4803C91.1945 37.7026 94.708 35.4115 96.6456 33.4917C97.9332 32.2673 98.9387 30.7758 99.5909 29.1214L100 27.9221L99.0139 27.1412Z" fill="#218BEA" style="fill:#218BEA;fill:color(display-p3 0.1294 0.5451 0.9176);fill-opacity:1;"/>
<path d="M9.23606 32.0983H18.0631C18.4888 32.0983 18.8338 31.7525 18.8338 31.3261V23.4481C18.8362 23.0215 18.493 22.6739 18.0674 22.6715C18.0661 22.6715 18.0645 22.6715 18.0631 22.6715H9.23606C8.81033 22.6715 8.46533 23.0173 8.46533 23.4437V31.3259C8.46533 31.7525 8.81033 32.0983 9.23606 32.0983Z" fill="#218BEA" style="fill:#218BEA;fill:color(display-p3 0.1294 0.5451 0.9176);fill-opacity:1;"/>
<path d="M21.4002 32.0983H30.2272C30.653 32.0983 30.998 31.7525 30.998 31.3261V23.4481C31.0003 23.0215 30.6572 22.6739 30.2314 22.6715C30.23 22.6715 30.2285 22.6715 30.2271 22.6715H21.4C20.9719 22.6715 20.625 23.0191 20.625 23.4481V31.3259C20.6275 31.7532 20.9738 32.0983 21.4002 32.0983Z" fill="#218BEA" style="fill:#218BEA;fill:color(display-p3 0.1294 0.5451 0.9176);fill-opacity:1;"/>
<path d="M33.7494 32.0983H42.5763C43.0022 32.0983 43.3471 31.7525 43.3471 31.3261V23.4481C43.3496 23.0215 43.0062 22.6739 42.5807 22.6715C42.5792 22.6715 42.5777 22.6715 42.5763 22.6715H33.7492C33.3235 22.6715 32.9785 23.0173 32.9785 23.4437V31.3259C32.9787 31.7525 33.3238 32.0983 33.7494 32.0983Z" fill="#218BEA" style="fill:#218BEA;fill:color(display-p3 0.1294 0.5451 0.9176);fill-opacity:1;"/>
<path d="M45.9522 32.0983H54.7792C55.2059 32.0983 55.5522 31.7533 55.5544 31.3261V23.4481C55.5544 23.0191 55.2073 22.6715 54.7792 22.6715H45.9522C45.5267 22.6715 45.1818 23.0173 45.1818 23.4437V31.3259C45.1818 31.7525 45.5267 32.0983 45.9522 32.0983Z" fill="#218BEA" style="fill:#218BEA;fill:color(display-p3 0.1294 0.5451 0.9176);fill-opacity:1;"/>
<path d="M21.4002 20.7646H30.2272C30.6535 20.7622 30.9979 20.4152 30.9979 19.9881V12.1102C30.9979 11.6837 30.6528 11.338 30.2272 11.338H21.4002C20.9738 11.338 20.6275 11.683 20.6251 12.1102V19.9881C20.6275 20.416 20.973 20.7622 21.4002 20.7646Z" fill="#218BEA" style="fill:#218BEA;fill:color(display-p3 0.1294 0.5451 0.9176);fill-opacity:1;"/>
<path d="M33.7493 20.7646H42.5763C43.0025 20.7622 43.3471 20.4152 43.3471 19.9881V12.1102C43.3471 11.6837 43.0022 11.338 42.5763 11.338H33.7493C33.3236 11.338 32.9786 11.6838 32.9786 12.1102V19.9881C32.9786 20.4152 33.3231 20.7622 33.7493 20.7646Z" fill="#218BEA" style="fill:#218BEA;fill:color(display-p3 0.1294 0.5451 0.9176);fill-opacity:1;"/>
<path d="M45.9522 20.7646H54.7792C55.2066 20.7622 55.5522 20.416 55.5544 19.9881V12.1102C55.5522 11.683 55.2059 11.338 54.7792 11.338H45.9522C45.5267 11.338 45.1818 11.6838 45.1818 12.1102V19.9881C45.1818 20.4152 45.5259 20.7622 45.9522 20.7646Z" fill="#218BEA" style="fill:#218BEA;fill:color(display-p3 0.1294 0.5451 0.9176);fill-opacity:1;"/>
<path d="M45.9522 9.42675H54.7792C55.2059 9.42675 55.5522 9.08168 55.5544 8.65456V0.772208C55.5522 0.344948 55.2059 0 54.7792 0H45.9522C45.5267 0 45.1818 0.345649 45.1818 0.772208V8.65442C45.1818 9.08099 45.5267 9.42675 45.9522 9.42675Z" fill="#218BEA" style="fill:#218BEA;fill:color(display-p3 0.1294 0.5451 0.9176);fill-opacity:1;"/>
<path d="M58.2627 32.0983H67.0898C67.5164 32.0983 67.8627 31.7533 67.8649 31.3261V23.4481C67.8649 23.0191 67.5179 22.6715 67.0898 22.6715H58.2627C57.8372 22.6715 57.4923 23.0173 57.4923 23.4437V31.3259C57.4923 31.7525 57.8372 32.0983 58.2627 32.0983Z" fill="#218BEA" style="fill:#218BEA;fill:color(display-p3 0.1294 0.5451 0.9176);fill-opacity:1;"/>
</g>
<defs>
<clipPath id="clip0_56_156">
<rect width="100" height="71.8978" fill="white" style="fill:white;fill-opacity:1;"/>
</clipPath>
</defs>
</svg>
