<svg width="100" height="100" fill="none" xmlns="http://www.w3.org/2000/svg">
    <g clip-path="url(#a)">
        <path d="M3.348 0c0 .882-.357 1.745-.98 2.368A3.372 3.372 0 0 1 0 3.348v4.415a3.352 3.352 0 0 1 3.348 3.348A3.352 3.352 0 0 1 0 14.459v4.413a3.353 3.353 0 0 1 3.348 3.348A3.356 3.356 0 0 1 0 25.57v4.413A3.351 3.351 0 0 1 2.366 35.7 3.351 3.351 0 0 1 0 36.682v4.416a3.351 3.351 0 0 1 3.348 3.347A3.351 3.351 0 0 1 0 47.794v4.415a3.348 3.348 0 0 1 0 6.696v4.412a3.351 3.351 0 0 1 3.348 3.346A3.352 3.352 0 0 1 0 70.013v4.416a3.351 3.351 0 0 1 3.348 3.348A3.352 3.352 0 0 1 0 81.125v4.416a3.352 3.352 0 0 1 3.348 3.347A3.352 3.352 0 0 1 0 92.237v4.415c.882 0 1.745.357 2.368.98.623.623.98 1.486.98 2.368h4.415a3.352 3.352 0 0 1 3.348-3.348A3.352 3.352 0 0 1 14.459 100h4.413a3.354 3.354 0 0 1 3.35-3.348A3.352 3.352 0 0 1 25.57 100h4.413a3.352 3.352 0 0 1 3.346-3.348 3.352 3.352 0 0 1 3.35 3.348h4.415a3.352 3.352 0 0 1 3.348-3.348A3.352 3.352 0 0 1 47.791 100h4.415a3.352 3.352 0 0 1 3.348-3.348A3.352 3.352 0 0 1 58.902 100h4.416a3.351 3.351 0 0 1 3.348-3.348A3.352 3.352 0 0 1 70.013 100h4.413a3.354 3.354 0 0 1 3.35-3.348A3.352 3.352 0 0 1 81.126 100h4.41a3.352 3.352 0 0 1 3.349-3.348A3.352 3.352 0 0 1 92.23 100h4.419c0-.882.357-1.745.98-2.368a3.372 3.372 0 0 1 2.368-.98V92.24a3.354 3.354 0 0 1-3.348-3.35 3.351 3.351 0 0 1 3.348-3.349v-4.41a3.352 3.352 0 0 1-3.348-3.348 3.351 3.351 0 0 1 3.35-3.351v-4.416a3.352 3.352 0 0 1-3.348-3.347A3.352 3.352 0 0 1 100 63.32v-4.415a3.352 3.352 0 0 1-3.348-3.348A3.352 3.352 0 0 1 100 52.209v-4.412a3.352 3.352 0 0 1-3.348-3.348A3.352 3.352 0 0 1 100 41.101v-4.416a3.352 3.352 0 0 1-3.348-3.348 3.351 3.351 0 0 1 3.348-3.35V25.57a3.352 3.352 0 0 1-3.348-3.347A3.352 3.352 0 0 1 100 18.875v-4.412a3.354 3.354 0 0 1-3.348-3.351A3.352 3.352 0 0 1 100 7.766V3.348a3.372 3.372 0 0 1-2.368-.98A3.372 3.372 0 0 1 96.652 0h-4.415a3.351 3.351 0 0 1-3.348 3.348A3.352 3.352 0 0 1 85.541 0h-4.416a3.352 3.352 0 0 1-3.348 3.348A3.352 3.352 0 0 1 74.43 0h-4.413a3.352 3.352 0 0 1-3.346 3.348A3.36 3.36 0 0 1 63.318 0h-4.412a3.352 3.352 0 0 1-3.348 3.348A3.352 3.352 0 0 1 52.209 0h-4.415a3.351 3.351 0 0 1-3.348 3.348A3.351 3.351 0 0 1 41.098 0h-4.416a3.351 3.351 0 0 1-3.348 3.348A3.351 3.351 0 0 1 29.987 0H25.57a3.352 3.352 0 0 1-3.347 3.348A3.352 3.352 0 0 1 18.875 0h-4.412a3.353 3.353 0 0 1-3.348 3.348A3.356 3.356 0 0 1 7.765 0H3.347ZM27.38 14.716h43.714l-2.79 13.113H37.892l-2.603 12.183h49.899l-2.14 8.741-26.68 25.95c2.417.371 4.742.93 7.25.93 6.106 0 13.126-1.862 17.871-3.815L79.05 83.259c-6.977 3.349-11.255 3.63-15.433 3.63-4.553 0-8.926-1.489-13.391-1.489-2.512 0-6.138.187-8.371 1.673l-4.837-8.554 27.526-27.253H32.867l-6.045 28.367H13.617l13.764-64.917Z" fill="url(#b)"/>
    </g>
    <defs>
        <linearGradient id="b" x1="49.998" y1="12.143" x2="49.998" y2="89.394" gradientUnits="userSpaceOnUse">
            <stop stop-color="#BF0000" style="stop-color:color(display-p3 .749 0 0);stop-opacity:1"/>
            <stop offset="1" stop-color="#8F0000" style="stop-color:color(display-p3 .5608 0 0);stop-opacity:1"/>
        </linearGradient>
        <clipPath id="a">
            <path fill="#fff" style="fill:#fff;fill-opacity:1" d="M0 0h100v100H0z"/>
        </clipPath>
    </defs>
</svg>
