<svg width="100" height="100" fill="none" xmlns="http://www.w3.org/2000/svg">
    <g clip-path="url(#a)">
        <path d="M97.45 45.608 54.392 2.55a6.352 6.352 0 0 0-8.982 0l-8.94 8.942L47.81 22.834a7.541 7.541 0 0 1 9.551 9.615l10.932 10.932c2.644-.912 5.697-.322 7.808 1.793A7.553 7.553 0 0 1 73.649 57.5a7.557 7.557 0 0 1-9.882-9.859L53.573 37.448l-.001 26.828c.74.365 1.415.847 2 1.429a7.56 7.56 0 0 1 0 10.69 7.557 7.557 0 0 1-10.688 0 7.56 7.56 0 0 1 2.475-12.339V36.98a7.486 7.486 0 0 1-2.475-1.65 7.556 7.556 0 0 1-1.627-8.262L32.075 15.885 2.55 45.408a6.354 6.354 0 0 0 0 8.985L45.61 97.45a6.354 6.354 0 0 0 8.984 0l42.858-42.858a6.355 6.355 0 0 0-.001-8.985Z" fill="#F34F29" style="fill:color(display-p3 .9529 .3098 .1608);fill-opacity:1"/>
    </g>
    <defs>
        <clipPath id="a">
            <path fill="#fff" style="fill:#fff;fill-opacity:1" d="M0 0h100v100H0z"/>
        </clipPath>
    </defs>
</svg>
