<svg width="100" height="100" fill="none" xmlns="http://www.w3.org/2000/svg">
    <path fill-rule="evenodd" clip-rule="evenodd" d="M50 3.987c-26.052 0-47.178 21.12-47.178 47.178 0 20.845 13.518 38.529 32.263 44.768 2.357.437 3.223-1.024 3.223-2.27 0-1.125-.044-4.841-.064-8.783-13.125 2.854-15.895-5.567-15.895-5.567-2.146-5.453-5.238-6.903-5.238-6.903-4.281-2.928.323-2.867.323-2.867 4.736.332 7.232 4.862 7.232 4.862 4.207 7.21 11.036 5.126 13.729 3.921.423-3.049 1.646-5.13 2.995-6.309-10.48-1.191-21.495-5.237-21.495-23.315 0-5.15 1.843-9.36 4.861-12.664-.49-1.187-2.105-5.986.456-12.484 0 0 3.961-1.268 12.977 4.836 3.764-1.046 7.8-1.572 11.811-1.59 4.008.018 8.047.542 11.818 1.588 9.005-6.104 12.96-4.836 12.96-4.836 2.569 6.498.954 11.297.464 12.485 3.025 3.304 4.856 7.513 4.856 12.664 0 18.12-11.037 22.11-21.542 23.278 1.692 1.464 3.2 4.336 3.2 8.737 0 6.312-.054 11.393-.054 12.947 0 1.255.85 2.726 3.24 2.263C83.677 89.68 97.18 72.002 97.18 51.165 97.179 25.109 76.055 3.987 50 3.987Z" fill="#181616" style="fill:color(display-p3 .0941 .0863 .0863);fill-opacity:1"/>
    <path d="M20.69 71.723c-.103.235-.472.305-.808.145-.344-.153-.535-.473-.424-.708.101-.242.47-.308.812-.147.344.154.54.477.42.711Zm1.912 2.133c-.225.208-.665.111-.963-.22-.31-.327-.367-.767-.138-.979.233-.208.66-.11.968.219.308.333.37.768.133.98Zm1.86 2.716c-.289.201-.762.013-1.054-.406-.29-.42-.29-.925.008-1.125.291-.202.757-.02 1.054.396.288.425.288.93-.008 1.135Zm2.548 2.626c-.258.285-.81.208-1.212-.18-.412-.38-.527-.922-.268-1.206.262-.286.816-.206 1.221.18.412.38.537.921.26 1.205Zm3.516 1.524c-.115.37-.645.537-1.18.38-.534-.162-.883-.594-.773-.968.109-.372.643-.546 1.18-.379.535.161.884.591.773.967Zm3.862.282c.013.389-.44.71-1 .719-.565.013-1.022-.303-1.028-.686 0-.393.444-.71 1.008-.721.56-.01 1.02.302 1.02.687Zm3.592-.611c.067.379-.323.769-.88.873-.547.101-1.055-.135-1.125-.51-.067-.39.33-.78.877-.88.557-.096 1.057.132 1.128.517Z" fill="#181616" style="fill:color(display-p3 .0941 .0863 .0863);fill-opacity:1"/>
</svg>
