<svg width="100" height="100" fill="none" xmlns="http://www.w3.org/2000/svg">
    <path d="M14.873 88.966 7.056 1.298h85.888l-7.825 87.654-35.171 9.75-35.075-9.736Z" fill="#E44D26" style="fill:color(display-p3 .8941 .302 .149);fill-opacity:1"/>
    <path d="m50 91.25 28.42-7.88 6.687-74.904H50V91.25Z" fill="#F16529" style="fill:color(display-p3 .9451 .3961 .1608);fill-opacity:1"/>
    <path d="M50 40.98H35.772l-.983-11.01H50V19.218H23.038l.258 2.884 2.642 29.63H50V40.98Zm0 27.925-.048.013-11.974-3.234-.765-8.575H26.42l1.506 16.882 22.026 6.115.049-.014V68.905Z" fill="#EBEBEB" style="fill:color(display-p3 .9216 .9216 .9216);fill-opacity:1"/>
    <path d="M49.962 40.98v10.753h13.24l-1.247 13.944-11.992 3.237v11.187l22.042-6.11.162-1.816 2.527-28.307.261-2.888H49.963Zm0-21.762V29.97h25.972l.216-2.416.49-5.452.258-2.884H49.963Z" fill="#fff" style="fill:#fff;fill-opacity:1"/>
</svg>
