<svg width="100" height="100" viewBox="0 0 100 100" fill="none" xmlns="http://www.w3.org/2000/svg">
<g clip-path="url(#clip0_128_43)">
<path d="M86.4393 54.7873C86.4393 55.6751 86.0895 56.5262 85.4668 57.1537C84.8441 57.7812 83.9996 58.1341 83.1188 58.1341C82.238 58.1341 81.3934 57.7812 80.7707 57.1537C80.148 56.5262 79.7983 55.6751 79.7983 54.7873V24.891C79.7983 24.0034 80.148 23.1523 80.7707 22.5247C81.3934 21.8971 82.238 21.5445 83.1188 21.5445C83.9996 21.5445 84.8441 21.8971 85.4668 22.5247C86.0895 23.1523 86.4393 24.0034 86.4393 24.891V54.7873ZM85.2865 75.5022C84.8476 75.9445 72.4991 86.3157 49.8603 86.3157C27.2215 86.3157 14.9553 76 14.434 75.5572C14.1054 75.2782 13.8348 74.9362 13.6376 74.5515C13.4403 74.1664 13.3204 73.7463 13.2848 73.3144C13.2491 72.883 13.2983 72.4485 13.4296 72.0358C13.5608 71.6236 13.7716 71.241 14.0498 70.9109C14.6229 70.2428 15.4349 69.8301 16.3088 69.7624C17.1827 69.6952 18.0475 69.979 18.7148 70.5515C18.9069 70.69 29.9381 79.7057 49.8327 79.7057C69.7275 79.7057 80.841 70.6345 80.9511 70.5515C81.6258 69.9838 82.4934 69.7039 83.3694 69.7712C84.2458 69.8384 85.0616 70.2472 85.6432 70.9109C86.2031 71.5694 86.4825 72.424 86.421 73.2886C86.3594 74.1533 85.9616 74.9589 85.314 75.5297L85.2865 75.5022ZM13.254 24.891C13.3036 24.0007 13.701 23.1663 14.3591 22.5703C15.0173 21.9744 15.8828 21.6652 16.7665 21.7105C17.5856 21.7574 18.3586 22.1083 18.9362 22.6956C19.5139 23.2829 19.8554 24.065 19.8947 24.891V54.7323C19.8947 55.6196 19.5449 56.4707 18.9222 57.0983C18.2995 57.7262 17.455 58.0786 16.5744 58.0786C15.6938 58.0786 14.8492 57.7262 14.2265 57.0983C13.6038 56.4707 13.254 55.6196 13.254 54.7323V24.891ZM29.9107 18.2534C29.9603 17.3631 30.3576 16.5288 31.0158 15.9328C31.674 15.3369 32.5395 15.0277 33.4231 15.073C34.2423 15.1199 35.0153 15.4708 35.5929 16.0581C36.1706 16.6454 36.5121 17.4274 36.5514 18.2534V62.5035C36.5514 63.3913 36.2016 64.2424 35.5789 64.8699C34.9562 65.4974 34.1117 65.8498 33.231 65.8498C32.3504 65.8498 31.5059 65.4974 30.8832 64.8699C30.2605 64.2424 29.9107 63.3913 29.9107 62.5035V18.2534ZM46.6498 16.5941C46.6498 15.7066 46.9996 14.8554 47.6223 14.2278C48.245 13.6002 49.0895 13.2476 49.9699 13.2476C50.8507 13.2476 51.6952 13.6002 52.3179 14.2278C52.9406 14.8554 53.2904 15.7066 53.2904 16.5941V64.7162C53.2904 65.6035 52.9406 66.4546 52.3179 67.0825C51.6952 67.71 50.8507 68.0624 49.9699 68.0624C49.0895 68.0624 48.245 67.71 47.6223 67.0825C46.9996 66.4546 46.6498 65.6035 46.6498 64.7162V16.5941ZM63.1144 18.2534C63.1144 17.3659 63.4642 16.5148 64.0869 15.8872C64.7096 15.2596 65.5541 14.907 66.4345 14.907C67.3153 14.907 68.1598 15.2596 68.7825 15.8872C69.4052 16.5148 69.755 17.3659 69.755 18.2534V62.5035C69.755 63.3913 69.4052 64.2424 68.7825 64.8699C68.1598 65.4974 67.3153 65.8498 66.4345 65.8498C65.5541 65.8498 64.7096 65.4974 64.0869 64.8699C63.4642 64.2424 63.1144 63.3913 63.1144 62.5035V18.2534ZM87.3445 0.000276172H12.4856C10.8545 -0.0106511 9.23725 0.302791 7.72651 0.922655C6.21572 1.54252 4.84109 2.45664 3.68132 3.61266C2.52155 4.76869 1.59942 6.14389 0.967729 7.65961C0.336034 9.17528 0.00718153 10.8017 0 12.4456V87.1179C0.00718153 88.7616 0.336034 90.3882 0.967729 91.9039C1.59942 93.4192 2.52155 94.7948 3.68132 95.9507C4.84109 97.1065 6.21572 98.021 7.72651 98.6406C9.23725 99.2607 10.8545 99.5738 12.4856 99.5629H87.3445C88.9734 99.5738 90.5886 99.2616 92.0974 98.6432C93.6065 98.0253 94.9799 97.1135 96.1393 95.9603C97.2987 94.8074 98.2214 93.4354 98.8546 91.9227C99.4882 90.4105 99.8196 88.7869 99.8301 87.1454V12.4456C99.8231 10.804 99.4952 9.17991 98.8651 7.66603C98.2354 6.15214 97.3157 4.77817 96.1585 3.62248C95.0017 2.46683 93.6306 1.55213 92.1227 0.930633C90.6153 0.309132 89.0009 -0.00700367 87.3721 0.000276172" fill="white" style="fill:white;fill-opacity:1;"/>
</g>
<defs>
<clipPath id="clip0_128_43">
<rect width="100" height="99.5633" fill="white" style="fill:white;fill-opacity:1;"/>
</clipPath>
</defs>
</svg>
