<svg width="100" height="100" fill="none" xmlns="http://www.w3.org/2000/svg">
    <path d="M1.1 1.1h97.8v97.8H1.1V1.1Z" fill="#F0DB4F" style="fill:color(display-p3 .9412 .8588 .3098);fill-opacity:1"/>
    <path d="M90.896 75.575c-.716-4.462-3.626-8.21-12.244-11.704-2.993-1.376-6.33-2.36-7.325-4.63-.354-1.32-.4-2.064-.177-2.863.641-2.594 3.737-3.402 6.191-2.658 1.58.53 3.077 1.747 3.98 3.69 4.22-2.733 4.211-2.715 7.158-4.593-1.079-1.672-1.655-2.444-2.361-3.16-2.538-2.835-5.997-4.295-11.528-4.183l-2.881.372c-2.761.698-5.393 2.147-6.936 4.09-4.63 5.253-3.309 14.447 2.325 18.23 5.55 4.166 13.703 5.114 14.744 9.01 1.014 4.768-3.504 6.312-7.995 5.763-3.31-.688-5.15-2.37-7.14-5.429-3.662 2.12-3.662 2.12-7.428 4.285.893 1.953 1.831 2.836 3.328 4.528 7.084 7.186 24.813 6.833 27.992-4.044.13-.373.985-2.864.297-6.704ZM54.267 46.05H45.12l-.037 23.65c0 5.03.26 9.64-.558 11.054-1.338 2.78-4.806 2.435-6.386 1.896-1.61-.79-2.427-1.915-3.375-3.504-.26-.456-.455-.809-.52-.836l-7.438 4.554c1.236 2.539 3.058 4.742 5.392 6.173 3.486 2.092 8.171 2.734 13.071 1.609 3.189-.93 5.94-2.853 7.381-5.782 2.083-3.84 1.636-8.488 1.617-13.629.047-8.386.001-16.771.001-25.185Z" fill="#323330" style="fill:color(display-p3 .1961 .2 .1882);fill-opacity:1"/>
</svg>
