<svg width="100" height="40" fill="none" xmlns="http://www.w3.org/2000/svg">
    <path fill-rule="evenodd" clip-rule="evenodd" d="M89.245 10.736a.663.663 0 0 0-.631-.476h-6.17a.663.663 0 0 0-.63.476l-7.783 25.426a.698.698 0 0 0 .097.607.654.654 0 0 0 .533.279h4.247a.663.663 0 0 0 .634-.489l5.36-18.699s.14-.467.625-.467c.494 0 .614.486.614.486l2.487 8.868H85.21a.664.664 0 0 0-.636.496l-.959 3.51a.696.696 0 0 0 .11.596.655.655 0 0 0 .527.27h5.766l1.498 4.95a.663.663 0 0 0 .631.479h4.25a.653.653 0 0 0 .532-.278c.125-.175.161-.401.098-.608l-7.784-25.425" fill="#264970" style="fill:color(display-p3 .149 .2863 .4392);fill-opacity:1"/>
    <path fill-rule="evenodd" clip-rule="evenodd" d="M60.233 15.21h5.141c2.659 0 3.193 1.078 3.193 2.817v2.597c0 2.164-.806 2.895-3.193 2.895h-5.141V15.21ZM75.93 35.925l-5.649-8.393c2.432-1.04 3.665-3.218 3.665-6.474v-3.424c0-5.099-2.585-7.373-8.381-7.373h-10.05a.671.671 0 0 0-.662.68v25.426c0 .377.296.681.661.681h4.058a.671.671 0 0 0 .661-.68v-7.974h4.152l5.648 8.362a.656.656 0 0 0 .543.292h4.853a.671.671 0 0 0 .66-.68.688.688 0 0 0-.159-.443ZM49.924 10.26h-4.058a.671.671 0 0 0-.66.68v25.426c0 .377.295.681.66.681h4.058a.671.671 0 0 0 .661-.68V10.94a.67.67 0 0 0-.661-.68Zm-9.503 0h-4.107a.64.64 0 0 0-.63.649v19.895c0 2.5-1.85 3.323-3.102 3.388a.646.646 0 0 0-.556.836l.999 3.346c.081.273.368.45.834.45 3.93 0 7.192-3.178 7.192-7.437V10.909a.659.659 0 0 0-.185-.459.62.62 0 0 0-.445-.19M8.618 3.325c-1.261 0-2.283 1.051-2.283 2.354 0 1.3 1.022 2.354 2.283 2.354 1.262 0 2.284-1.054 2.284-2.354 0-1.302-1.021-2.354-2.284-2.354ZM23.62 3.324c-1.262 0-2.282 1.051-2.282 2.354 0 1.3 1.02 2.355 2.283 2.355 1.259 0 2.283-1.055 2.283-2.355 0-1.302-1.024-2.352-2.283-2.354Zm-7.5-2.147c-1.262 0-2.284 1.05-2.284 2.353 0 1.3 1.022 2.355 2.283 2.355 1.262 0 2.284-1.055 2.284-2.355 0-1.303-1.02-2.353-2.284-2.353Zm12.899 8.706a.704.704 0 0 0-.69-.102 34.504 34.504 0 0 1-4.55 1.415.903.903 0 0 0-.626.563c-1.044 2.945-3.71 5.75-6.507 8.688-.112.11-.27.254-.526.254s-.41-.14-.525-.254c-2.797-2.938-5.463-5.733-6.507-8.679a.905.905 0 0 0-.626-.562 34.537 34.537 0 0 1-4.552-1.43.701.701 0 0 0-.688.101.746.746 0 0 0-.278.651c.237 2.45 1.177 4.844 2.873 7.353 1.594 2.36 3.674 4.543 5.684 6.655 3.705 3.891 7.204 7.567 7.51 11.829a.725.725 0 0 0 .715.682h4.352a.707.707 0 0 0 .518-.23.75.75 0 0 0 .197-.544c-.137-2.849-1.178-5.703-3.184-8.722-.42-.633-.87-1.249-1.34-1.852a.547.547 0 0 1 .035-.704l.436-.459c2.01-2.112 4.09-4.295 5.684-6.654 1.696-2.51 2.635-4.89 2.872-7.34a.766.766 0 0 0-.277-.659ZM11.45 27.851a.655.655 0 0 0-.508-.224c-.325 0-.518.231-.59.346-1.831 2.869-2.776 5.577-2.907 8.298a.758.758 0 0 0 .197.546.715.715 0 0 0 .52.23h4.345a.73.73 0 0 0 .716-.685c.095-1.312.492-2.626 1.213-4.008.25-.478.056-.927-.088-1.119-.716-.959-1.593-1.982-2.898-3.384Z" fill="#264970" style="fill:color(display-p3 .149 .2863 .4392);fill-opacity:1"/>
    <path fill-rule="evenodd" clip-rule="evenodd" d="m16.124 12.08 2.433-.085c.337 0 .659.284.659.682a.743.743 0 0 1-.054.272c-.18.498-1.005 2.29-2.54 3.827a.689.689 0 0 1-.502.205h-.002a.687.687 0 0 1-.5-.205c-1.536-1.536-2.36-3.328-2.54-3.826a.743.743 0 0 1-.054-.273c0-.397.322-.682.66-.682l2.44.085" fill="#264970" style="fill:color(display-p3 .149 .2863 .4392);fill-opacity:1"/>
</svg>
