<svg width="100" height="100" fill="none" xmlns="http://www.w3.org/2000/svg">
    <path d="M84.393 12.5H48.285c0 9 7.285 16.288 16.287 16.288h6.64v6.426c0 9 7.288 16.288 16.288 16.288V15.607a3.11 3.11 0 0 0-3.107-3.107Z" fill="#2684FF" style="fill:color(display-p3 .149 .5176 1);fill-opacity:1"/>
    <path d="M66.5 30.5H30.393c0 9 7.285 16.287 16.285 16.287h6.643v6.426c0 9 7.288 16.288 16.288 16.288V33.606A3.111 3.111 0 0 0 66.5 30.5Z" fill="url(#a)"/>
    <path d="M48.609 48.498H12.5c0 9.004 7.284 16.288 16.288 16.288h6.64v6.43c0 9 7.288 16.284 16.287 16.284V51.609a3.112 3.112 0 0 0-3.106-3.11Z" fill="url(#b)"/>
    <defs>
        <linearGradient id="a" x1="68.856" y1="30.541" x2="53.494" y2="46.381" gradientUnits="userSpaceOnUse">
            <stop offset=".176" stop-color="#0052CC" style="stop-color:color(display-p3 0 .3216 .8);stop-opacity:1"/>
            <stop offset="1" stop-color="#2684FF" style="stop-color:color(display-p3 .149 .5176 1);stop-opacity:1"/>
        </linearGradient>
        <linearGradient id="b" x1="52.003" y1="48.638" x2="34.241" y2="65.919" gradientUnits="userSpaceOnUse">
            <stop offset=".176" stop-color="#0052CC" style="stop-color:color(display-p3 0 .3216 .8);stop-opacity:1"/>
            <stop offset="1" stop-color="#2684FF" style="stop-color:color(display-p3 .149 .5176 1);stop-opacity:1"/>
        </linearGradient>
    </defs>
</svg>
