<svg width="100" height="100" fill="none" xmlns="http://www.w3.org/2000/svg">
    <path d="M7.52 25.141c-8.617 12.384-7.544 28.497-.962 41.657.156.315.32.626.482.936l.308.593.192.341.343.614c.204.36.414.719.628 1.077l.359.591c.237.384.48.763.728 1.14l.311.48c.343.512.694 1.023 1.057 1.525l.03.039.178.24c.314.432.636.859.963 1.28l.362.462c.292.366.588.73.89 1.093l.34.406c.405.478.818.95 1.238 1.416l.026.025.048.053c.413.449.833.891 1.259 1.328l.404.407c.33.333.666.66 1.005.986l.412.39c.453.428.911.846 1.378 1.256l.022.017.24.205c.412.356.83.71 1.252 1.057l.519.413c.345.277.693.548 1.044.816l.558.424c.387.285.777.566 1.17.84l.427.302.117.084c.374.257.756.504 1.138.752l.492.328c.586.37 1.18.737 1.78 1.09l.493.278c.441.255.886.505 1.336.75.244.13.494.255.739.38.318.167.633.336.957.497l.22.107.392.19c.501.239 1.006.474 1.516.7l.32.144c.585.256 1.174.5 1.768.735l.43.17c.55.211 1.108.42 1.669.618l.209.072c.615.215 1.235.414 1.86.609l.45.134c.635.192 1.264.42 1.92.542 41.67 7.599 53.776-25.042 53.776-25.042C86.145 83.933 68.1 87.427 51.002 83.537c-.648-.146-1.276-.349-1.908-.535l-.475-.145a56.71 56.71 0 0 1-1.838-.598l-.252-.091a56.478 56.478 0 0 1-1.62-.6l-.455-.18a51.127 51.127 0 0 1-1.75-.727l-.349-.155a72.835 72.835 0 0 1-1.476-.686l-.426-.205c-.384-.187-.763-.385-1.142-.58-.253-.134-.51-.26-.761-.399-.46-.248-.917-.504-1.368-.767l-.462-.258c-.6-.354-1.193-.718-1.781-1.091l-.48-.32a46.21 46.21 0 0 1-1.269-.844l-.407-.286a70.625 70.625 0 0 1-1.199-.867l-.53-.401a50.705 50.705 0 0 1-1.082-.846l-.482-.386a64.78 64.78 0 0 1-1.346-1.136l-.148-.124c-.478-.422-.95-.85-1.416-1.287l-.399-.383a43.904 43.904 0 0 1-1.017-.998l-.399-.397c-.423-.434-.84-.874-1.248-1.32l-.062-.066c-.43-.473-.853-.953-1.266-1.441l-.331-.394a55.003 55.003 0 0 1-.912-1.126l-.334-.416c-.357-.462-.708-.93-1.052-1.401-9.492-12.949-12.903-30.807-5.316-45.472m20.022-1.902c-6.232 8.967-5.893 20.972-1.032 30.456a39.51 39.51 0 0 0 2.756 4.6c.934 1.339 1.97 2.93 3.208 4.006.453.496.92.98 1.399 1.451l.368.364a40.5 40.5 0 0 0 1.428 1.326l.058.05.014.014c.545.474 1.1.935 1.668 1.38l.38.296c.57.44 1.151.864 1.744 1.274l.05.038c.263.182.53.35.797.525l.377.25c.425.272.855.538 1.293.793l.184.106c.377.217.759.431 1.143.639l.407.212c.264.138.53.28.799.414l.12.054c.55.27 1.104.532 1.67.778l.368.151c.453.193.91.38 1.368.555l.585.215c.417.155.835.295 1.256.437l.568.182c.6.186 1.191.42 1.816.525 32.174 5.33 39.602-19.443 39.602-19.443C91.966 56 78.998 60.6 65.16 57.008a39.33 39.33 0 0 1-1.822-.527l-.548-.177a35.325 35.325 0 0 1-1.274-.44l-.575-.213c-.46-.177-.917-.361-1.372-.553l-.37-.157a37.262 37.262 0 0 1-1.677-.78c-.284-.138-.563-.284-.843-.428l-.486-.25a34.8 34.8 0 0 1-1.064-.602l-.255-.144a37.215 37.215 0 0 1-1.29-.788l-.389-.26c-.28-.18-.559-.364-.835-.551a44.85 44.85 0 0 1-1.74-1.272l-.39-.309C44.173 44.776 39.373 38.24 37.09 30.83c-2.393-7.685-1.877-16.311 2.268-23.313m17.404-.605c-3.673 5.406-4.034 12.12-1.485 18.09 2.688 6.339 8.196 11.31 14.625 13.668.265.098.53.185.799.277l.352.112c.379.118.755.257 1.146.33 17.766 3.434 22.584-9.116 23.866-10.963-4.22 6.077-11.314 7.536-20.018 5.423a22.15 22.15 0 0 1-2.105-.65 25.964 25.964 0 0 1-2.5-1.038 25.955 25.955 0 0 1-4.385-2.675c-7.789-5.91-12.627-17.183-7.545-26.363" fill="#0868AC" style="fill:color(display-p3 .0314 .4078 .6745);fill-opacity:1"/>
</svg>
