<svg width="100" height="36" viewBox="0 0 100 36" fill="none" xmlns="http://www.w3.org/2000/svg">
<path fill-rule="evenodd" clip-rule="evenodd" d="M88.1764 21.2677L85.7843 18.6274L83.3922 21.2677L71.5686 34.3137H76.3528L85.7843 23.9058L95.218 34.3137H100L88.1764 21.2677Z" fill="#E53835" style="fill:#E53835;fill:color(display-p3 0.8980 0.2196 0.2078);fill-opacity:1;"/>
<path fill-rule="evenodd" clip-rule="evenodd" d="M95.1505 0.980408L85.7842 11.313L76.4206 0.980408H71.5686L83.3584 13.9887L85.7842 16.6667L88.2104 13.9887L100 0.980408H95.1505Z" fill="#E53835" style="fill:#E53835;fill:color(display-p3 0.8980 0.2196 0.2078);fill-opacity:1;"/>
<path fill-rule="evenodd" clip-rule="evenodd" d="M39.8825 27.3004C42.3335 29.8235 45.7233 31.485 49.2491 31.485C53.7204 31.485 56.3717 29.2588 56.3717 25.9508C56.3717 22.4736 53.904 21.3648 50.688 19.961L45.7936 17.8038C42.6192 16.4496 38.8945 14.0446 38.8945 9.03667C38.8945 3.83555 43.4297 0 49.6204 0C53.6589 0 57.2597 1.74778 59.6529 4.21822L57.2488 6.9039C55.183 4.99215 52.7162 3.80888 49.6204 3.80888C45.7994 3.80888 43.2686 5.73477 43.2686 8.78039C43.2686 12.0607 46.2395 13.2871 48.9084 14.4145L53.7643 16.5148C57.7069 18.2076 60.7843 20.5556 60.7843 25.618C60.7843 30.9968 56.336 35.2941 49.1728 35.2941C44.3907 35.2941 40.2327 33.3443 37.2549 30.2398L39.8825 27.3004Z" fill="#88898C" style="fill:#88898C;fill:color(display-p3 0.5333 0.5373 0.5490);fill-opacity:1;"/>
<path fill-rule="evenodd" clip-rule="evenodd" d="M17.3724 1.12512C17.3724 1.12512 17.3342 17.7548 17.3342 21.8844C17.3342 27.1597 14.9594 29.2016 14.883 29.282C12.1721 32.1096 7.53981 32.326 4.64489 29.6979C3.89156 29.0139 3.21283 28.2775 2.57116 27.5997L0 30.5432C0.523938 31.1042 0.869036 31.4975 1.48554 32.1295C3.66307 34.3626 6.50743 35.5086 9.3336 35.5388C12.1595 35.5687 15.6415 34.4829 17.746 32.3112C17.7638 32.2928 17.7815 32.2746 17.7993 32.2566C17.8981 32.1553 21.5244 28.6968 21.5423 22.6216V1.12512H17.3724Z" fill="#88898C" style="fill:#88898C;fill:color(display-p3 0.5333 0.5373 0.5490);fill-opacity:1;"/>
</svg>
