<svg width="100" height="45" fill="none" xmlns="http://www.w3.org/2000/svg">
    <g clip-path="url(#a)" fill-rule="evenodd" clip-rule="evenodd">
        <path d="M91.832 19.608H8.693V9.375c0-4.437 3.596-8.068 7.99-8.068h67.16c4.394 0 7.99 3.631 7.99 8.068v10.233Z" fill="url(#b)"/>
        <path d="M91.832 19.608H8.693V35.07c0 4.437 3.596 8.068 7.99 8.068h67.16c4.394 0 7.99-3.63 7.99-8.068V19.608Z" fill="url(#c)"/>
        <path d="M78.066 21.687c3.536 1.24 5.302 3.363 5.302 6.367 0 1.978-.732 3.547-2.195 4.708-1.462 1.16-3.545 1.883-6.258 1.883-2.712 0-5.222-.788-7.533-2.08.025-.686.206-1.438.538-2.255.332-.816.725-1.465 1.176-1.939 2.124 1.106 3.972 1.66 5.541 1.66.742 0 1.315-.124 1.715-.376.4-.251.599-.586.599-1.008 0-.793-.613-1.386-1.836-1.781l-2.195-.83c-3.32-1.213-4.981-3.19-4.981-5.934 0-2.004.697-3.593 2.092-4.768 1.395-1.175 3.275-2.183 5.64-2.183 1.17 0 2.457.164 3.867.494 1.409.33 2.564 1.143 3.468 1.59.053.74-.095 1.55-.439 2.433-.343.884-.77 1.51-1.277 1.88-2.233-1.003-4.092-1.504-5.58-1.504-.534 0-.936.119-1.218.357a1.14 1.14 0 0 0-.415.91c0 .633.504 1.133 1.514 1.503l2.475.873Zm-17.643 0c3.536 1.24 5.303 3.363 5.303 6.367 0 1.978-.733 3.547-2.193 4.708-1.46 1.16-3.548 1.883-6.26 1.883-2.712 0-5.223-.788-7.533-2.08.025-.686.206-1.438.538-2.255.333-.816.724-1.465 1.176-1.939 2.126 1.106 3.974 1.66 5.542 1.66.742 0 1.316-.124 1.714-.376.398-.251.599-.586.599-1.008 0-.793-.613-1.386-1.836-1.781l-2.193-.83c-3.322-1.213-4.983-3.19-4.983-5.934 0-2.004.697-3.593 2.094-4.768 1.397-1.175 3.274-2.183 5.638-2.183 1.17 0 2.46.164 3.866.494 1.407.33 2.565 1.143 3.469 1.59.053.74-.095 1.55-.438 2.433-.344.884-.77 1.51-1.277 1.88-2.234-1.003-4.093-1.504-5.583-1.504-.532 0-.935.119-1.215.357a1.134 1.134 0 0 0-.417.91c0 .633.505 1.133 1.516 1.503l2.473.873Zm-12.894.274c0-1.212-.192-2.333-.578-3.362a7.552 7.552 0 0 0-1.654-2.65c-.717-.74-1.587-1.32-2.61-1.742-1.023-.422-2.174-1.056-3.449-1.056-1.515 0-2.837.687-3.966 1.215s-2.06 1.252-2.79 2.175c-.73.924-1.276 2.011-1.635 3.264-.359 1.253-.538 2.617-.538 4.094 0 1.527.146 2.94.438 4.233.293 1.292.791 2.41 1.495 3.361.704.95 1.621 1.687 2.75 2.213a9.865 9.865 0 0 0 4.206.932c3.083 0 5.687-.894 7.813-2.396-.21-1.528-.754-2.743-1.627-3.64-1.086.408-2.046.701-2.88.881-.832.18-1.569.267-2.203.267-1.271 0-2.186-.324-2.74-.979-.555-.654-.859-1.422-.913-2.594h10.364c.343-1.109.516-2.608.516-4.217l.001.001Zm-10.919.274c.079-1.346.324-2.786.732-3.379s1.034-.89 1.879-.89c.87 0 1.523.315 1.957.948.434.634.653 1.909.653 2.885v.436h-5.22Z" fill="#F6F6F6" style="fill:color(display-p3 .9647 .9647 .9647);fill-opacity:1"/>
        <path d="M94.302 24.863c-1.127.987-1.78 2.407-1.78 4.263v6.913c0 2.298-.706 4.046-2.297 5.248-1.591 1.202-3.444 1.794-5.56 1.851l-1.255-.009v-3.445c1.106-.323 1.56-.699 2-1.126.797-.722 1.407-1.897 1.407-3.53v-5.58c.03-1.897.176-3.384.865-4.457.689-1.074 2.037-2.013 4.037-2.824-2.21-1.014-3.693-2.338-4.45-3.97-.444-.97-.453-2.28-.453-3.927V9.152c0-1.69-.552-2.875-1.23-3.55-.442-.442-.956-.795-2.178-1.06V1.307h3.12c1.34-.01 2.463.724 3.44 1.49 1.064.839 1.82 1.973 2.264 3.4.252.825.288 1.613.288 2.364v5.92c0 2.09.616 3.644 1.67 4.66.593.588 1.43 1.126 2.869 1.613v2.674c-1.275.353-2.075.831-2.757 1.435Z" fill="#F6F6F6" stroke="#404040" style="fill:color(display-p3 .9647 .9647 .9647);fill-opacity:1;stroke:color(display-p3 .251 .251 .251);stroke-opacity:1" stroke-width="2" stroke-linecap="round" stroke-linejoin="round"/>
        <path d="M28.277 29.36H27.2c-1.17 0-1.61-.616-1.61-1.855V4.743c0-1.37-.396-2.33-.9-2.884-.506-.553-1.382-.546-2.63-.546h-2.432l-.286-.006v.024l-.003 3.387v23.889c0 1.9.426 3.29 1.184 4.174.758.885 2.04 1.324 3.847 1.324 1.25 0 2.672-.131 4.265-.396.08-.267.12-.838.12-1.714s-.16-1.755-.478-2.635Z" fill="#F6F6F6" style="fill:color(display-p3 .9647 .9647 .9647);fill-opacity:1"/>
        <path d="M15.024 1.308v.004l-1.126-.003c-1.341-.012-2.464.722-3.44 1.488-1.066.84-1.978 1.935-2.263 3.401-.163.86-.129 1.612-.129 2.363v5.92c0 2.09-.776 3.643-1.828 4.659-.592.589-1.858 1.127-3.297 1.612v2.674c1.276.353 2.503.83 3.184 1.436 1.127.987 1.94 2.408 1.94 4.264v6.912c0 2.297.546 4.047 2.136 5.246 1.59 1.2 3.444 1.796 5.56 1.854l1.417-.01v-3.446c-1.105-.324-1.718-.7-2.16-1.126-.797-.722-1.248-1.897-1.248-3.528v-5.581c-.03-1.899-.335-3.384-1.025-4.458-.69-1.075-2.036-2.013-4.038-2.823 2.21-1.015 3.693-2.338 4.449-3.97.445-.971.614-2.28.614-3.926V9.152c0-1.691.392-2.875 1.07-3.552.368-.367 1.022-.67 1.931-.914l1.438.01V1.307h-3.184v0h-.001Z" fill="#F6F6F6" stroke="#404040" style="fill:color(display-p3 .9647 .9647 .9647);fill-opacity:1;stroke:color(display-p3 .251 .251 .251);stroke-opacity:1" stroke-width="2" stroke-linecap="round" stroke-linejoin="round"/>
    </g>
    <defs>
        <linearGradient id="b" x1="4165.66" y1="1831.42" x2="4165.66" y2="1.307" gradientUnits="userSpaceOnUse">
            <stop stop-color="#294E82" style="stop-color:color(display-p3 .1608 .3059 .5098);stop-opacity:1"/>
            <stop offset="1" stop-color="#2A4F84" style="stop-color:color(display-p3 .1647 .3098 .5176);stop-opacity:1"/>
        </linearGradient>
        <linearGradient id="c" x1="4165.66" y1="2372.61" x2="4165.66" y2="19.608" gradientUnits="userSpaceOnUse">
            <stop stop-color="#172F50" style="stop-color:color(display-p3 .0902 .1843 .3137);stop-opacity:1"/>
            <stop offset="1" stop-color="#294E82" style="stop-color:color(display-p3 .1608 .3059 .5098);stop-opacity:1"/>
        </linearGradient>
        <clipPath id="a">
            <path fill="#fff" style="fill:#fff;fill-opacity:1" d="M0 0h100v44.446H0z"/>
        </clipPath>
    </defs>
</svg>
