<svg width="100" height="100" viewBox="0 0 100 100" fill="none" xmlns="http://www.w3.org/2000/svg">
<path d="M70.8789 47.5586C71.4844 47.4805 72.0898 47.4805 72.6953 47.5586C73.0273 46.8164 73.0859 45.5078 72.793 44.1211C72.3633 42.0313 71.7578 40.7617 70.5469 40.957C69.3359 41.1524 69.2773 42.6758 69.7265 44.7656C69.9414 45.918 70.3906 46.9336 70.8789 47.5586ZM60.3906 49.2188C61.2695 49.6094 61.7969 49.8633 62.0117 49.6289C62.3828 49.2578 61.3281 47.793 59.6484 47.0703C57.6562 46.25 55.3906 46.5234 53.6523 47.793C53.0664 48.2227 52.5195 48.8086 52.5976 49.1797C52.7734 49.9024 54.5508 48.6524 57.0312 48.4961C58.3789 48.3985 59.5117 48.8281 60.3906 49.2188ZM58.6328 50.2149C56.8555 50.4883 55.7031 51.4844 55.9961 52.1875C56.1719 52.2461 56.2305 52.3438 57.0117 52.0313C58.1836 51.582 59.4336 51.4649 60.6836 51.6406C61.25 51.6992 61.5234 51.7383 61.6601 51.543C61.9141 51.1328 60.5273 50 58.6328 50.2149ZM69.2187 53.5742C69.8828 52.2266 67.0898 50.8399 66.4258 52.207C65.7617 53.5547 68.5742 54.9219 69.2187 53.5742ZM72.2851 49.5703C70.7812 49.5508 70.7226 52.6563 72.2265 52.6953C73.75 52.6953 73.8086 49.5899 72.2851 49.5703ZM29.4726 65C29.2187 65.0586 28.3008 65.293 27.8125 64.5313C26.7969 62.9688 29.9805 60.5469 28.3984 57.5195C26.6211 54.1016 22.9492 54.8633 21.543 56.4258C19.8437 58.3008 19.8437 61.0352 20.5664 61.1328C21.4062 61.25 21.3672 59.8633 22.0117 58.8477C22.7734 57.6758 24.3164 57.3438 25.4883 58.1055C25.4883 58.1055 25.5078 58.1055 25.5078 58.125C27.7734 59.6094 25.7812 61.6016 25.957 63.7305C26.2305 66.9922 29.5703 66.9336 30.1758 65.4883C30.2539 65.3516 30.2344 65.1563 30.1367 65.0391C30.1367 65.2539 30.2539 64.8242 29.4726 65ZM88.1445 61.6602C87.4805 59.3555 87.6367 59.8633 86.8164 57.6367C87.3047 56.9141 89.8047 52.9297 86.2109 49.1797C84.1797 47.0508 79.5703 45.9375 78.1641 45.5469C77.8711 43.3203 79.082 34.0625 73.9453 29.2969C78.0078 25.0781 80.5469 20.4297 80.5469 16.4453C80.5273 8.78907 71.1133 6.46485 59.5117 11.2695L57.0508 12.3047C57.0312 12.2852 52.5976 7.94923 52.539 7.89064C39.3359 -3.6328 -2.03126 42.3242 11.1914 53.4961L14.082 55.9375C13.3008 58.0274 13.0273 60.2735 13.2812 62.5C13.9453 69.043 20.332 74.336 26.5039 74.3164C37.8125 100.371 78.9453 100.41 89.5898 74.9024C89.9219 74.0235 91.3672 70.0781 91.3672 66.6016C91.3672 63.125 89.3945 61.6602 88.1445 61.6602ZM26.2695 71.0938C21.7969 70.9766 16.9726 66.9531 16.5039 62.1875C15.293 50.1953 31.0351 47.461 32.9492 59.7656C33.8476 65.5664 32.0312 71.211 26.2695 71.0938ZM22.6562 48.7305C19.6875 49.3164 17.0703 50.9961 15.4687 53.3203C14.5117 52.5195 12.7344 50.9766 12.4219 50.3906C9.8828 45.5274 15.2148 36.0938 18.9453 30.7813C28.164 17.6172 42.5976 7.65626 49.2969 9.45314C50.3906 9.76564 53.9844 13.9258 53.9844 13.9258C53.9844 13.9258 47.3047 17.6367 41.1133 22.8125C32.7344 29.2578 26.4258 38.5938 22.6562 48.7305ZM69.414 68.5352C69.414 68.5352 62.4219 69.5703 55.8008 67.1485C57.0117 63.2031 61.0937 68.3399 74.668 64.4531C77.6562 63.5938 81.582 61.9141 84.6484 59.4922C85.3125 61.0156 85.7812 62.6172 86.0351 64.2383C86.7578 64.1016 88.8281 64.1406 88.2812 67.7735C87.6367 71.6602 85.9765 74.8242 83.2031 77.7344C81.4648 79.6094 79.3945 81.1719 77.1094 82.3047C75.8398 82.9688 74.4922 83.5352 73.125 83.9844C62.6562 87.4024 51.9336 83.6524 48.457 75.5664C48.1836 74.9414 47.9492 74.3164 47.7539 73.6524C46.289 68.3203 47.539 61.9336 51.4453 57.9102C51.6797 57.6563 51.9336 57.3438 51.9336 56.9727C51.8945 56.6406 51.7773 56.3281 51.5625 56.0742C50.1953 54.082 45.4492 50.7031 46.4062 44.1602C47.0898 39.4531 51.1914 36.1524 55.039 36.3477L56.0156 36.4063C57.6758 36.5039 59.1211 36.7188 60.4883 36.7774C62.7734 36.875 64.8437 36.543 67.2656 34.5117C68.0859 33.8281 68.75 33.2227 69.8633 33.0469C70.7812 32.8125 71.7383 32.9883 72.5195 33.4766C74.4726 34.7852 74.7461 37.9297 74.8437 40.2344C74.9023 41.543 75.0586 44.7461 75.1172 45.6445C75.2344 47.7344 75.7812 48.0274 76.8945 48.3789C77.5195 48.5938 78.1055 48.7305 78.9453 48.9844C81.5234 49.707 83.0469 50.4492 84.043 51.3867C84.5508 51.875 84.8633 52.5195 84.9805 53.2031C85.293 55.4297 83.2617 58.1836 77.8711 60.6641C68.7305 64.9024 59.5312 63.4961 58.2031 63.3399C54.2578 62.8125 52.0117 67.9102 54.375 71.3867C58.8086 77.9297 78.3398 75.293 84.0039 67.207C84.1406 67.0117 84.0234 66.8945 83.8672 67.0117C75.6836 72.5977 64.8633 74.4922 58.7109 72.1094C57.7734 71.7383 55.8203 70.8399 55.5859 68.8477C64.1211 71.4844 69.4922 68.9844 69.4922 68.9844C69.4922 68.9844 69.9219 68.4766 69.414 68.5352ZM39.6875 30.7227C42.9687 26.9336 46.9922 23.6328 50.625 21.7969C50.6836 21.7578 50.7812 21.7774 50.8203 21.8555C50.8398 21.8945 50.8398 21.9531 50.8203 21.9922C50.5273 22.5195 49.9805 23.6328 49.8047 24.4727C49.7851 24.5508 49.8437 24.6289 49.9219 24.6484C49.9609 24.668 50 24.6484 50.0391 24.6289C52.2851 23.1055 56.2109 21.4453 59.6289 21.25C59.707 21.25 59.7851 21.3086 59.7851 21.3867C59.7851 21.4453 59.7656 21.4844 59.7265 21.5234C59.1601 21.9531 58.6523 22.4609 58.2226 23.0469C58.1836 23.1055 58.1836 23.2031 58.2617 23.2422C58.2812 23.2617 58.3203 23.2617 58.3398 23.2617C60.7422 23.2813 64.1406 24.1211 66.3672 25.3711C66.5234 25.4492 66.4062 25.7422 66.25 25.7031C52.6367 22.5781 42.1484 29.3359 39.9219 30.957C39.8437 30.9961 39.7656 30.9766 39.707 30.918C39.6484 30.8399 39.6484 30.7617 39.6875 30.7227Z" fill="black" style="fill:black;fill-opacity:1;"/>
</svg>
