<svg width="100" height="32" fill="none" xmlns="http://www.w3.org/2000/svg">
    <path fill-rule="evenodd" clip-rule="evenodd" d="M3.163 27.063c0-2.214 1.824-3.997 4.09-3.997 2.265 0 4.088 1.783 4.088 3.997s-1.823 3.996-4.089 3.996c-2.265 0-4.089-1.782-4.089-3.996Zm15.957.043c0-1.566 1.29-2.827 2.892-2.827 1.602 0 2.892 1.261 2.892 2.827s-1.29 2.827-2.892 2.827c-1.602 0-2.892-1.261-2.892-2.827Zm13.745 0c0-.71.586-1.283 1.314-1.283.727 0 1.312.572 1.312 1.283s-.585 1.284-1.312 1.284c-.728 0-1.314-.573-1.314-1.284ZM21.233 18.69c-.72 0-1.251-.546-1.251-1.223v-5.205c0-1.795-.88-3.175-2.85-3.175-1.97 0-3.168 1.484-3.168 3.202v5.178c0 .677-.479 1.223-1.251 1.223-.745 0-1.251-.546-1.251-1.223v-5.205c0-1.795-.959-3.175-2.929-3.175-2.023 0-3.088 1.484-3.088 3.202v5.178c0 .677-.506 1.223-1.252 1.223-.719 0-1.251-.546-1.251-1.223V8.228c0-.73.479-1.25 1.251-1.25.852 0 1.252.573 1.252 1.25v.832c.718-1.379 2.183-2.186 3.754-2.186 1.917 0 3.354.937 4.074 2.316 1.038-1.561 2.555-2.316 4.446-2.316 3.221 0 4.766 2.16 4.766 5.205v5.387c0 .676-.506 1.223-1.251 1.223h-.001Zm4.766-16.343c.799 0 1.464.65 1.464 1.431S26.798 5.21 26 5.21c-.8 0-1.465-.65-1.465-1.432 0-.78.666-1.43 1.465-1.43Zm0 16.343c-.746 0-1.252-.546-1.252-1.223V8.201c0-.676.533-1.223 1.252-1.223s1.251.546 1.251 1.223v9.265c0 .677-.506 1.223-1.251 1.223Zm8.306-7.495 3.169-3.852a1.062 1.062 0 0 1 .825-.364c.692 0 1.145.442 1.145 1.067 0 .234-.08.468-.293.702l-3.488 4.06 3.541 4.086c.187.208.293.416.293.729 0 .599-.532 1.067-1.118 1.067-.373 0-.666-.13-.879-.391l-3.195-3.877-3.195 3.877c-.213.26-.506.39-.879.39-.585 0-1.118-.468-1.118-1.066 0-.313.107-.52.293-.729l3.541-4.086-3.488-4.059c-.213-.235-.293-.469-.293-.702 0-.625.453-1.067 1.145-1.067a1.062 1.062 0 0 1 .825.364l3.169 3.851Zm13.659 7.6a4.812 4.812 0 0 1-4.1-2.238v5.777c0 .677-.507 1.223-1.252 1.223s-1.251-.547-1.251-1.223V8.201c0-.676.426-1.223 1.198-1.223.771 0 1.224.573 1.224 1.25v.884c.799-1.353 2.396-2.238 4.18-2.238 3.062 0 5.565 2.498 5.565 5.96 0 3.59-2.503 5.959-5.565 5.959Zm-.506-9.89c-2.157 0-3.594 1.848-3.594 3.93s1.438 3.93 3.594 3.93c2.156 0 3.567-1.588 3.567-3.93s-1.41-3.93-3.567-3.93Zm19.276 8.562c0 .677-.479 1.223-1.251 1.223-.746 0-1.224-.546-1.224-1.223v-.573c-.746 1.093-2.157 1.9-3.887 1.9-3.728 0-5.884-2.654-5.884-5.96 0-3.252 2.396-5.959 6.15-5.959 3.834 0 6.097 2.447 6.097 5.96v4.632Zm-6.123-8.51c-2.13 0-3.622 1.744-3.622 3.878 0 2.238 1.252 3.878 3.622 3.878 2.21 0 3.62-1.848 3.62-3.878 0-2.394-1.49-3.878-3.62-3.878Zm13.658-2.081c3.221 0 5.59 2.394 5.59 5.439v5.152c0 .677-.558 1.223-1.25 1.223-.693 0-1.252-.546-1.252-1.223v-5.439c0-1.64-1.331-2.915-3.088-2.915-1.757 0-3.062 1.275-3.062 2.915v5.439c0 .677-.56 1.223-1.252 1.223s-1.251-.546-1.251-1.223v-5.152c0-3.045 2.343-5.44 5.565-5.44Zm18.61 5.985c0 .416-.24.833-.958.833h-7.96c.132 1.795 1.384 3.148 3.594 3.148 1.384 0 2.21-.468 3.088-1.275.213-.208.506-.39.825-.39.56 0 1.04.39 1.04 1.014 0 .26-.134.494-.32.703-1.012 1.144-2.823 1.9-4.74 1.9-3.967 0-6.07-2.707-6.07-5.96 0-3.41 2.529-5.96 5.963-5.96 3.355.001 5.538 2.656 5.538 5.987Zm-5.538-4.033c-1.837 0-3.088 1.274-3.328 2.888h6.55c-.213-1.561-1.411-2.888-3.222-2.888Zm8.467 9.862c-.746 0-1.251-.546-1.251-1.223V2.164c0-.677.506-1.223 1.251-1.223.745 0 1.251.546 1.251 1.223v15.302c0 .677-.506 1.223-1.251 1.223Z" fill="#33547D" style="fill:color(display-p3 .2 .3294 .4902);fill-opacity:1"/>
</svg>
