<svg width="200" height="200" viewBox="0 0 200 200" fill="none" xmlns="http://www.w3.org/2000/svg">
<rect width="200" height="200" fill="#483CE8" style="fill:#483CE8;fill:color(display-p3 0.2824 0.2353 0.9098);fill-opacity:1;"/>
<path fill-rule="evenodd" clip-rule="evenodd" d="M39.9205 97.9859H45.8933C45.8844 93.9446 43.4235 90.4811 39.9205 89" fill="white" style="fill:white;fill-opacity:1;"/>
<path fill-rule="evenodd" clip-rule="evenodd" d="M45.7795 99.4989H41.2416C40.991 100.358 40.5304 101.128 39.9187 101.748L39.9329 107.006C42.9967 105.708 45.2585 102.89 45.7795 99.4989Z" fill="white" style="fill:white;fill-opacity:1;"/>
<path fill-rule="evenodd" clip-rule="evenodd" d="M38.4126 92.2377V102.74C37.8508 106.013 35.4271 108.487 32.5376 108.487H32.4754C32.4754 103.227 32.4256 97.7103 32.4398 92.2324C32.4452 90.7353 33.7379 90.5024 34.6927 90.5024H36.2504C37.1911 90.5024 38.4126 90.8029 38.4126 92.2377Z" fill="white" style="fill:white;fill-opacity:1;"/>
<mask id="mask0_265_45" style="mask-type:luminance" maskUnits="userSpaceOnUse" x="25" y="91" width="7" height="20">
<path d="M25 91.731H31.3729V110.016H25V91.731Z" fill="white" style="fill:white;fill-opacity:1;"/>
</mask>
<g mask="url(#mask0_265_45)">
<path fill-rule="evenodd" clip-rule="evenodd" d="M30.891 92.0065H30.9621V105.08C30.45 107.87 27.9962 109.996 25.0605 109.996H25V97.897C25 94.6522 27.6459 92.0065 30.891 92.0065Z" fill="white" style="fill:white;fill-opacity:1;"/>
</g>
<mask id="mask1_265_45" style="mask-type:luminance" maskUnits="userSpaceOnUse" x="51" y="89" width="124" height="22">
<path d="M51.8572 89H175V110.016H51.8572V89Z" fill="white" style="fill:white;fill-opacity:1;"/>
</mask>
<g mask="url(#mask1_265_45)">
<path d="M75.9103 109.573V96.3324L67.4376 109.161C67.0463 109.729 66.4791 110.016 65.7321 110.016C64.9854 110.016 64.4164 109.729 64.0268 109.161L55.579 96.3324V109.573H52.0671V90.8474C52.0671 90.2197 52.268 89.7575 52.6663 89.4623C53.0646 89.1672 53.5608 89.0196 54.1546 89.0196C54.6116 89.0196 54.9779 89.0943 55.2482 89.2418C55.5203 89.3894 55.7657 89.6294 55.9861 89.9637L65.7819 105.032L75.656 89.9637C75.8767 89.6294 76.1095 89.3894 76.355 89.2418C76.6022 89.0943 76.9451 89.0196 77.3863 89.0196C77.98 89.0196 78.4762 89.1672 78.8746 89.4623C79.273 89.7575 79.4719 90.2197 79.4719 90.8474V109.573H75.9103ZM90.3134 109.573C89.0419 109.573 87.9806 109.449 87.1322 109.203C86.2842 108.958 85.6068 108.565 85.0982 108.024C84.5896 107.484 84.2286 106.776 84.0153 105.901C83.8037 105.027 83.6989 103.949 83.6989 102.673V89.4623H87.591V102.525C87.591 103.154 87.6461 103.67 87.7563 104.074C87.8669 104.476 88.041 104.804 88.2773 105.06C88.5157 105.317 88.8339 105.493 89.2323 105.592C89.6307 105.69 90.1177 105.74 90.6956 105.74H96.5228C97.0989 105.74 97.5877 105.69 97.9861 105.592C98.3845 105.493 98.7027 105.317 98.9394 105.06C99.1774 104.804 99.3519 104.472 99.4621 104.06C99.5705 103.645 99.6256 103.124 99.6256 102.495V89.4623H103.468V102.673C103.468 103.949 103.363 105.027 103.152 105.901C102.938 106.776 102.577 107.484 102.069 108.024C101.56 108.565 100.883 108.958 100.035 109.203C99.1845 109.449 98.1161 109.573 96.8269 109.573H90.3134ZM108.483 109.573V105.768H121.664C122.359 105.768 122.861 105.656 123.165 105.429C123.471 105.203 123.624 104.746 123.624 104.06V102.968C123.624 102.338 123.471 101.89 123.165 101.625C122.861 101.361 122.368 101.227 121.689 101.227H113.421C112.453 101.227 111.651 101.124 111.016 100.918C110.38 100.712 109.875 100.397 109.502 99.9737C109.128 99.5523 108.87 99.0207 108.725 98.3824C108.58 97.7423 108.509 96.9903 108.509 96.1262V95.1234C108.509 94.1011 108.602 93.2263 108.788 92.4991C108.975 91.7719 109.263 91.1869 109.653 90.7442C110.044 90.3033 110.552 89.9779 111.18 89.7717C111.808 89.5654 112.555 89.4623 113.421 89.4623H118.814V93.2654H113.776C113.182 93.2654 112.745 93.3987 112.466 93.6637C112.186 93.9304 112.046 94.4656 112.046 95.271V95.9199C112.046 96.5493 112.174 96.9956 112.428 97.2623C112.683 97.5272 113.124 97.6605 113.749 97.6605H121.867C122.834 97.6605 123.652 97.753 124.322 97.9397C124.993 98.1264 125.54 98.4269 125.964 98.8394C126.389 99.2518 126.693 99.7835 126.881 100.432C127.066 101.08 127.16 101.857 127.16 102.762V104.353C127.16 105.297 127.066 106.099 126.881 106.757C126.693 107.415 126.389 107.951 125.964 108.364C125.54 108.776 124.993 109.081 124.322 109.278C123.652 109.475 122.834 109.573 121.867 109.573H108.483ZM138.256 109.573V93.3241H130.978V89.4623H149.427V93.3241H142.148V109.573H138.256ZM171.159 109.573V101.553H158.436V109.573H154.567V89.4623H158.436V97.6605H171.159V89.4623H175V109.573" fill="white" style="fill:white;fill-opacity:1;"/>
</g>
</svg>
