<svg width="100" height="100" fill="none" xmlns="http://www.w3.org/2000/svg">
    <path d="M19.14 39.453c-1.171 0-1.953.938-1.953 2.11v11.015l-12.421-12.5c-.625-.625-1.72-.781-2.5-.469-.782.313-1.485 1.094-1.485 1.953v16.172c0 1.172 1.172 2.11 2.344 2.11s2.344-.938 2.344-2.11V46.72l12.578 12.5c.39.39.937.625 1.484.625.235 0 .313-.078.547-.157.781-.312 1.016-1.093 1.016-1.953V41.641c0-1.172-.782-2.188-1.953-2.188Zm15.391 9.219c-1.093 0-2.11 1.094-2.11 2.187 0 1.094 1.017 2.188 2.11 2.188l5.157.312-1.172 2.891h-6.641l-3.281-6.172 3.36-6.328h7.108l1.641 3.125H45l-2.813-6.172-.624-.86H29.374l-.547.938-4.61 8.047-.546 1.016.547 1.015 4.531 8.047.625 1.25h11.797l.547-1.328 3.36-7.031 1.483-3.36h-3.437l-8.594.235Zm16.25-9.219c-1.093 0-2.343 1.016-2.343 2.11v5.312h4.687v-5.234c0-1.172-1.25-2.188-2.344-2.188Zm23.75.234c-.781-.312-1.875-.156-2.422.47l-12.734 12.5V41.64c0-1.172-.781-2.11-1.953-2.11-1.172 0-1.953.938-1.953 2.11v16.172c0 .859.547 1.64 1.328 1.953.234.078.547.156.781.156.547 0 1.25-.234 1.64-.625l12.657-12.5v11.016c0 1.171.781 2.109 1.953 2.109 1.172 0 1.953-.938 1.953-2.11V41.642c0-.86-.469-1.641-1.25-1.953Zm17.031 10 6.563-6.562c.86-.86.86-2.188 0-2.969-.86-.86-2.188-.86-2.969 0l-6.562 6.563-6.563-6.563c-.86-.86-2.187-.86-2.969 0-.859.86-.859 2.188 0 2.969l6.563 6.563-6.563 6.562c-.859.86-.859 2.188 0 2.969.391.39.938.625 1.485.625.547 0 1.094-.235 1.484-.625l6.563-6.563 6.562 6.563c.39.39.938.625 1.485.625.546 0 1.093-.235 1.484-.625.86-.86.86-2.188 0-2.969l-6.563-6.563Zm-43.124 8.047c0 1.094 1.171 2.11 2.343 2.11 1.094 0 2.344-1.016 2.344-2.11v-9.297h-4.688v9.297Z" fill="#090" style="fill:color(display-p3 0 .6 0);fill-opacity:1"/>
</svg>
