<svg width="100" height="115" fill="none" xmlns="http://www.w3.org/2000/svg">
    <path fill-rule="evenodd" clip-rule="evenodd" d="M45.755 4.51a8.43 8.43 0 0 1 8.49 0l38.782 22.717c2.431 1.42 4.057 4.226 4.032 7.131v45.576c.02 3.025-1.767 5.899-4.333 7.286L54.083 109.83c-2.625 1.557-6.043 1.437-8.585-.248l-11.595-6.952c-.79-.489-1.68-.877-2.238-1.67.494-.689 1.374-.775 2.09-1.076 1.612-.531 3.093-1.385 4.574-2.213.375-.266.832-.164 1.191.074l9.892 5.931c.707.423 1.422-.139 2.027-.488l37.943-22.208c.468-.234.728-.75.69-1.282l.004-45.105a1.418 1.418 0 0 0-.81-1.406l-38.508-22.51a1.3 1.3 0 0 0-1.513-.003L10.74 33.193a1.398 1.398 0 0 0-.814 1.4V79.7a1.284 1.284 0 0 0 .698 1.265l10.285 6.024c1.93 1.078 4.302 1.718 6.43.893 1.876-.698 3.192-2.685 3.157-4.753l.014-44.84c-.047-.665.56-1.212 1.182-1.15l4.94.004c.687-.016 1.16.698 1.075 1.367l-.01 45.124c.004 4.008-1.584 8.37-5.16 10.332-4.404 2.366-9.848 1.865-14.2-.405-3.766-1.95-7.36-4.252-11.06-6.34-2.574-1.38-4.352-4.264-4.334-7.287V34.358a8.35 8.35 0 0 1 4.17-7.221L45.756 4.51Zm11.239 31.57c5.618-.374 11.633-.221 16.688 2.65 3.914 2.199 6.084 6.816 6.154 11.326-.109.608-.722.944-1.283.902-1.63-.003-3.26.023-4.89-.012-.69.027-1.093-.633-1.18-1.268-.468-2.158-1.603-4.296-3.562-5.336-3.006-1.561-6.493-1.484-9.77-1.45-2.394.132-4.967.347-6.995 1.806-1.557 1.105-2.029 3.337-1.474 5.135.523 1.29 1.96 1.707 3.136 2.09 6.771 1.837 13.945 1.654 20.587 4.072 2.75.985 5.44 2.9 6.382 5.886 1.231 4.001.69 8.785-2.055 11.997-2.226 2.644-5.468 4.082-8.703 4.865-4.303.995-8.768 1.02-13.136.578-4.11-.485-8.383-1.605-11.555-4.508-2.712-2.442-4.036-6.248-3.906-9.92.03-.62.627-1.053 1.2-1.002l4.924.003c.657-.049 1.142.539 1.175 1.18.303 2.056 1.05 4.214 2.777 5.433 3.336 2.233 7.523 2.08 11.342 2.142 3.166-.145 6.718-.19 9.3-2.36 1.364-1.236 1.767-3.307 1.399-5.088-.4-1.504-1.916-2.204-3.218-2.663-6.683-2.192-13.938-1.396-20.558-3.876-2.687-.985-5.286-2.848-6.318-5.71-1.44-4.052-.78-9.065 2.253-12.17 2.956-3.087 7.228-4.276 11.286-4.701Z" fill="#8CC84B" style="fill:color(display-p3 .549 .7843 .2941);fill-opacity:1"/>
</svg>
