<svg width="100" height="100" viewBox="0 0 100 100" fill="none" xmlns="http://www.w3.org/2000/svg">
<path fill-rule="evenodd" clip-rule="evenodd" d="M18.7391 17.7962C21.8334 20.3102 22.9942 20.1184 28.8049 19.7307L83.5838 16.4415C84.7456 16.4415 83.7795 15.2824 83.392 15.0898L74.2945 8.51295C72.5512 7.15956 70.2288 5.60968 65.7776 5.99739L12.7351 9.86614C10.8006 10.0579 10.4143 11.0252 11.1846 11.8004L18.7391 17.7962ZM22.028 30.5625V88.1994C22.028 91.2971 23.5759 92.4559 27.0598 92.2643L87.2619 88.7807C90.7476 88.5891 91.1359 86.4585 91.1359 83.9422V26.692C91.1359 24.1797 90.1695 22.825 88.0358 23.0183L25.124 26.692C22.8022 26.8871 22.0278 28.0485 22.0278 30.5625H22.028ZM81.4593 33.6542C81.8452 35.3967 81.4593 37.1376 79.7135 37.3335L76.813 37.9114V80.4627C74.2945 81.8163 71.9721 82.5902 70.0368 82.5902C66.9384 82.5902 66.1624 81.6224 63.8416 78.7228L44.868 48.9366V77.7556L50.872 79.1103C50.872 79.1103 50.872 82.5902 46.028 82.5902L32.6742 83.3648C32.2863 82.5902 32.6742 80.6577 34.0287 80.2705L37.5135 79.3047V41.2005L32.6752 40.8128C32.2871 39.0703 33.2535 36.5579 35.9656 36.3629L50.2911 35.3973L70.0368 65.5712V38.8785L65.0024 38.3007C64.616 36.1705 66.1624 34.6238 68.0984 34.432L81.4593 33.6542ZM8.28155 4.6442L63.4543 0.581112C70.2296 2.7687e-05 71.9729 0.389309 76.2313 3.48262L93.8431 15.8612C96.7491 17.9898 97.7177 18.5693 97.7177 20.8897V88.7807C97.7177 93.0356 96.1676 95.552 90.7486 95.9369L26.6764 99.8061C22.6084 100 20.6724 99.4203 18.542 96.7108L5.57243 79.8834C3.24868 76.7858 2.28223 74.4685 2.28223 71.7574V11.4113C2.28223 7.93186 3.8327 5.02938 8.28155 4.6442V4.6442Z" fill="black" style="fill:black;fill-opacity:1;"/>
</svg>
