<svg width="96" height="100" viewBox="0 0 96 100" fill="none" xmlns="http://www.w3.org/2000/svg">
<path fill-rule="evenodd" clip-rule="evenodd" d="M16.4569 17.7962C19.5512 20.3102 20.712 20.1184 26.5226 19.7307L81.3016 16.4415C82.4633 16.4415 81.4973 15.2824 81.1098 15.0898L72.0122 8.51295C70.269 7.15956 67.9466 5.60968 63.4954 5.99739L10.4529 9.86614C8.5184 10.0579 8.13205 11.0252 8.9024 11.8004L16.4569 17.7962ZM19.7457 30.5625V88.1994C19.7457 91.2971 21.2937 92.4559 24.7776 92.2643L84.9797 88.7807C88.4654 88.5891 88.8537 86.4585 88.8537 83.9422V26.692C88.8537 24.1797 87.8873 22.825 85.7535 23.0183L22.8418 26.692C20.52 26.8871 19.7455 28.0485 19.7455 30.5625H19.7457ZM79.1771 33.6542C79.563 35.3967 79.177 37.1376 77.4313 37.3335L74.5307 37.9114V80.4627C72.0122 81.8163 69.6898 82.5902 67.7546 82.5902C64.6562 82.5902 63.8802 81.6224 61.5594 78.7228L42.5857 48.9366V77.7556L48.5898 79.1103C48.5898 79.1103 48.5898 82.5902 43.7458 82.5902L30.392 83.3648C30.0041 82.5902 30.392 80.6577 31.7465 80.2705L35.2313 79.3047V41.2005L30.3929 40.8128C30.0048 39.0703 30.9713 36.5579 33.6833 36.3629L48.0089 35.3973L67.7546 65.5712V38.8785L62.7202 38.3007C62.3338 36.1705 63.8802 34.6238 65.8162 34.432L79.1771 33.6542ZM5.99932 4.6442L61.172 0.581112C67.9474 2.7687e-05 69.6906 0.389309 73.949 3.48262L91.5609 15.8612C94.4669 17.9898 95.4355 18.5693 95.4355 20.8897V88.7807C95.4355 93.0356 93.8854 95.552 88.4664 95.9369L24.3942 99.8061C20.3262 100 18.3902 99.4203 16.2598 96.7108L3.2902 79.8834C0.966452 76.7858 0 74.4685 0 71.7574V11.4113C0 7.93186 1.55047 5.02938 5.99932 4.6442V4.6442Z" fill="white" style="fill:white;fill-opacity:1;"/>
</svg>
