<svg width="100" height="40" fill="none" xmlns="http://www.w3.org/2000/svg">
    <path fill-rule="evenodd" clip-rule="evenodd" d="M2.941 1.148h94.117v31.481H50v5.248H29.085v-5.248H2.94V1.148ZM8.17 27.383h10.457V11.642h5.23v15.74h5.228V6.396H8.17v20.988ZM34.313 6.395V32.63h10.458v-5.247h10.458V6.395H34.313Zm10.458 5.247H50v10.494H44.77V11.642Zm15.686-5.247v20.988h10.458V11.642h5.229v15.74h5.228v-15.74h5.23v15.74h5.228V6.396H60.458Z" fill="#CB3837" style="fill:color(display-p3 .7961 .2196 .2157);fill-opacity:1"/>
    <path fill-rule="evenodd" clip-rule="evenodd" d="M8.17 27.383h10.457V11.642h5.23v15.741h5.228V6.395H8.17v20.988ZM34.313 6.395V32.63h10.458v-5.248h10.457V6.396H34.313ZM50 22.135H44.77V11.643H50v10.494Zm10.457-15.74v20.988h10.458V11.642h5.229v15.741h5.228V11.642h5.23v15.741h5.228V6.395H60.457Z" fill="#fff" style="fill:#fff;fill-opacity:1"/>
</svg>
