<svg width="100" height="100" fill="none" xmlns="http://www.w3.org/2000/svg">
    <path d="M0 50c0 14.526 22.386 26.302 50 26.302S100 64.526 100 50 77.613 23.698 50 23.698C22.386 23.698 0 35.474 0 50Z" fill="url(#a)"/>
    <path d="M50 74.35c26.535 0 48.047-10.903 48.047-24.35 0-13.449-21.512-24.35-48.047-24.35C23.465 25.65 1.953 36.552 1.953 50c0 13.447 21.512 24.35 48.047 24.35Z" fill="#777BB3" style="fill:color(display-p3 .4667 .4824 .702);fill-opacity:1"/>
    <path d="M27.166 53.019c2.182 0 3.81-.403 4.84-1.196 1.02-.785 1.724-2.146 2.094-4.042.344-1.774.212-3.011-.39-3.68-.616-.683-1.948-1.03-3.96-1.03h-3.487l-1.932 9.948h2.835ZM15.76 65.27a.541.541 0 0 1-.531-.647l5.123-26.358a.543.543 0 0 1 .53-.438h11.043c3.47 0 6.053.942 7.677 2.8 1.632 1.868 2.136 4.48 1.498 7.763a12.417 12.417 0 0 1-1.328 3.69 12.36 12.36 0 0 1-2.444 3.063c-1.196 1.119-2.55 1.931-4.021 2.408-1.447.472-3.306.711-5.523.711h-4.472l-1.277 6.569a.543.543 0 0 1-.533.44H15.76Z" fill="#000" style="fill:#000;fill-opacity:1"/>
    <path d="M26.711 43.614h3.04c2.427 0 3.27.533 3.557.85.474.527.565 1.64.258 3.213-.343 1.764-.979 3.014-1.89 3.716-.933.719-2.452 1.083-4.51 1.083h-2.177l1.723-8.861h-.001Zm5.214-6.328H20.884a1.087 1.087 0 0 0-1.066.877l-5.123 26.359a1.087 1.087 0 0 0 1.065 1.291h5.742a1.087 1.087 0 0 0 1.065-.878l1.192-6.13h4.024c2.275 0 4.19-.248 5.693-.737 1.544-.502 2.965-1.352 4.223-2.529 1.013-.922 1.872-2 2.546-3.193a12.921 12.921 0 0 0 1.387-3.852c.672-3.456.126-6.222-1.622-8.222-1.731-1.982-4.451-2.987-8.085-2.987ZM23.673 53.56h3.493c2.314 0 4.039-.435 5.171-1.308 1.134-.872 1.897-2.329 2.296-4.368.379-1.96.206-3.342-.52-4.147-.727-.805-2.18-1.208-4.362-1.208h-3.935L23.673 53.56Zm8.253-15.191c3.322 0 5.744.872 7.268 2.615 1.523 1.744 1.981 4.178 1.375 7.302a11.837 11.837 0 0 1-1.27 3.53 11.8 11.8 0 0 1-2.337 2.927c-1.146 1.073-2.419 1.837-3.821 2.293-1.402.456-3.188.683-5.357.683h-4.92l-1.36 7.008H15.76l5.123-26.358h11.042Z" fill="#fff" style="fill:#fff;fill-opacity:1"/>
    <path d="M54.265 58.263a.542.542 0 0 1-.533-.646l2.266-11.662c.216-1.11.163-1.905-.149-2.242-.191-.206-.765-.55-2.46-.55h-4.107l-2.848 14.662a.542.542 0 0 1-.534.438h-5.695a.544.544 0 0 1-.534-.646l5.123-26.358a.543.543 0 0 1 .533-.439h5.696a.544.544 0 0 1 .533.646l-1.236 6.362h4.417c3.365 0 5.646.592 6.975 1.813 1.354 1.245 1.777 3.235 1.256 5.917l-2.384 12.267a.543.543 0 0 1-.532.438h-5.787Z" fill="#000" style="fill:#000;fill-opacity:1"/>
    <path d="M51.023 30.277h-5.696a1.086 1.086 0 0 0-1.065.878l-5.123 26.358a1.085 1.085 0 0 0 1.065 1.293H45.9a1.086 1.086 0 0 0 1.066-.879l2.763-14.222h3.658c1.693 0 2.05.361 2.063.378.103.11.238.62.015 1.769l-2.266 11.661a1.085 1.085 0 0 0 1.066 1.293h5.787a1.086 1.086 0 0 0 1.065-.879l2.384-12.265c.558-2.88.08-5.04-1.422-6.42-1.434-1.317-3.836-1.957-7.342-1.957h-3.758l1.11-5.715a1.085 1.085 0 0 0-1.066-1.293Zm0 1.086-1.361 7.007h5.075c3.193 0 5.396.557 6.607 1.671 1.213 1.115 1.575 2.918 1.092 5.415L60.05 57.72h-5.786l2.266-11.662c.258-1.327.163-2.231-.285-2.714-.448-.482-1.4-.724-2.858-.724h-4.554L45.9 57.72h-5.697l5.123-26.36h5.697v.003Z" fill="#fff" style="fill:#fff;fill-opacity:1"/>
    <path d="M71.981 53.019c2.182 0 3.811-.403 4.842-1.196 1.02-.785 1.724-2.146 2.093-4.042.344-1.774.214-3.011-.39-3.68-.616-.683-1.948-1.03-3.959-1.03h-3.486l-1.934 9.948h2.834ZM60.578 65.27a.542.542 0 0 1-.533-.647l5.123-26.358a.542.542 0 0 1 .533-.438h11.041c3.47 0 6.053.942 7.677 2.8 1.632 1.868 2.136 4.48 1.497 7.763a12.404 12.404 0 0 1-1.327 3.69 12.372 12.372 0 0 1-2.444 3.063c-1.195 1.119-2.55 1.931-4.02 2.408-1.448.472-3.307.711-5.525.711h-4.471l-1.276 6.569a.543.543 0 0 1-.533.44h-5.742Z" fill="#000" style="fill:#000;fill-opacity:1"/>
    <path d="M71.527 43.614h3.04c2.428 0 3.27.533 3.557.85.476.527.565 1.64.26 3.213-.344 1.764-.98 3.014-1.892 3.716-.933.719-2.452 1.083-4.51 1.083h-2.177l1.722-8.862Zm5.214-6.328H65.7a1.085 1.085 0 0 0-1.065.877l-5.123 26.359a1.088 1.088 0 0 0 1.065 1.291h5.743a1.087 1.087 0 0 0 1.064-.878l1.192-6.13h4.023c2.275 0 4.19-.248 5.692-.737 1.546-.502 2.967-1.352 4.225-2.53 1.013-.922 1.872-2 2.546-3.192a12.921 12.921 0 0 0 1.386-3.852c.672-3.456.127-6.222-1.621-8.222-1.732-1.982-4.451-2.987-8.086-2.987ZM68.49 53.56h3.492c2.316 0 4.04-.435 5.174-1.308 1.132-.872 1.897-2.329 2.293-4.368.38-1.96.208-3.342-.52-4.147-.726-.805-2.18-1.208-4.36-1.208h-3.934L68.489 53.56Zm8.252-15.191c3.322 0 5.746.872 7.268 2.615 1.524 1.744 1.982 4.178 1.375 7.302a11.795 11.795 0 0 1-1.27 3.53 11.77 11.77 0 0 1-2.337 2.927c-1.146 1.073-2.42 1.837-3.822 2.293-1.4.456-3.185.683-5.356.683h-4.918l-1.363 7.008h-5.742l5.123-26.358h11.042Z" fill="#fff" style="fill:#fff;fill-opacity:1"/>
    <defs>
        <radialGradient id="a" cx="0" cy="0" r="1" gradientUnits="userSpaceOnUse" gradientTransform="translate(30.02 32.944) scale(65.6573)">
            <stop stop-color="#AEB2D5" style="stop-color:color(display-p3 .6824 .698 .8353);stop-opacity:1"/>
            <stop offset=".3" stop-color="#AEB2D5" style="stop-color:color(display-p3 .6824 .698 .8353);stop-opacity:1"/>
            <stop offset=".75" stop-color="#484C89" style="stop-color:color(display-p3 .2824 .298 .5373);stop-opacity:1"/>
            <stop offset="1" stop-color="#484C89" style="stop-color:color(display-p3 .2824 .298 .5373);stop-opacity:1"/>
        </radialGradient>
    </defs>
</svg>
