<svg width="100" height="100" fill="none" xmlns="http://www.w3.org/2000/svg">
    <path d="M88.373 20.364C72.006-.83 41.555-4.742 20.36 11.627-.83 27.997-4.74 58.447 11.63 79.64c16.372 21.191 46.825 25.097 68.013 8.724 21.183-16.37 25.093-46.81 8.729-67.999Z" fill="#F37036" style="fill:color(display-p3 .9529 .4392 .2118);fill-opacity:1"/>
    <path d="M71.155 18.878a7.843 7.843 0 0 0-7.164 6.921 7.834 7.834 0 0 0 1.444 5.494 7.834 7.834 0 0 0 10.372 2.121h.002l.121.122a8.299 8.299 0 0 0 1.536-1.133 8.079 8.079 0 0 0-.122-11.226v-.001l-6.91 6.866-.121-.121 6.909-6.87a7.845 7.845 0 0 0-6.067-2.171v-.002Zm-9.097 11.24c-3.313-.006-8.721 3.75-21.928 16.955l.066.068c-.072-.026-.144-.028-.144-.028l-4.972 4.928a.809.809 0 0 0 .726 1.377l8.527-1.819a.24.24 0 0 0 .072-.133l.189.196-2.907 2.882h-.14L24.292 71.935l5.536 5.331a.98.98 0 0 0 1.153.117 1.037 1.037 0 0 0 .504-1.06l-.808-3.515a.417.417 0 0 1 0-.485 91.629 91.629 0 0 0 20.889-13.736l-3.543-3.545.067-.01-2.102-2.102.135-.136.142.146-.074.07 5.576 5.699v-.003c10.688-10.12 18.274-18.255 16.301-23.73a2.992 2.992 0 0 0-.865-1.725v.003a2.945 2.945 0 0 0-.377-.24c-.065-.068-.122-.138-.19-.206l-.052.052a2.947 2.947 0 0 0-.455-.227l.226-.228c-1.403-1.25-2.563-2.284-4.297-2.289v.002ZM24.172 72.039l-4.04 4.04v.004a.805.805 0 0 0-.357.879.81.81 0 0 0 .72.616l9.9.684-6.223-6.223Z" fill="#fff" style="fill:#fff;fill-opacity:1"/>
    <path d="M71.836 18.21a8.63 8.63 0 0 0-6.062 2.477 8.584 8.584 0 0 0-1.867 9.095c-3.704-1.586-8.715 1.18-24.301 16.763a.723.723 0 0 0-.03.074.953.953 0 0 0-.092.048l-4.93 4.972a1.539 1.539 0 0 0-.283 1.816 1.572 1.572 0 0 0 1.334.768l.244-.158 6.582-1.404-3.149 3.177a.685.685 0 0 0-.042.13L23.81 71.436a.625.625 0 0 0-.15.186l-3.973 3.976a1.537 1.537 0 0 0-.324 1.597 1.558 1.558 0 0 0 1.294.988l9.858.687a.789.789 0 0 0 .406-.324.693.693 0 0 0 0-.809l-.02-.019c.212-.112.4-.266.55-.453a1.747 1.747 0 0 0 .318-1.466L31 72.53a99.006 99.006 0 0 0 20.573-13.173.851.851 0 0 0 .194.08.829.829 0 0 0 .525-.24C62.878 49.171 69.101 42.302 69.101 36.85a6.276 6.276 0 0 0-.337-2.227 8.56 8.56 0 0 0 3.004.649l-.012.003a8.765 8.765 0 0 0 4.05-1.133l.003.001c.16.048.332.033.482-.043a7.34 7.34 0 0 0 1.617-1.29 8.493 8.493 0 0 0 0-12.123.73.73 0 0 0-.092-.07 8.63 8.63 0 0 0-5.98-2.405v-.001Zm-.068 1.385a7.242 7.242 0 0 1 4.364 1.496l-6.303 6.341a.665.665 0 0 0-.06.077.649.649 0 0 0-.186.43.649.649 0 0 0 .244.507h.002l4.766 4.766a7.066 7.066 0 0 1-7.835-1.495c-2.02-2.031-2.606-5.081-1.526-7.727a7.081 7.081 0 0 1 6.534-4.395Zm5.563 2.682a6.93 6.93 0 0 1 1.588 4.432 7.148 7.148 0 0 1-2.1 5.05 7.794 7.794 0 0 1-.858.7l-3.846-3.787-.752-.753.207-.207 5.76-5.437v.002Zm-.287 3.275a.607.607 0 0 0-.43.025.571.571 0 0 0-.241.77 1.738 1.738 0 0 1-.201 1.818.499.499 0 0 0-.153.381.573.573 0 0 0 .153.384c.104.04.22.04.323 0a.532.532 0 0 0 .525-.161 2.792 2.792 0 0 0 .364-2.951v.003a.607.607 0 0 0-.34-.269Zm-15.06 5.253c.943.031 1.85.367 2.586.957a3.715 3.715 0 0 0-2.094 1.047L44.658 50.548 41.16 47.05c9.24-9.197 14.89-14.001 18.403-15.575a4.362 4.362 0 0 1 2.42-.671Zm3.098 2.312c.598 0 1.172.237 1.596.66a2.176 2.176 0 0 1 .687 1.657 2.241 2.241 0 0 1-.77 1.617L47.65 53.54l-2.044-2.045 17.88-17.718c.424-.422.998-.66 1.596-.66Zm2.34 5.233c-1.321 5.236-8.319 12.33-15.616 19.224l-2.95-2.947L67.42 38.35ZM40.13 48.084l.213.21 2.745 2.745-7.523 1.61 4.564-4.565Zm4.525 4.562.003.003.913.934a.85.85 0 0 0 .014.065l.06.01.195.198.64.657-4.207.515 2.383-2.383v.001Zm3.021 3.184 2.796 2.794a99.21 99.21 0 0 1-20.2 13.013 1.125 1.125 0 0 0-.607 1.291l.809 3.516a.242.242 0 0 1 0 .283.242.242 0 0 1-.323 0l-4.768-4.806 14.694-14.91 7.6-1.18ZM24.292 72.971l.68.636 3.508 3.51-7.825-.507 3.637-3.639Z" fill="#F37036" style="fill:color(display-p3 .9529 .4392 .2118);fill-opacity:1"/>
</svg>
