<svg width="100" height="97" fill="none" xmlns="http://www.w3.org/2000/svg">
    <g clip-path="url(#a)">
        <path fill-rule="evenodd" clip-rule="evenodd" d="M76.472 71.094c.644-5.26.451-6.033 4.45-5.18l1.015.087c3.076.137 7.099-.484 9.461-1.56 5.087-2.313 8.105-6.174 3.088-5.16-11.442 2.312-12.23-1.483-12.23-1.483C94.34 40.232 99.392 17.935 95.033 12.476 83.14-2.41 62.556 4.63 62.212 4.812l-.11.02c-2.261-.46-4.792-.735-7.633-.78-5.179-.083-9.108 1.33-12.089 3.546 0 0-36.72-14.823-35.013 18.641.363 7.119 10.415 53.866 22.403 39.746a218.227 218.227 0 0 1 8.615-9.528c2.103 1.37 4.62 2.067 7.26 1.816l.205-.17a7.645 7.645 0 0 0 .082 2.01c-3.088 3.38-2.18 3.975-8.355 5.22-6.245 1.262-2.577 3.507-.18 4.094 2.904.712 9.624 1.72 14.166-4.507l-.181.71c1.211.95 1.129 6.826 1.301 11.023.172 4.197.459 8.116 1.333 10.426.873 2.31 1.904 8.259 10.018 6.555 6.781-1.423 11.966-3.472 12.44-22.537" fill="#000" style="fill:#000;fill-opacity:1"/>
        <path d="M76.472 71.094c.644-5.26.451-6.033 4.45-5.18l1.015.087c3.076.137 7.099-.484 9.461-1.56 5.087-2.313 8.105-6.174 3.088-5.16-11.442 2.312-12.23-1.483-12.23-1.483C94.34 40.232 99.392 17.935 95.033 12.476 83.14-2.41 62.556 4.63 62.212 4.812l-.11.02c-2.261-.46-4.792-.735-7.633-.78-5.179-.083-9.108 1.33-12.089 3.546 0 0-36.72-14.823-35.013 18.641.363 7.119 10.415 53.866 22.403 39.746a218.227 218.227 0 0 1 8.615-9.528c2.103 1.37 4.62 2.067 7.26 1.816l.205-.17a7.645 7.645 0 0 0 .082 2.01c-3.088 3.38-2.18 3.975-8.355 5.22-6.245 1.262-2.577 3.507-.18 4.094 2.904.712 9.624 1.72 14.166-4.507l-.181.71c1.211.95 1.129 6.826 1.301 11.023.172 4.197.459 8.116 1.333 10.426.873 2.31 1.904 8.259 10.018 6.555 6.781-1.423 11.966-3.472 12.44-22.537" stroke="#000" style="stroke:#000;stroke-opacity:1" stroke-width="6" stroke-linejoin="round"/>
        <path fill-rule="evenodd" clip-rule="evenodd" d="M94.487 59.28c-11.443 2.313-12.23-1.482-12.23-1.482C94.34 40.23 99.39 17.933 95.032 12.475 83.14-2.412 62.556 4.63 62.212 4.812l-.111.02c-2.261-.46-4.792-.734-7.636-.78-5.178-.083-9.106 1.33-12.087 3.545 0 0-36.722-14.822-35.014 18.64.363 7.12 10.415 53.867 22.402 39.747 4.382-5.163 8.616-9.528 8.616-9.528 2.102 1.37 4.62 2.067 7.259 1.816l.205-.17c-.064.641-.034 1.269.082 2.01-3.088 3.38-2.18 3.975-8.354 5.22-6.247 1.261-2.577 3.507-.181 4.094 2.904.712 9.625 1.72 14.165-4.508l-.181.71c1.21.95 2.06 6.177 1.918 10.916-.143 4.739-.238 7.991.716 10.533s1.904 8.258 10.02 6.555c6.781-1.424 10.296-5.114 10.784-11.269.347-4.376 1.132-3.73 1.182-7.641l.63-1.852c.727-5.93.115-7.845 4.293-6.955l1.015.087c3.076.137 7.1-.484 9.462-1.56 5.087-2.313 8.103-6.174 3.088-5.16l.002-.001Z" fill="#336791" style="fill:color(display-p3 .2 .4039 .5686);fill-opacity:1"/>
        <path d="M52.051 62.681c-.315 11.038.079 22.152 1.182 24.853 1.103 2.702 3.464 7.955 11.58 6.252 6.782-1.425 9.25-4.181 10.32-10.265.788-4.477 2.308-16.908 2.503-19.456M42.323 7.35S5.576-7.364 7.285 26.1C7.648 33.218 17.7 79.966 29.69 65.846c4.38-5.163 8.343-9.213 8.343-9.213m24.14-51.968c-1.273.391 20.44-7.777 32.78 7.672 4.359 5.458-.693 27.756-12.775 45.323m0 0s.787 3.796 12.232 1.482c5.014-1.015 1.996 2.847-3.09 5.16-4.173 1.898-13.53 2.385-13.683-.238-.393-6.766 4.925-4.71 4.54-6.404Zm0 0c-.347-1.527-2.726-3.027-4.299-6.764-1.373-3.262-18.836-28.276 4.843-24.56.867-.176-6.175-22.068-28.336-22.424-22.16-.356-21.429 26.695-21.429 26.695M45.85 59.972c-3.09 3.38-2.18 3.975-8.355 5.22-6.247 1.261-2.577 3.506-.181 4.093 2.905.712 9.625 1.72 14.166-4.51 1.382-1.897-.008-4.923-1.908-5.695-.918-.372-2.145-.84-3.722.89v.002Z" stroke="#fff" style="stroke:#fff;stroke-opacity:1" stroke-width="2" stroke-linecap="round" stroke-linejoin="round"/>
        <path d="M45.648 59.914c-.312-1.987.666-4.352 1.714-7.12 1.575-4.151 5.208-8.304 2.303-21.475-2.167-9.814-16.699-2.042-16.708-.712-.009 1.33.657 6.745-.243 13.051-1.174 8.228 5.344 15.187 12.85 14.475" stroke="#fff" style="stroke:#fff;stroke-opacity:1" stroke-width="2" stroke-linecap="round" stroke-linejoin="round"/>
        <path d="M82.721 26.336c.196 3.565-.784 5.994-.907 9.788-.182 5.516 2.685 11.83-1.636 18.152M42.19 30.409c-.065.454.849 1.668 2.042 1.83 1.193.162 2.21-.785 2.275-1.24.065-.453-.849-.954-2.042-1.117-1.194-.164-2.212.074-2.275.527Zm36.269-.927c.065.454-.849 1.668-2.042 1.83-1.193.162-2.211-.785-2.276-1.239-.065-.454.851-.955 2.043-1.118 1.192-.163 2.211.074 2.276.529l-.001-.002Z" stroke="#fff" style="stroke:#fff;stroke-opacity:1" stroke-width="2" stroke-linecap="round" stroke-linejoin="round"/>
    </g>
    <defs>
        <clipPath id="a">
            <path fill="#fff" style="fill:#fff;fill-opacity:1" d="M0 0h100v96.97H0z"/>
        </clipPath>
    </defs>
</svg>
