<svg width="100" height="100" fill="none" xmlns="http://www.w3.org/2000/svg">
    <g clip-path="url(#a)">
        <path fill-rule="evenodd" clip-rule="evenodd" d="M39.255 32.513c-2.877-.723-5.757-.491-8.797-.018 0 5.317-.011 10.49.029 15.664.001.265.399.726.657.761 3.315.448 6.611.484 9.712-1.027 3.206-1.563 4.84-4.83 4.417-8.666-.385-3.493-2.453-5.818-6.018-6.714ZM99.219 49.97V2.566c0-1.637.018-1.785-1.572-1.785H2.718C1.172.781.781.93.781 2.49v94.929c0 1.576.197 1.579 1.726 1.579 31.684 0 63.462-.007 95.145.029 1.23.001 1.559-.326 1.556-1.53-.042-15.842.01-31.685.01-47.525Zm-55.194 4.563c-4.341 1.548-8.869 1.635-13.556 1.272v17.632h-8.594v-1.096c0-14.761-.068-29.522-.11-44.283-.004-1.225.19-1.818 1.572-1.958 6.51-.666 12.982-1.414 19.454.104 6.958 1.63 10.97 6.23 11.275 12.586.377 7.87-3.082 13.26-10.041 15.743Zm34.617 9.964c-.331 4.508-2.873 7.468-7.043 8.9-5.58 1.915-11.129 1.47-16.582-.696-.893-.356-1.065-.806-.77-1.716.536-1.661.929-3.369 1.343-4.911 2.305.677 4.497 1.521 6.769 1.92 1.603.282 3.337.117 4.968-.139 1.461-.23 2.513-1.222 2.753-2.79.243-1.595-.237-2.976-1.645-3.825-1.119-.673-2.351-1.155-3.533-1.72-1.901-.909-3.927-1.621-5.68-2.758-6.9-4.474-4.653-12.799-.05-15.934 2.464-1.677 5.19-2.42 8.108-2.523 3.432-.12 6.736.472 9.983 2.05l-1.715 6.085c-1.36-.482-2.625-1.107-3.961-1.355-1.585-.295-3.248-.46-4.848-.33-2.145.176-3.402 1.657-3.402 3.492 0 1.088.413 2.008 1.32 2.536 1.302.757 2.683 1.38 4.052 2.014 1.48.686 3.045 1.212 4.47 1.994 3.805 2.086 5.786 5.313 5.463 9.706Z" fill="#80B5E2" style="fill:color(display-p3 .502 .7098 .8863);fill-opacity:1"/>
    </g>
    <defs>
        <clipPath id="a">
            <path fill="#fff" style="fill:#fff;fill-opacity:1" d="M0 0h100v100H0z"/>
        </clipPath>
    </defs>
</svg>
