<svg width="100" height="100" fill="none" xmlns="http://www.w3.org/2000/svg">
    <path d="M50 58.906a8.906 8.906 0 1 0 0-17.812 8.906 8.906 0 0 0 0 17.812Z" fill="#61DAFB" style="fill:color(display-p3 .3804 .8549 .9843);fill-opacity:1"/>
    <path d="M83.828 35.313c-1.719-.626-3.516-1.25-5.39-1.797.468-1.875.859-3.75 1.171-5.547 1.641-10.313-.156-17.578-5.156-20.39-1.484-.86-3.125-1.25-5-1.25-5.469 0-12.422 4.062-19.453 10.858-7.031-6.796-13.984-10.859-19.453-10.859-1.875 0-3.516.39-5 1.25-5 2.89-6.797 10.156-5.156 20.39a78.394 78.394 0 0 0 1.172 5.548c-1.875.547-3.672 1.093-5.391 1.797C6.406 39.063 1.094 44.218 1.094 50c0 5.781 5.39 10.938 15.078 14.688 1.719.624 3.515 1.25 5.39 1.796a78.403 78.403 0 0 0-1.171 5.547c-1.641 10.313.156 17.578 5.156 20.39 1.484.86 3.125 1.25 5 1.25 5.547 0 12.5-4.062 19.453-10.859 7.031 6.797 13.984 10.86 19.453 10.86 1.875 0 3.516-.39 5-1.25 5-2.89 6.797-10.156 5.156-20.39a78.347 78.347 0 0 0-1.171-5.548c1.874-.546 3.671-1.093 5.39-1.796C93.594 60.938 98.906 55.78 98.906 50c0-5.781-5.312-10.938-15.078-14.688ZM72.266 11.483c3.203 1.875 4.296 7.657 2.968 15.86-.234 1.64-.625 3.36-1.093 5.156-4.063-.938-8.36-1.563-12.891-1.953a112.73 112.73 0 0 0-8.125-10.156c5.781-5.703 11.64-9.61 16.406-9.61 1.016 0 1.953.235 2.735.703Zm-8.75 46.328c-1.407 2.5-3.047 5-4.766 7.5-2.89.235-5.781.313-8.75.313-3.047 0-5.938-.078-8.75-.313-1.719-2.5-3.281-5-4.688-7.5A125.854 125.854 0 0 1 32.422 50a125.854 125.854 0 0 1 4.14-7.813c1.407-2.5 3.047-5 4.766-7.5 2.89-.234 5.781-.312 8.75-.312 3.047 0 5.938.078 8.75.313 1.719 2.5 3.281 5 4.688 7.5A125.854 125.854 0 0 1 67.656 50c-1.328 2.578-2.656 5.156-4.14 7.813ZM70 55.234c1.172 2.735 2.11 5.391 2.969 8.047-2.656.625-5.469 1.094-8.438 1.485.938-1.485 1.953-3.047 2.813-4.688.937-1.64 1.797-3.281 2.656-4.844ZM50 76.406c-1.875-2.031-3.672-4.219-5.39-6.484 1.796.078 3.593.156 5.39.156 1.797 0 3.594-.078 5.39-.156-1.718 2.266-3.515 4.453-5.39 6.484ZM35.469 64.687c-2.969-.39-5.782-.859-8.438-1.484.86-2.578 1.797-5.312 2.969-8.047.86 1.563 1.719 3.203 2.656 4.766.938 1.719 1.875 3.203 2.813 4.766ZM30 44.767c-1.172-2.735-2.11-5.391-2.969-8.047 2.657-.625 5.469-1.094 8.438-1.485-.938 1.485-1.953 3.047-2.813 4.688-.937 1.64-1.797 3.281-2.656 4.844Zm20-21.172c1.875 2.031 3.672 4.218 5.39 6.484-1.796-.078-3.593-.156-5.39-.156-1.797 0-3.594.078-5.39.156 1.718-2.265 3.515-4.453 5.39-6.484ZM67.344 40l-2.813-4.688c2.969.391 5.781.86 8.438 1.485-.86 2.578-1.797 5.312-2.969 8.047-.86-1.64-1.719-3.282-2.656-4.844ZM24.766 27.344c-1.328-8.203-.235-13.985 2.968-15.86.782-.468 1.72-.703 2.735-.703 4.687 0 10.547 3.828 16.406 9.61-2.734 2.968-5.469 6.406-8.125 10.156-4.531.39-8.828 1.094-12.89 1.953-.47-1.797-.782-3.516-1.094-5.156ZM5.469 50c0-3.672 4.453-7.578 12.265-10.469 1.563-.625 3.282-1.172 5-1.64a113.867 113.867 0 0 0 4.688 12.187c-1.875 4.14-3.516 8.203-4.688 12.11C11.954 59.062 5.47 54.374 5.47 50Zm22.265 38.516c-3.203-1.875-4.297-7.657-2.968-15.86.234-1.64.625-3.36 1.093-5.156 4.063.938 8.36 1.563 12.891 1.953 2.656 3.75 5.39 7.11 8.125 10.156-5.781 5.704-11.64 9.61-16.406 9.61-1.016 0-1.953-.235-2.735-.703Zm47.5-15.86c1.329 8.203.235 13.985-2.968 15.86-.782.468-1.72.703-2.735.703-4.687 0-10.547-3.828-16.406-9.61 2.734-2.968 5.469-6.406 8.125-10.156 4.531-.39 8.828-1.094 12.89-1.953.47 1.797.782 3.516 1.094 5.156Zm7.032-12.187c-1.563.625-3.282 1.172-5 1.64a113.867 113.867 0 0 0-4.688-12.187c1.875-4.14 3.516-8.203 4.688-12.11C88.046 40.938 94.53 45.626 94.53 50c0 3.672-4.531 7.578-12.265 10.469Z" fill="#61DAFB" style="fill:color(display-p3 .3804 .8549 .9843);fill-opacity:1"/>
</svg>
