<svg width="100" height="100" fill="none" xmlns="http://www.w3.org/2000/svg">
    <path d="M41.414 24.563c3.11-3.235 7.43-5.243 12.219-5.243 6.36 0 11.906 3.547 14.86 8.813a20.515 20.515 0 0 1 8.398-1.79c11.468 0 20.765 9.384 20.765 20.946 0 11.57-9.297 20.953-20.765 20.953-1.399 0-2.766-.14-4.094-.406-2.602 4.64-7.563 7.773-13.25 7.773-2.383 0-4.633-.546-6.64-1.53-2.641 6.202-8.782 10.554-15.946 10.554-7.461 0-13.813-4.719-16.25-11.336a15.857 15.857 0 0 1-3.305.344c-8.883 0-16.078-7.274-16.078-16.243a16.26 16.26 0 0 1 8.04-14.07 18.536 18.536 0 0 1-1.54-7.43c0-10.32 8.375-18.687 18.711-18.687 6.063-.008 11.461 2.883 14.875 7.352Z" fill="#00A1E0" style="fill:color(display-p3 0 .6314 .8784);fill-opacity:1"/>
    <path d="M15.281 52.172c-.062.156.024.187.04.219.179.132.367.226.546.336.985.523 1.906.671 2.883.671 1.977 0 3.203-1.054 3.203-2.742v-.031c0-1.563-1.383-2.133-2.687-2.54l-.172-.054c-.977-.32-1.828-.593-1.828-1.234v-.031c0-.555.492-.961 1.258-.961.851 0 1.859.28 2.507.64 0 0 .188.125.258-.062.04-.102.367-.985.398-1.078.04-.102-.03-.18-.093-.22-.742-.452-1.766-.757-2.828-.757h-.196c-1.804 0-3.07 1.094-3.07 2.656v.032c0 1.648 1.39 2.187 2.695 2.562l.211.063c.953.289 1.774.547 1.774 1.21v.032c0 .61-.532 1.07-1.39 1.07a4.672 4.672 0 0 1-2.548-.734c-.14-.078-.219-.14-.328-.203-.055-.04-.195-.094-.258.086l-.375 1.07Zm28.93 0c-.063.156.023.187.039.219.18.132.367.226.547.336.984.523 1.906.671 2.883.671 1.976 0 3.203-1.054 3.203-2.742v-.031c0-1.563-1.383-2.133-2.688-2.54l-.172-.054c-.976-.32-1.828-.593-1.828-1.234v-.031c0-.555.492-.961 1.258-.961.852 0 1.86.28 2.508.64 0 0 .188.125.258-.062.039-.102.367-.985.398-1.078.04-.102-.031-.18-.093-.22-.743-.452-1.766-.757-2.829-.757H47.5c-1.805 0-3.07 1.094-3.07 2.656v.032c0 1.648 1.39 2.187 2.695 2.562l.211.063c.953.289 1.773.547 1.773 1.21v.032c0 .61-.53 1.07-1.39 1.07a4.672 4.672 0 0 1-2.547-.734c-.14-.078-.219-.14-.328-.203-.04-.024-.203-.086-.258.086l-.375 1.07Zm19.742-3.313c0 .953-.18 1.711-.531 2.243-.344.523-.875.78-1.602.78-.734 0-1.258-.257-1.601-.78-.344-.532-.524-1.29-.524-2.243 0-.953.172-1.703.524-2.234.343-.523.867-.773 1.601-.773.735 0 1.258.25 1.61.773.343.523.523 1.273.523 2.234Zm1.649-1.773a3.97 3.97 0 0 0-.75-1.43 3.54 3.54 0 0 0-1.266-.96c-.5-.235-1.102-.352-1.766-.352-.672 0-1.265.117-1.765.351-.508.235-.93.563-1.266.961a4.036 4.036 0 0 0-.75 1.43 6.159 6.159 0 0 0-.242 1.773c0 .633.078 1.227.242 1.774.164.547.414 1.031.75 1.43.336.406.766.726 1.266.953.508.226 1.101.343 1.765.343.672 0 1.266-.117 1.766-.343.5-.227.93-.555 1.266-.953.335-.399.585-.883.75-1.43.164-.547.242-1.14.242-1.774 0-.632-.078-1.234-.242-1.773Zm13.546 4.539c-.054-.164-.21-.102-.21-.102-.243.094-.493.18-.766.22-.273.038-.578.062-.906.062-.797 0-1.43-.235-1.891-.703-.453-.47-.71-1.227-.71-2.258 0-.938.226-1.64.632-2.172.398-.531 1.016-.805 1.828-.805.68 0 1.203.078 1.742.25 0 0 .133.055.195-.117.141-.398.25-.688.407-1.125.047-.125-.063-.18-.102-.195a5.92 5.92 0 0 0-1.101-.274 8.265 8.265 0 0 0-1.235-.086c-.695 0-1.312.117-1.836.352a3.778 3.778 0 0 0-1.328.96 4.14 4.14 0 0 0-.805 1.43 5.66 5.66 0 0 0-.265 1.774c0 1.367.367 2.477 1.102 3.281.726.813 1.828 1.227 3.257 1.227.844 0 1.711-.172 2.336-.414 0 0 .117-.055.07-.196l-.413-1.109Zm2.891-3.688c.078-.53.227-.976.453-1.32.344-.523.86-.812 1.594-.812.734 0 1.219.289 1.563.812.234.344.328.805.367 1.32h-3.977Zm5.547-1.164a3.343 3.343 0 0 0-.719-1.304c-.36-.39-.71-.657-1.062-.805a4.063 4.063 0 0 0-1.602-.32c-.695 0-1.328.117-1.844.36-.515.241-.945.57-1.289.983a4.12 4.12 0 0 0-.757 1.446 6.217 6.217 0 0 0-.243 1.781c0 .64.086 1.242.25 1.781.172.547.446 1.024.813 1.422.367.399.836.711 1.406.93.563.219 1.242.328 2.023.328 1.61-.008 2.462-.367 2.813-.555.063-.03.117-.093.047-.265l-.367-1.024c-.055-.148-.211-.093-.211-.093-.399.148-.969.414-2.29.414-.867 0-1.507-.258-1.906-.657-.414-.406-.617-1.008-.648-1.86l5.586.009s.148 0 .164-.149c.008-.078.195-1.164-.164-2.422ZM37.32 47.937c.078-.53.227-.976.453-1.32.344-.523.86-.812 1.594-.812.735 0 1.219.289 1.563.812.226.344.328.805.367 1.32H37.32Zm5.555-1.164a3.442 3.442 0 0 0-.71-1.304c-.36-.39-.712-.657-1.063-.805a4.063 4.063 0 0 0-1.602-.32c-.695 0-1.328.117-1.844.36-.515.241-.945.57-1.289.983a4.12 4.12 0 0 0-.758 1.446 6.213 6.213 0 0 0-.242 1.781c0 .64.086 1.242.25 1.781a3.72 3.72 0 0 0 .813 1.422c.367.399.836.711 1.406.93.563.219 1.242.328 2.023.328 1.61-.008 2.461-.367 2.813-.555.062-.03.117-.093.047-.265l-.367-1.024c-.055-.148-.211-.093-.211-.093-.399.148-.97.414-2.29.414-.867 0-1.507-.258-1.906-.657-.414-.406-.617-1.008-.648-1.86l5.586.009s.148 0 .164-.149c0-.078.187-1.164-.172-2.422Zm-17.625 4.82c-.219-.171-.25-.218-.32-.327-.11-.172-.164-.414-.164-.727 0-.492.164-.844.5-1.078-.008 0 .476-.422 1.617-.406a10.59 10.59 0 0 1 1.515.133v2.539s-.71.148-1.507.203c-1.141.062-1.641-.336-1.641-.336Zm2.227-3.921a13.327 13.327 0 0 0-.875-.024c-.477 0-.938.063-1.375.18a3.542 3.542 0 0 0-1.165.54c-.335.241-.609.554-.812.921a2.729 2.729 0 0 0-.297 1.29c0 .491.086.921.258 1.273.172.351.414.648.727.875a3.1 3.1 0 0 0 1.14.492c.438.101.938.148 1.477.148.57 0 1.14-.047 1.695-.14a29.225 29.225 0 0 0 1.406-.274c.188-.047.39-.101.39-.101.142-.032.126-.18.126-.18v-5.11c0-1.117-.297-1.953-.89-2.46-.587-.516-1.446-.774-2.563-.774-.422 0-1.094.055-1.492.14 0 0-1.22.235-1.72.626 0 0-.109.07-.046.218l.398 1.063c.047.14.18.094.18.094s.04-.016.094-.047c1.078-.586 2.43-.57 2.43-.57.601 0 1.07.117 1.382.359.305.234.461.586.461 1.328v.234c-.492-.062-.93-.101-.93-.101Zm45.03-2.875a.157.157 0 0 0-.085-.203c-.094-.04-.57-.14-.938-.164-.703-.04-1.093.078-1.437.234-.344.156-.727.406-.945.695v-.68a.167.167 0 0 0-.165-.171h-1.43a.167.167 0 0 0-.163.172v8.328c0 .094.078.172.172.172h1.468a.173.173 0 0 0 .172-.172v-4.164c0-.555.063-1.117.188-1.469.117-.344.289-.625.492-.82.203-.196.438-.336.688-.414a2.76 2.76 0 0 1 .75-.11c.288 0 .617.078.617.078.109.016.164-.054.203-.148.086-.25.36-1.016.414-1.164Z" fill="#fff" style="fill:#fff;fill-opacity:1"/>
    <path d="M58.734 40.938a4.811 4.811 0 0 0-.554-.133 4.297 4.297 0 0 0-.758-.055c-1.008 0-1.805.29-2.367.852-.555.562-.93 1.414-1.125 2.53l-.07.376h-1.266s-.157-.008-.188.164l-.21 1.164c-.016.11.03.18.179.18h1.234L52.36 53a8.234 8.234 0 0 1-.336 1.375c-.125.344-.242.602-.39.797-.14.18-.274.312-.508.39a2.148 2.148 0 0 1-.656.094c-.133 0-.313-.023-.446-.047-.132-.023-.203-.054-.304-.093 0 0-.14-.055-.203.086-.047.117-.375 1.023-.414 1.132-.04.11.015.196.086.227.164.055.289.094.507.148.313.07.57.078.82.078.516 0 .985-.07 1.368-.21.39-.141.726-.391 1.031-.72.328-.359.531-.734.727-1.25.195-.507.359-1.14.492-1.874l1.258-7.117h1.836s.156.007.187-.164l.211-1.164c.016-.11-.031-.18-.18-.18h-1.789c.008-.04.094-.672.297-1.258.086-.25.25-.453.39-.594.141-.14.298-.234.47-.289.18-.054.374-.086.601-.086.164 0 .336.016.461.047.172.04.242.055.29.07.179.055.21 0 .241-.086l.43-1.171c.047-.133-.063-.188-.102-.203Zm-24.937 12.07c0 .094-.07.172-.164.172h-1.485c-.093 0-.156-.078-.156-.172V41.094c0-.094.063-.172.156-.172h1.485c.094 0 .164.078.164.172v11.914Z" fill="#fff" style="fill:#fff;fill-opacity:1"/>
</svg>
