<svg width="100" height="50" fill="none" xmlns="http://www.w3.org/2000/svg">
    <path fill-rule="evenodd" clip-rule="evenodd" d="M83.984 28.523c-3.284.012-6.137.539-8.526 1.318-.877-1.157-1.754-2.19-1.909-2.945-.172-.882-.378-1.421-.172-2.476.207-1.055 1.135-2.556 1.118-2.67-.017-.115-.206-.654-2.097-.665-1.89-.011-3.524.24-3.713.573-.189.332-.55 1.088-.79 1.868-.327 1.146-3.782 5.238-5.76 7.381-.635-.836-1.185-1.57-1.306-2.155-.172-.882-.378-1.42-.172-2.476.207-1.054 1.135-2.555 1.118-2.67-.017-.115-.206-.654-2.097-.665-1.89-.011-3.524.24-3.713.573-.189.332-.395 1.112-.79 1.868-.396.757-4.986 7.588-6.19 9.353a48.365 48.365 0 0 1-1.53 2.12s-.016.034-.068.092l-.516.654c-.258.32-.533.607-.67.607-.104 0-.293-.825.033-1.948.688-2.372 2.321-6.063 2.304-6.19 0-.068.31-.71-1.066-1.042-1.34-.333-1.822.217-1.942.217-.12 0-.207.195-.207.195s1.496-4.149-2.853-4.149c-2.716 0-6.464 1.983-8.32 3.77l-6.327 2.304-3.043 1.112c-.069-.046-.138-.103-.207-.149-5.26-3.747-14.99-6.396-14.577-11.427.154-1.833 1.1-6.647 18.686-12.493C43.157 3.652 54.675 4.97 56.67 7.892c2.854 4.172-6.171 11.92-21.127 13.044-5.707.424-8.7-1.043-9.455-1.593-.79-.573-.911-.608-1.204-.493-.48.172-.171.688 0 .986.447.78 2.287 2.155 5.399 2.831 2.75.596 9.437.928 17.534-1.158 9.06-2.338 16.143-8.837 14.063-14.28-2.083-5.526-15.836-7.348-28.85-4.265-7.735 1.834-16.124 4.722-22.159 8.481-7.168 4.47-8.303 8.356-7.838 9.983 1.667 5.777 13.615 9.536 18.394 12.321l-.653.241c-2.39.79-11.5 3.966-13.77 7.324-2.579 3.805.412 6.533 2.39 6.9 6.136 1.135 12.446-.905 15.832-4.275 3.387-3.37 2.974-7.748 1.41-9.754a.26.26 0 0 0-.07-.069l1.874-.733c1.22-.481 2.424-.928 3.456-1.295-.585 1.066-1.015 2.338-1.221 4.171-.258 2.155 1.066 4.952 2.802 6.052.774.481 1.685.493 2.27.493 2.029 0 2.94-1.123 3.954-2.453 1.237-1.627 2.355-3.519 2.355-3.519s-1.392 5.112 2.39 5.112c1.375 0 2.767-1.192 3.386-1.8 0 .012.034-.022.103-.102l.224-.24v-.024a96.044 96.044 0 0 0 3.627-4.516c2.372-3.117 4.658-7.014 4.658-7.014s.207.95.912 2.533c.412.928 1.272 1.948 1.96 2.934-.55.516-.895.802-.895.802l.017.012c-.447.39-.928.813-1.46 1.226-1.874 1.49-4.11 3.198-4.419 3.69-.361.586-.275 1.01.412 1.353.499.253 1.393.287 2.304.253 1.685-.08 2.87-.356 3.455-.527.911-.218 1.977-.55 2.974-1.043 1.84-.906 2.957-2.201 2.854-3.909-.052-.94-.516-1.879-1.083-2.762.172-.16.326-.32.498-.481 2.905-2.831 5.157-5.937 5.157-5.937s.207.951.911 2.533c.345.802 1.05 1.673 1.668 2.521-2.733 1.479-4.418 3.198-5.02 4.322-1.083 2.086-.24 3.026 1.358 3.243.722.103 1.754-.126 2.51-.344a14.275 14.275 0 0 0 3.18-1.089c1.84-.905 3.61-2.166 3.508-3.874-.052-.78-.361-1.547-.79-2.292 2.32-.642 5.312-.997 9.128-.7 8.183.642 9.798 4.046 9.489 5.48-.31 1.432-2.028 2.212-2.596 2.452-.567.24-.756.321-.705.493.07.252.344.24.826.195.67-.08 4.297-1.158 4.452-3.794.258-3.37-4.556-7.049-13.065-7.014l.001-.001Zm-63.125 14.19c-2.717 1.97-6.499 2.716-8.132 2.085-1.753-.676-1.065-3.587 2.27-5.673 2.028-1.273 4.642-2.453 6.378-3.175l1.684-.676c.12-.046.19-.07.19-.07l.411-.171c1.221 2.98.053 5.605-2.801 7.68Zm19.77-8.964c-.946 1.536-2.923 5.468-4.127 5.25-1.031-.184-1.667-3.164-.206-6.109.74-1.479 2.303-3.244 3.214-3.931 1.479-1.1 3.112-1.467 3.508-1.02.498.585-1.806 4.847-2.39 5.81Zm16.313 5.204c-.395.138-.773.23-.945.16-.12-.045.172-.229.172-.229s2.046-1.467 2.853-2.132l1.599-1.364v.15c0 1.753-2.544 2.934-3.679 3.415Zm12.584-1.914c-.293-.138-.24-.596.74-2.029.377-.562 1.271-1.502 2.801-2.407.172.367.293.722.276 1.055-.017 2.211-2.39 3.037-3.817 3.38Z" fill="#CD6799" style="fill:color(display-p3 .8039 .4039 .6);fill-opacity:1"/>
</svg>
