<svg width="100" height="100" fill="none" xmlns="http://www.w3.org/2000/svg">
    <g clip-path="url(#a)">
        <path d="M21.293 63.062c0 5.726-4.67 10.404-10.398 10.404C5.17 73.466.492 68.788.492 63.062c0-5.727 4.678-10.404 10.404-10.404h10.398l-.001 10.404Zm5.241 0c0-5.727 4.678-10.404 10.404-10.404 5.727 0 10.404 4.676 10.404 10.404v26.043c0 5.726-4.676 10.404-10.404 10.404-5.726 0-10.404-4.678-10.404-10.404V63.062Z" fill="#DE1C59" style="fill:color(display-p3 .8706 .1098 .349);fill-opacity:1"/>
        <path d="M36.938 21.293c-5.726 0-10.404-4.67-10.404-10.398C26.534 5.17 31.212.492 36.938.492c5.727 0 10.404 4.678 10.404 10.404v10.398l-10.404-.001Zm0 5.241c5.727 0 10.404 4.678 10.404 10.404 0 5.727-4.676 10.404-10.404 10.404H10.895C5.17 47.342.492 42.666.492 36.938c0-5.726 4.678-10.404 10.404-10.404h26.042Z" fill="#35C5F0" style="fill:color(display-p3 .2078 .7725 .9412);fill-opacity:1"/>
        <path d="M78.707 36.938c0-5.726 4.67-10.404 10.398-10.404 5.726 0 10.404 4.678 10.404 10.404 0 5.727-4.678 10.404-10.404 10.404H78.707V36.938Zm-5.241 0c0 5.727-4.678 10.404-10.404 10.404-5.727 0-10.404-4.676-10.404-10.404V10.895C52.658 5.17 57.334.492 63.062.492c5.726 0 10.404 4.678 10.404 10.404v26.042Z" fill="#2EB57D" style="fill:color(display-p3 .1804 .7098 .4902);fill-opacity:1"/>
        <path d="M63.062 78.707c5.726 0 10.404 4.67 10.404 10.398 0 5.726-4.678 10.404-10.404 10.404-5.727 0-10.404-4.678-10.404-10.404V78.707h10.404Zm0-5.241c-5.727 0-10.404-4.678-10.404-10.404 0-5.727 4.676-10.404 10.404-10.404h26.043c5.726 0 10.404 4.676 10.404 10.404 0 5.726-4.678 10.404-10.404 10.404H63.062Z" fill="#EBB02E" style="fill:color(display-p3 .9216 .6902 .1804);fill-opacity:1"/>
    </g>
    <defs>
        <clipPath id="a">
            <path fill="#fff" style="fill:#fff;fill-opacity:1" d="M0 0h100v100H0z"/>
        </clipPath>
    </defs>
</svg>
