<svg width="100" height="100" fill="none" xmlns="http://www.w3.org/2000/svg">
    <g clip-path="url(#a)">
        <path d="M99.219 12.61c0-6.533-5.296-11.829-11.83-11.829H12.611C6.077.781.78 6.077.78 12.611v74.777c0 6.535 5.296 11.83 11.83 11.83h74.778c6.534 0 11.83-5.295 11.83-11.83V12.611ZM45.313 77.767c0 2.974-2.568 5.046-5.542 5.046H18.41c-2.975 0-5.128-2.072-5.128-5.046V18.148c0-2.975 2.153-5.648 5.128-5.648H39.77c2.974 0 5.541 2.673 5.541 5.648v59.618Zm42.968-51.92v24.912c0 2.974-2.294 5.492-5.269 5.492H61.662c-2.975 0-5.411-2.519-5.411-5.492V17.864c0-2.975 2.436-5.364 5.41-5.364h21.353c2.974 0 5.268 2.39 5.268 5.364v7.983Z" fill="#23719F" style="fill:color(display-p3 .1373 .4431 .6235);fill-opacity:1"/>
    </g>
    <defs>
        <clipPath id="a">
            <path fill="#fff" style="fill:#fff;fill-opacity:1" d="M0 0h100v100H0z"/>
        </clipPath>
    </defs>
</svg>
