<svg width="100" height="100" fill="none" xmlns="http://www.w3.org/2000/svg">
    <path d="M17.71 36.719h77.868v57.554H17.711V36.72Z" fill="#fff" style="fill:#fff;fill-opacity:1"/>
    <path d="M1.172 49.93v48.828h97.656V1.102H1.172V49.93Zm78.695-3.907a12.156 12.156 0 0 1 6.11 3.516 16.076 16.076 0 0 1 2.343 3.125c0 .125-4.218 2.977-6.789 4.57-.094.063-.469-.343-.883-.96a5.539 5.539 0 0 0-4.585-2.758c-2.961-.203-4.868 1.351-4.852 3.906a3.58 3.58 0 0 0 .422 1.828c.648 1.352 1.86 2.156 5.656 3.797 6.992 3.008 9.984 4.992 11.844 7.812 2.078 3.125 2.539 8.172 1.133 11.907-1.563 4.062-5.391 6.82-10.805 7.734a29.94 29.94 0 0 1-7.438-.078 17.97 17.97 0 0 1-9.937-5.18c-.898-.992-2.648-3.578-2.54-3.765.286-.212.586-.403.9-.57l3.617-2 2.804-1.626.586.867a13.108 13.108 0 0 0 3.703 3.547c3.125 1.64 7.39 1.414 9.5-.484a4.242 4.242 0 0 0 .54-5.406c-.782-1.086-2.344-2-6.712-3.907-5.039-2.171-7.21-3.515-9.195-5.656a12.875 12.875 0 0 1-2.68-4.883 19.53 19.53 0 0 1-.172-6.25c1.04-4.867 4.688-8.265 10.016-9.273a24.734 24.734 0 0 1 7.414.203v-.016Zm-22.922 4.094v4h-12.68v36.117h-8.992V54.11h-12.71v-3.906a38.44 38.44 0 0 1 .093-4.039c.063-.07 7.813-.07 17.188-.07h17.054l.047 4.023Z" fill="#007ACC" style="fill:color(display-p3 0 .4784 .8);fill-opacity:1"/>
</svg>
