<svg width="100" height="100" fill="none" xmlns="http://www.w3.org/2000/svg">
    <g clip-path="url(#a)">
        <mask id="b" style="mask-type:alpha" maskUnits="userSpaceOnUse" x="-1" y="0" width="101" height="100">
            <path fill-rule="evenodd" clip-rule="evenodd" d="M70.912 99.317a6.226 6.226 0 0 0 4.96-.19l20.589-9.907A6.25 6.25 0 0 0 100 83.587V16.413a6.252 6.252 0 0 0-3.54-5.633L75.874.876a6.226 6.226 0 0 0-7.104 1.21L29.355 38.041 12.187 25.01a4.163 4.163 0 0 0-5.317.236l-5.507 5.009a4.168 4.168 0 0 0-.004 6.162L16.247 50 1.359 63.584a4.169 4.169 0 0 0 .005 6.161l5.506 5.009a4.162 4.162 0 0 0 5.318.237l17.167-13.032L68.77 97.916a6.216 6.216 0 0 0 2.143 1.401ZM75.015 27.3 45.109 50l29.907 22.702-.001-45.403Z" fill="#fff" style="fill:#fff;fill-opacity:1"/>
        </mask>
        <g mask="url(#b)">
            <path d="M96.462 10.797 75.857.875a6.229 6.229 0 0 0-7.107 1.21L1.298 63.583a4.166 4.166 0 0 0 .005 6.161l5.51 5.009a4.167 4.167 0 0 0 5.32.237L93.362 13.37c2.725-2.068 6.639-.124 6.639 3.296v-.239a6.251 6.251 0 0 0-3.538-5.63Z" fill="#0065A9" style="fill:color(display-p3 0 .3961 .6627);fill-opacity:1"/>
            <g filter="url(#c)">
                <path d="m96.462 89.204-20.605 9.92a6.229 6.229 0 0 1-7.107-1.208l-67.452-61.5a4.167 4.167 0 0 1 .005-6.161l5.51-5.009a4.167 4.167 0 0 1 5.32-.237l81.228 61.62c2.725 2.069 6.639.125 6.639-3.296v.24a6.251 6.251 0 0 1-3.538 5.63Z" fill="#007ACC" style="fill:color(display-p3 0 .4784 .8);fill-opacity:1"/>
            </g>
            <g filter="url(#d)">
                <path d="M75.858 99.126a6.232 6.232 0 0 1-7.108-1.21c2.306 2.307 6.25.673 6.25-2.589V4.672c0-3.262-3.944-4.895-6.25-2.588a6.232 6.232 0 0 1 7.108-1.21l20.6 9.907A6.25 6.25 0 0 1 100 16.414v67.174a6.25 6.25 0 0 1-3.541 5.632l-20.601 9.906Z" fill="#1F9CF0" style="fill:color(display-p3 .1216 .6118 .9412);fill-opacity:1"/>
            </g>
            <path opacity=".25" fill-rule="evenodd" clip-rule="evenodd" d="M70.852 99.317a6.227 6.227 0 0 0 4.96-.19L96.4 89.22a6.25 6.25 0 0 0 3.539-5.633V16.413A6.25 6.25 0 0 0 96.4 10.78L75.812.876a6.227 6.227 0 0 0-7.104 1.21L29.294 38.041 12.126 25.011a4.162 4.162 0 0 0-5.317.236l-5.507 5.009a4.168 4.168 0 0 0-.004 6.162L16.186 50 1.298 63.583a4.167 4.167 0 0 0 .005 6.162l5.506 5.009a4.163 4.163 0 0 0 5.318.237l17.168-13.032L68.71 97.916a6.218 6.218 0 0 0 2.143 1.401Zm4.103-72.019L45.048 50l29.907 22.7V27.299Z" fill="url(#e)"/>
        </g>
    </g>
    <defs>
        <filter id="c" x="-8.394" y="15.829" width="116.727" height="92.245" filterUnits="userSpaceOnUse" color-interpolation-filters="sRGB">
            <feFlood flood-opacity="0" result="BackgroundImageFix"/>
            <feColorMatrix in="SourceAlpha" values="0 0 0 0 0 0 0 0 0 0 0 0 0 0 0 0 0 0 127 0" result="hardAlpha"/>
            <feOffset/>
            <feGaussianBlur stdDeviation="4.167"/>
            <feColorMatrix values="0 0 0 0 0 0 0 0 0 0 0 0 0 0 0 0 0 0 0.25 0"/>
            <feBlend mode="overlay" in2="BackgroundImageFix" result="effect1_dropShadow_41_13"/>
            <feBlend in="SourceGraphic" in2="effect1_dropShadow_41_13" result="shape"/>
        </filter>
        <filter id="d" x="60.417" y="-8.076" width="47.917" height="116.151" filterUnits="userSpaceOnUse" color-interpolation-filters="sRGB">
            <feFlood flood-opacity="0" result="BackgroundImageFix"/>
            <feColorMatrix in="SourceAlpha" values="0 0 0 0 0 0 0 0 0 0 0 0 0 0 0 0 0 0 127 0" result="hardAlpha"/>
            <feOffset/>
            <feGaussianBlur stdDeviation="4.167"/>
            <feColorMatrix values="0 0 0 0 0 0 0 0 0 0 0 0 0 0 0 0 0 0 0.25 0"/>
            <feBlend mode="overlay" in2="BackgroundImageFix" result="effect1_dropShadow_41_13"/>
            <feBlend in="SourceGraphic" in2="effect1_dropShadow_41_13" result="shape"/>
        </filter>
        <linearGradient id="e" x1="49.939" y1=".258" x2="49.939" y2="99.742" gradientUnits="userSpaceOnUse">
            <stop stop-color="#fff" style="stop-color:white;stop-opacity:1"/>
            <stop offset="1" stop-color="#fff" stop-opacity="0" style="stop-color:none;stop-opacity:0"/>
        </linearGradient>
        <clipPath id="a">
            <path fill="#fff" style="fill:#fff;fill-opacity:1" d="M0 0h100v100H0z"/>
        </clipPath>
    </defs>
</svg>
