<svg width="124" height="124" fill="none" xmlns="http://www.w3.org/2000/svg">
    <g clip-path="url(#a)">
        <path d="M9.208 61.76c0 20.802 12.089 38.779 29.619 47.298L13.758 40.372a52.354 52.354 0 0 0-4.55 21.388Zm88.032-2.652c0-6.495-2.333-10.993-4.334-14.494-2.664-4.329-5.161-7.995-5.161-12.324 0-4.831 3.664-9.328 8.825-9.328.233 0 .454.029.681.042-9.35-8.566-21.807-13.796-35.489-13.796-18.36 0-34.513 9.42-43.91 23.688l3.382.063c5.497 0 14.006-.667 14.006-.667 2.833-.167 3.167 3.994.337 4.329 0 0-2.847.335-6.015.501L48.7 94.047l11.501-34.493-8.188-22.434c-2.83-.166-5.511-.501-5.511-.501-2.832-.166-2.5-4.496.332-4.329 0 0 8.679.667 13.843.667 5.496 0 14.006-.667 14.006-.667 2.835-.167 3.168 3.994.337 4.329 0 0-2.853.335-6.015.501l18.992 56.494 5.242-17.517c2.272-7.269 4.001-12.49 4.001-16.989Zm-34.556 7.249-15.768 45.819a52.542 52.542 0 0 0 14.846 2.141 52.498 52.498 0 0 0 17.452-2.979 4.615 4.615 0 0 1-.374-.724L62.684 66.357Zm45.192-29.811c.226 1.674.354 3.471.354 5.404 0 5.333-.996 11.328-3.996 18.824l-16.053 46.413c15.624-9.111 26.133-26.038 26.133-45.426.001-9.137-2.333-17.729-6.438-25.215ZM61.762.5C27.983.5.5 27.981.5 61.76c0 33.779 27.483 61.263 61.262 61.263 33.779 0 61.265-27.48 61.265-61.263S95.54.5 61.762.5Zm0 119.715c-32.23 0-58.453-26.223-58.453-58.455S29.531 3.309 61.762 3.309s58.45 26.221 58.45 58.451c0 32.23-26.221 58.455-58.45 58.455Z" fill="#00749A" style="fill:color(display-p3 0 .4549 .6039);fill-opacity:1"/>
    </g>
    <defs>
        <clipPath id="a">
            <path fill="#fff" style="fill:#fff;fill-opacity:1" d="M0 0h124v124H0z"/>
        </clipPath>
    </defs>
</svg>
