<svg width="100" height="100" fill="none" xmlns="http://www.w3.org/2000/svg">
    <path d="M77.531 63.055c-3.39.039-6.36 1.789-8.867 3.351-4.687 2.899-7.031 2.711-7.031 2.711l-.078-.133c-.32-.523 1.5-5.218-.54-10.812-2.203-6.117-5.703-7.594-5.421-8.063 1.195-2.023 4.187-5.234 5.383-11.218.71-3.625.523-9.594-1.086-12.72-.297-.577-2.953.97-2.953.97s-2.485-5.54-3.18-5.985c-2.242-1.437-4.688 5.946-4.688 5.946a10.938 10.938 0 0 0-9.148 3.515 7.531 7.531 0 0 1-3.008 1.774c-.32.109-.71.093-1.68 2.71-1.484 3.962 2.532 8.446 2.532 8.446s-4.79 3.383-6.563 7.594a19.359 19.359 0 0 0-1.367 9.125s-3.406 2.953-3.625 6a10.054 10.054 0 0 0 1.383 6.117 1.513 1.513 0 0 0 2.054.71s-2.265 2.641-.148 3.758c1.93 1.008 5.18 1.563 6.898-.148 1.25-1.25 1.5-4.039 1.961-5.18.11-.265.485.446.844.782.332.29.687.55 1.063.78 0 0-3.047 1.313-1.797 4.306.414.992 1.89 1.625 4.304 1.609.899 0 10.75-.563 13.375-1.195a3.383 3.383 0 0 0 2.04-1.141 49.218 49.218 0 0 0 12.101-5.469c3.703-2.414 5.219-3.07 8.211-3.781 2.469-.586 2.305-4.414-.969-4.36Z" fill="#2C8EBB" style="fill:color(display-p3 .1725 .5569 .7333);fill-opacity:1"/>
    <path d="M50 1.563a48.437 48.437 0 1 0 0 96.874 48.437 48.437 0 0 0 0-96.874ZM79.14 70.18c-2.617.632-3.835 1.125-7.35 3.406a52.34 52.34 0 0 1-12.157 5.61 6.803 6.803 0 0 1-2.844 1.382c-2.977.727-13.187 1.274-13.992 1.274h-.188c-3.125 0-4.898-.97-5.851-1.985-2.656 1.328-6.094.781-8.594-.539a4.337 4.337 0 0 1-2.344-3.047 4.691 4.691 0 0 1 0-1.61 5.204 5.204 0 0 1-.617-.78 12.797 12.797 0 0 1-1.765-7.86c.226-2.914 2.242-5.515 3.554-6.898-.109-3.124.44-6.235 1.61-9.133a20.952 20.952 0 0 1 5.328-7.031c-1.29-2.172-2.602-5.516-1.328-8.922.914-2.43 1.664-3.781 3.312-4.36a5.342 5.342 0 0 0 1.961-1.046 13.79 13.79 0 0 1 9.266-4.422c.148-.375.32-.782.508-1.14 1.25-2.657 2.578-4.15 4.132-4.688a3.813 3.813 0 0 1 3.438.39c.508.336 1.156.782 3.047 4.688a3.663 3.663 0 0 1 2.226-.078 2.977 2.977 0 0 1 1.867 1.515c1.93 3.703 2.188 10.305 1.344 14.547a26.405 26.405 0 0 1-4.562 10.399 20.102 20.102 0 0 1 4.508 7.367 19.86 19.86 0 0 1 1.101 8.133c.84-.403 1.654-.856 2.438-1.36 2.39-1.476 6-3.703 10.304-3.758a5.172 5.172 0 0 1 5.469 4.453 4.961 4.961 0 0 1-3.82 5.493Z" fill="#2C8EBB" style="fill:color(display-p3 .1725 .5569 .7333);fill-opacity:1"/>
</svg>
